<svg xmlns="http://www.w3.org/2000/svg" width="100%" height="100%" viewBox="0 0 18 18" fill="none">
<mask id="mask0_457_42674" style="mask-type:alpha" maskUnits="userSpaceOnUse" x="0" y="0" width="18" height="18">
<circle cx="9" cy="9" r="9" fill="#D9D9D9"/>
</mask>
<g mask="url(#mask0_457_42674)">
<path d="M16.8336 -0.501542C10.0462 -1.99979 5.64509 0.144528 -1.31488 2.41993C-1.69361 2.33916 -2 2.54512 -2 2.90454V15.6013C-2 15.9607 -1.69361 16.3363 -1.31488 16.4211C5.47247 17.9193 10.2218 20.5589 17.2616 17.9039C17.6404 17.9887 19.7366 15.9647 19.7366 15.6053V2.90858C19.7366 2.54512 17.2123 -0.416735 16.8336 -0.501542Z" fill="#0B67B2"/>
<path d="M17.6064 4.13567C17.6064 3.84728 17.3608 3.54593 17.0573 3.47789C17.0232 3.47141 16.9857 3.46168 16.9516 3.4552L10.891 6.96123V-0.818359C9.56084 -0.666064 8.23072 -0.458684 6.9006 -0.306389V6.92235L1.71993 3.92505C1.39252 3.87969 1.0651 3.82136 0.734277 3.74683C0.430736 3.68203 0.185174 3.84728 0.185174 4.13567V4.80966L4.55071 7.33387H-0.670898V11.125H4.75193L0.185174 13.7659V14.3232C0.185174 14.6116 0.430736 14.913 0.734277 14.981C0.836594 15.0037 0.938911 15.0231 1.03782 15.0426L6.89718 11.65V18.4374C8.22731 18.2851 9.55743 18.9144 10.8876 18.7621V11.6078L15.8977 14.5112C16.2831 14.5598 16.6685 14.6246 17.0539 14.7121C17.3574 14.7801 17.603 14.6149 17.603 14.3265V13.7303L13.1044 11.1283H19.1913V7.33711H13.3057L17.603 4.85178C17.6064 4.60876 17.6064 4.37221 17.6064 4.13567Z" fill="#FF473E"/>
<path d="M14.2676 11.4363L17.6065 13.3637V14.1204L12.9579 11.4363H11.2083L16.8118 14.6733C16.8118 14.9385 17.1038 15.1875 16.5376 15.1455L11.198 12.1898V18.4426C10.9934 18.4652 10.7888 18.4879 10.5841 18.5137V10.8575H18.4007V11.4396H14.2676V11.4363ZM6.59376 18.1848C6.79839 18.1622 7.00303 18.9762 7.20766 18.9503V10.8543H-1.52686V11.4363H3.59245L0.18529 13.4025V14.1592L4.90211 11.4363H6.59376V11.4687L0.584327 14.9385C0.632075 14.9611 0.683234 14.9805 0.734392 14.9935C1.00383 15.0517 1.27326 15.1034 1.5427 15.1455L6.59376 12.2286V18.1848ZM-1.52686 7.07077V7.65285H7.20766V-0.408203C7.00303 -0.382333 6.79839 -0.359697 6.59376 -0.337061V6.39815L0.996636 3.26395C0.410018 3.21544 1.35512 3.92109 0.768498 3.79174L6.4471 7.07077H4.69748L0.18529 4.46437V5.22106L3.39123 7.07077H-1.52686ZM11.198 -0.0825204C10.9934 -0.0598841 10.7888 -0.0372477 10.5841 -0.0113776V7.65285H18.4007V7.07077H14.4688L18.1181 4.93707L17.6065 4.50317L13.1591 7.07077H11.4095L17.3337 3.64946C17.2518 3.58478 17.1597 3.53628 17.0574 3.51364C16.8562 3.46837 16.6584 3.4328 16.4571 3.39722L11.198 6.43372V-0.0825204Z" fill="#E8E8E8"/>
</g>
</svg>