<svg xmlns="http://www.w3.org/2000/svg" width="100%" height="100%" viewBox="0 0 69 24" fill="currentColor">
<path d="M59.6587 23.52C56.992 23.52 54.912 22.592 53.4187 20.736C51.9254 18.8586 51.1787 15.9466 51.1787 12C51.1787 8.05331 51.9254 5.15198 53.4187 3.29598C54.912 1.41865 56.992 0.47998 59.6587 0.47998C62.3254 0.47998 64.4054 1.41865 65.8987 3.29598C67.392 5.15198 68.1387 8.05331 68.1387 12C68.1387 15.9466 67.392 18.8586 65.8987 20.736C64.4054 22.592 62.3254 23.52 59.6587 23.52ZM59.6587 20.64C60.832 20.64 61.792 19.9786 62.5387 18.656C63.2854 17.3333 63.6587 15.1146 63.6587 12C63.6587 8.88531 63.2854 6.66665 62.5387 5.34398C61.792 4.02131 60.832 3.35998 59.6587 3.35998C58.4854 3.35998 57.5254 4.02131 56.7787 5.34398C56.032 6.66665 55.6587 8.88531 55.6587 12C55.6587 15.1146 56.032 17.3333 56.7787 18.656C57.5254 19.9786 58.4854 20.64 59.6587 20.64Z" fill="currentCollor"/>
<path d="M41.9034 23.52C39.002 23.52 36.7834 22.592 35.2474 20.736C33.7114 18.88 32.9434 15.968 32.9434 12C32.9434 8.05331 33.69 5.15198 35.1834 3.29598C36.698 1.41865 38.8314 0.47998 41.5834 0.47998C43.2047 0.47998 44.6554 0.778647 45.9354 1.37598C46.5114 1.61065 47.034 1.89865 47.5034 2.23998L46.0634 4.79998H45.7434C45.5087 4.58665 45.1674 4.35198 44.7194 4.09598C43.7807 3.60531 42.842 3.35998 41.9034 3.35998C40.4954 3.35998 39.3967 4.01065 38.6074 5.31198C37.818 6.61331 37.4234 8.84265 37.4234 12C37.4234 15.1786 37.8287 17.4186 38.6394 18.72C39.4714 20 40.666 20.64 42.2234 20.64C42.586 20.64 42.9487 20.5866 43.3114 20.48C43.4607 20.4586 43.6314 20.4053 43.8234 20.32V13.6H40.4634V10.72H47.0234L48.3034 12V21.76C47.8767 22.08 47.3327 22.3786 46.6714 22.656C45.3274 23.232 43.738 23.52 41.9034 23.52Z" fill="currentCollor"/>
<path d="M21.9072 23.52C19.2406 23.52 17.1606 22.592 15.6672 20.736C14.1739 18.8586 13.4272 15.9466 13.4272 12C13.4272 8.05331 14.1739 5.15198 15.6672 3.29598C17.1606 1.41865 19.2406 0.47998 21.9072 0.47998C24.5739 0.47998 26.6539 1.41865 28.1472 3.29598C29.6406 5.15198 30.3872 8.05331 30.3872 12C30.3872 15.9466 29.6406 18.8586 28.1472 20.736C26.6539 22.592 24.5739 23.52 21.9072 23.52ZM21.9072 20.64C23.0806 20.64 24.0406 19.9786 24.7872 18.656C25.5339 17.3333 25.9072 15.1146 25.9072 12C25.9072 8.88531 25.5339 6.66665 24.7872 5.34398C24.0406 4.02131 23.0806 3.35998 21.9072 3.35998C20.7339 3.35998 19.7739 4.02131 19.0272 5.34398C18.2806 6.66665 17.9072 8.88531 17.9072 12C17.9072 15.1146 18.2806 17.3333 19.0272 18.656C19.7739 19.9786 20.7339 20.64 21.9072 20.64Z" fill="currentCollor"/>
<path d="M0 23.2001V0.800049H4.48V20.32H13.12V23.2001H0Z" fill="currentColor"/>
</svg>