<svg width="24" height="24" viewBox="0 0 24 24" fill="none" xmlns="http://www.w3.org/2000/svg">
<path fill-rule="evenodd" clip-rule="evenodd" d="M5.40498 4.29289C4.99572 3.90237 4.33218 3.90237 3.92292 4.29289C3.51366 4.68342 3.51366 5.31658 3.92292 5.70711L18.5946 19.7071C19.0039 20.0976 19.6674 20.0976 20.0767 19.7071C20.4859 19.3166 20.4859 18.6834 20.0767 18.2929L18.5328 16.8197C20.1441 15.5924 21.3677 13.9211 22 12C20.6646 7.94288 16.6925 5 12 5C10.2985 5 8.69179 5.38692 7.27109 6.07358L5.40498 4.29289ZM9.87043 8.55391L11.4569 10.0678C11.6302 10.0236 11.8122 10 12.0001 10C13.1576 10 14.096 10.8954 14.096 12C14.096 12.1792 14.0713 12.353 14.025 12.5182L15.6115 14.0321C15.9803 13.4366 16.192 12.7419 16.192 12C16.192 9.79086 14.3152 8 12.0001 8C11.2226 8 10.4945 8.20197 9.87043 8.55391Z" fill="#5D647C"/>
<path d="M14.5716 18.6967L11.7374 15.9923C9.63149 15.8681 7.94642 14.2601 7.81624 12.2506L3.96696 8.57754C3.09264 9.57223 2.41747 10.7317 2 12C3.33541 16.0571 7.30754 19 12 19C12.8873 19 13.7488 18.8948 14.5716 18.6967Z" fill="#5D647C"/>
</svg>
