<svg xmlns="http://www.w3.org/2000/svg" width="100%" height="100%" viewBox="0 0 20 19" fill="none">
<path d="M8.40991 15.4526C9.92383 15.4526 11.3425 14.9956 12.5232 14.2148L16.6936 18.3948C16.9697 18.6614 17.322 18.7947 17.7029 18.7947C18.4932 18.7947 19.074 18.1758 19.074 17.395C19.074 17.0332 18.9502 16.6809 18.6836 16.4143L14.5417 12.2534C15.3987 11.0347 15.9033 9.55884 15.9033 7.95923C15.9033 3.83643 12.5327 0.46582 8.40991 0.46582C4.29663 0.46582 0.916504 3.83643 0.916504 7.95923C0.916504 12.082 4.28711 15.4526 8.40991 15.4526ZM8.40991 13.4531C5.3916 13.4531 2.91602 10.9775 2.91602 7.95923C2.91602 4.94092 5.3916 2.46533 8.40991 2.46533C11.4282 2.46533 13.9038 4.94092 13.9038 7.95923C13.9038 10.9775 11.4282 13.4531 8.40991 13.4531Z" fill="currentColor"/>
</svg>