<svg width="54" height="60" viewBox="0 0 54 60" fill="none" xmlns="http://www.w3.org/2000/svg">
<path d="M27.0001 0L0.502686 15.2973C0.502686 20.8609 1.03073 25.7195 1.91562 30C7.38394 56.4517 27.0001 60 27.0001 60C27.0001 60 46.616 56.4517 52.0844 30C52.9693 25.7195 53.4973 20.861 53.4973 15.2973L27.0001 0ZM27.0138 54.6941C27.0097 54.6927 27.0042 54.6908 27.0001 54.6895V49.103V30H13.4964H7.67831C6.89667 26.5151 6.37647 22.5579 6.22589 18.0551L26.9998 6.06187H27.0001V12.124V30H40.5083H46.3237C42.1917 48.4458 30.6711 53.5282 27.0138 54.6941Z" fill="currentColor"/>
</svg>
