<svg width="60" height="60" viewBox="0 0 60 60" fill="none" xmlns="http://www.w3.org/2000/svg">
<path d="M30.0703 23.0625C33.6328 23.0625 36.4922 20.2031 36.4922 16.6406C36.4922 13.0781 33.6328 10.1953 30.0703 10.1953C26.5078 10.1953 23.6484 13.0547 23.6484 16.6172C23.6484 20.2031 26.5312 23.0625 30.0703 23.0625ZM15.1406 41.6719H3.58593C-0.164068 41.6719 -0.375006 35.9531 3.65624 35.9531H13.6641L19.4062 27.4922C21.0937 25.1953 23.0391 24.0938 25.7578 24.0938H34.3125C37.0547 24.0938 38.9766 25.1016 40.6641 27.5156L46.4297 35.9766H56.5078C60.5391 35.9766 60.3047 41.6953 56.6484 41.6953H45.0937C44.1797 41.6953 43.0781 41.3672 42.4219 40.3828L38.0156 34.1016L37.9922 49.8516H22.2187L22.1953 34.1016L17.7891 40.3828C17.1562 41.3438 16.0547 41.6719 15.1406 41.6719Z" fill="currentColor"/>
<path d="M7.26562 19.6875C3.51562 19.6875 0.46875 22.7344 0.46875 26.4844C0.46875 30.2344 3.51562 33.2812 7.26562 33.2812C11.0156 33.2812 14.0625 30.2344 14.0625 26.4844C14.0625 22.7344 11.0156 19.6875 7.26562 19.6875ZM7.26562 31.9219C4.26562 31.9219 1.80469 29.4844 1.80469 26.4609C1.80469 23.4375 4.26562 21.0234 7.26562 21.0234C10.2656 21.0234 12.7266 23.4609 12.7266 26.4844C12.6797 29.4844 10.2422 31.9219 7.26562 31.9219ZM10.6641 25.1484C10.5469 24.9375 10.2656 24.7969 9.98438 24.9609L7.57031 26.0391V23.1797C7.57031 23.0156 7.52344 22.8984 7.40625 22.7813C7.3125 22.6875 7.19531 22.6641 7.05469 22.6641C6.79688 22.6641 6.51562 22.8516 6.51562 23.1797V26.9063C6.51562 27.1172 6.63281 27.3047 6.82031 27.3984C6.91406 27.4453 6.98438 27.4687 7.07812 27.4687C7.17188 27.4687 7.24219 27.4453 7.33594 27.3984L10.4531 25.9219C10.5938 25.8516 10.6875 25.7344 10.7344 25.5937C10.7344 25.4531 10.7344 25.2891 10.6641 25.1484Z" fill="currentColor"/>
<path d="M52.3828 23.3437V22.4766L51.4688 22.3125C51.3984 22.0078 51.2813 21.7266 51.1172 21.4922L51.6562 20.7422L51.0469 20.1328L50.2969 20.6719C50.0391 20.5078 49.7578 20.3906 49.4766 20.3203L49.3125 19.4062H48.4453L48.2812 20.3203C47.9766 20.3906 47.6953 20.5078 47.4609 20.6719L46.7109 20.1328L46.1016 20.7422L46.6406 21.4922C46.4766 21.75 46.3594 22.0313 46.2891 22.3125L45.375 22.4766V23.3437L46.2891 23.5078C46.3594 23.8125 46.4766 24.0938 46.6406 24.3281L46.1016 25.0781L46.7109 25.6875L47.4609 25.1484C47.7187 25.3125 48 25.4297 48.2812 25.5L48.4453 26.4141H49.3125L49.4766 25.5C49.7813 25.4297 50.0625 25.3125 50.2969 25.1484L51.0469 25.6875L51.6562 25.0781L51.1172 24.3281C51.2813 24.0703 51.3984 23.7891 51.4688 23.5078L52.3828 23.3437ZM48.8672 24.3047C48.0937 24.3047 47.4844 23.6719 47.4844 22.9219C47.4844 22.1719 48.1172 21.5391 48.8672 21.5391C49.6406 21.5391 50.25 22.1719 50.25 22.9219C50.25 23.6719 49.6406 24.3047 48.8672 24.3047ZM58.4531 28.3594L59.5312 27.7031L59.0859 26.6016L57.8672 26.8828C57.6328 26.5547 57.3516 26.25 57 26.0156L57.2812 24.7969L56.2031 24.3516L55.5234 25.4063C55.125 25.3359 54.7031 25.3359 54.3047 25.4063L53.6484 24.3516L52.5469 24.7969L52.8281 26.0156C52.5 26.25 52.1953 26.5312 51.9609 26.8828L50.7422 26.6016L50.2969 27.6797L51.3516 28.3594C51.2813 28.7578 51.2813 29.1797 51.3516 29.5781L50.2734 30.2344L50.7187 31.3359L51.9375 31.0547C52.1719 31.3828 52.4531 31.6875 52.8047 31.9219L52.5234 33.1406L53.6016 33.5859L54.2813 32.5313C54.6797 32.6016 55.1016 32.6016 55.5 32.5313L56.1563 33.5859L57.2578 33.1406L56.9766 31.9219C57.3047 31.6875 57.6094 31.4062 57.8438 31.0547L59.0625 31.3359L59.5078 30.2578L58.4531 29.5781C58.5234 29.1562 58.5234 28.7578 58.4531 28.3594ZM56.625 29.6719C56.2266 30.6328 55.125 31.0781 54.1641 30.6797C53.2031 30.2813 52.7578 29.1797 53.1562 28.2188C53.5547 27.2578 54.6562 26.8125 55.6172 27.2109C56.5781 27.6094 57.0469 28.7109 56.625 29.6719Z" fill="currentColor"/>
</svg>
