<svg width="60" height="60" viewBox="0 0 60 60" fill="none" xmlns="http://www.w3.org/2000/svg">
<path d="M30 55C43.8071 55 55 43.8071 55 30C55 16.1929 43.8071 5 30 5C16.1929 5 5 16.1929 5 30C5 43.8071 16.1929 55 30 55Z" stroke="white" stroke-width="3.75" stroke-linecap="round" stroke-linejoin="round"/>
<path d="M20 37.5C21.1643 39.0525 22.6741 40.3125 24.4098 41.1803C26.1455 42.0482 28.0594 42.5 30 42.5C31.9406 42.5 33.8545 42.0482 35.5902 41.1803C37.3259 40.3125 38.8357 39.0525 40 37.5M37.5 20C37.5 20 35 22.5 35 25C36.875 22.5 40.625 22.5 42.5 25M22.5 20C22.5 20 25 22.5 25 25C23.125 22.5 19.375 22.5 17.5 25" stroke="white" stroke-width="3.75" stroke-linecap="round" stroke-linejoin="round"/>
</svg>
