<svg width="60" height="60" viewBox="0 0 60 60" fill="none" xmlns="http://www.w3.org/2000/svg">
<g clip-path="url(#clip0_9956_11409)">
<path fill-rule="evenodd" clip-rule="evenodd" d="M25.4763 14.5152C25.7058 14.0905 26.0469 13.7366 26.4628 13.4916C26.8787 13.2467 27.3537 13.1199 27.8363 13.1252L33.0863 13.2052C33.5677 13.2157 34.037 13.3572 34.444 13.6144C34.851 13.8717 35.1802 14.2349 35.3963 14.6652L37.4963 18.8852L41.2063 18.5702C41.6814 18.5324 42.1578 18.6235 42.5855 18.8338C43.0131 19.0441 43.3762 19.3659 43.6363 19.7652L46.2863 23.8752C46.5709 24.3177 46.716 24.8357 46.7026 25.3617C46.6892 25.8877 46.5181 26.3976 46.2113 26.8252L44.2613 29.5552L46.3363 32.2952C46.9813 33.1452 47.0463 34.3052 46.4963 35.2252L43.9963 39.4152C43.7478 39.8261 43.3924 40.1618 42.9679 40.3864C42.5434 40.6109 42.0659 40.7159 41.5863 40.6902L37.6613 40.4502L35.2463 45.3952C35.0277 45.8347 34.6913 46.205 34.2746 46.4645C33.8579 46.7241 33.3773 46.8628 32.8863 46.8652H27.4763C26.9862 46.8619 26.5067 46.7227 26.0909 46.4632C25.6752 46.2037 25.3395 45.834 25.1213 45.3952L22.8513 40.7502L18.6513 41.1302C18.1672 41.1708 17.6812 41.0776 17.2464 40.8606C16.8117 40.6437 16.445 40.3114 16.1863 39.9002L13.5313 35.6252C13.2497 35.1714 13.1132 34.6426 13.14 34.1092C13.1668 33.5759 13.3557 33.0634 13.6813 32.6402L16.0813 29.5152L14.1513 26.8202C13.8453 26.3921 13.6751 25.882 13.6626 25.3559C13.6501 24.8299 13.796 24.3122 14.0813 23.8702L16.7313 19.7602C16.9911 19.3617 17.3533 19.0404 17.78 18.8302C18.2067 18.6199 18.6821 18.5284 19.1563 18.5652L23.1413 18.9052L25.4763 14.5152ZM28.4663 16.8852L26.1063 21.3252C25.8627 21.7773 25.4929 22.149 25.042 22.3949C24.5911 22.6407 24.0784 22.7503 23.5663 22.7102L19.5163 22.3652L17.6463 25.2652L19.6163 28.0152C19.9441 28.4726 20.1161 29.0233 20.1071 29.5859C20.0981 30.1486 19.9085 30.6934 19.5663 31.1402L17.1263 34.3102L19.0063 37.3402L23.2863 36.9502C23.8167 36.901 24.3494 37.0144 24.8138 37.2751C25.2781 37.5359 25.6522 37.9318 25.8863 38.4102L28.1813 43.1152H32.1813L34.6213 38.1302C34.8518 37.6672 35.2128 37.2818 35.6597 37.0215C36.1066 36.7611 36.6199 36.6373 37.1363 36.6652L41.1263 36.9052L42.8863 33.9552L40.7663 31.1552C40.4291 30.7087 40.2433 30.1662 40.2361 29.6067C40.2289 29.0473 40.4007 28.5001 40.7263 28.0452L42.7213 25.2652L40.8513 22.3652L37.0513 22.6852C36.5262 22.7299 35.9997 22.6155 35.5404 22.3569C35.0811 22.0983 34.7104 21.7074 34.4763 21.2352L32.3413 16.9452L28.4663 16.8852Z" fill="currentColor"/>
<path d="M51.4091 37.0002C49.8924 41.6824 46.8822 45.7382 42.8399 48.5459C38.7975 51.3536 33.946 52.7585 29.0289 52.5451C24.1117 52.3318 19.4002 50.512 15.6162 47.3647C11.8323 44.2174 9.18466 39.9162 8.07914 35.1202L12.3341 34.2802L4.23414 25.9002L-0.00585938 36.7352L4.47914 35.8552C5.73082 41.4851 8.80182 46.5462 13.2176 50.2562C17.6334 53.9663 23.1481 56.1188 28.9095 56.3811C34.671 56.6434 40.3585 55.001 45.0932 51.7076C49.8278 48.4141 53.346 43.6531 55.1041 38.1602L51.4091 37.0002ZM55.5891 24.3002C54.3368 18.6704 51.2653 13.6097 46.8492 9.90023C42.4331 6.19071 36.9182 4.03881 31.1568 3.77706C25.3954 3.51531 19.7081 5.15827 14.9738 8.45207C10.2395 11.7459 6.72178 16.5071 4.96414 22.0002L8.52914 23.1602C10.0454 18.4778 13.0552 14.4218 17.0971 11.6137C21.1391 8.80557 25.9904 7.40021 30.9075 7.61299C35.8246 7.82577 40.5363 9.64494 44.3206 12.7917C48.1049 15.9385 50.753 20.2394 51.8591 25.0352L47.6041 25.8802L55.7041 34.2402L59.9941 23.4202L55.5891 24.3002Z" fill="currentColor"/>
<path fill-rule="evenodd" clip-rule="evenodd" d="M30 28.125C29.5027 28.125 29.0258 28.3225 28.6742 28.6742C28.3225 29.0258 28.125 29.5027 28.125 30C28.125 30.4973 28.3225 30.9742 28.6742 31.3258C29.0258 31.6775 29.5027 31.875 30 31.875C30.4973 31.875 30.9742 31.6775 31.3258 31.3258C31.6775 30.9742 31.875 30.4973 31.875 30C31.875 29.5027 31.6775 29.0258 31.3258 28.6742C30.9742 28.3225 30.4973 28.125 30 28.125ZM24.375 30C24.375 28.5082 24.9676 27.0774 26.0225 26.0225C27.0774 24.9676 28.5082 24.375 30 24.375C31.4918 24.375 32.9226 24.9676 33.9775 26.0225C35.0324 27.0774 35.625 28.5082 35.625 30C35.625 31.4918 35.0324 32.9226 33.9775 33.9775C32.9226 35.0324 31.4918 35.625 30 35.625C28.5082 35.625 27.0774 35.0324 26.0225 33.9775C24.9676 32.9226 24.375 31.4918 24.375 30Z" fill="currentColor"/>
</g>
<defs>
<clipPath id="clip0_9956_11409">
<rect width="60" height="60" fill="currentColor"/>
</clipPath>
</defs>
</svg>
