<svg width="60" height="60" viewBox="0 0 60 60" fill="none" xmlns="http://www.w3.org/2000/svg">
<path d="M30 5C16.215 5 5 16.215 5 30V40.3575C5 42.9175 7.2425 45 10 45H12.5C13.163 45 13.7989 44.7366 14.2678 44.2678C14.7366 43.7989 15 43.163 15 42.5V29.6425C15 28.9795 14.7366 28.3436 14.2678 27.8747C13.7989 27.4059 13.163 27.1425 12.5 27.1425H10.23C11.62 17.4675 19.945 10 30 10C40.055 10 48.38 17.4675 49.77 27.1425H47.5C46.837 27.1425 46.2011 27.4059 45.7322 27.8747C45.2634 28.3436 45 28.9795 45 29.6425V45C45 47.7575 42.7575 50 40 50H35V47.5H25V55H40C45.515 55 50 50.515 50 45C52.7575 45 55 42.9175 55 40.3575V30C55 16.215 43.785 5 30 5Z" fill="white"/>
</svg>
