<svg xmlns="http://www.w3.org/2000/svg" width="100%" height="100%" viewBox="0 0 16 20" fill="none">
<path d="M4.86523 14H4.87523M4.86523 3H2.86523C2.3348 3 1.82609 3.21071 1.45102 3.58579C1.07595 3.96086 0.865234 4.46957 0.865234 5V17C0.865234 17.5304 1.07595 18.0391 1.45102 18.4142C1.82609 18.7893 2.3348 19 2.86523 19H12.8652C13.3957 19 13.9044 18.7893 14.2794 18.4142C14.6545 18.0391 14.8652 17.5304 14.8652 17V5C14.8652 4.46957 14.6545 3.96086 14.2794 3.58579C13.9044 3.21071 13.3957 3 12.8652 3H10.8652H4.86523ZM4.86523 3C4.86523 3.53043 5.07595 4.03914 5.45102 4.41421C5.82609 4.78929 6.3348 5 6.86523 5H8.86523C9.39567 5 9.90437 4.78929 10.2794 4.41421C10.6545 4.03914 10.8652 3.53043 10.8652 3H4.86523ZM4.86523 3C4.86523 2.46957 5.07595 1.96086 5.45102 1.58579C5.82609 1.21071 6.3348 1 6.86523 1H8.86523C9.39567 1 9.90437 1.21071 10.2794 1.58579C10.6545 1.96086 10.8652 2.46957 10.8652 3H4.86523ZM7.86523 10H10.8652H7.86523ZM7.86523 14H10.8652H7.86523ZM4.86523 10H4.87523H4.86523Z" stroke="currentColor" stroke-width="1.5" stroke-linecap="round" stroke-linejoin="round"/>
</svg>