<svg width="32" height="32" viewBox="0 0 32 32" fill="none" xmlns="http://www.w3.org/2000/svg">
<path fill-rule="evenodd" clip-rule="evenodd" d="M8.99992 10.0026C8.99992 8.49971 9.59694 7.05837 10.6596 5.99567C11.7224 4.93296 13.1637 4.33594 14.6666 4.33594C16.1695 4.33594 17.6108 4.93296 18.6735 5.99567C19.7362 7.05837 20.3333 8.49971 20.3333 10.0026C20.3333 11.5055 19.7362 12.9468 18.6735 14.0095C17.6108 15.0722 16.1695 15.6693 14.6666 15.6693C13.1637 15.6693 11.7224 15.0722 10.6596 14.0095C9.59694 12.9468 8.99992 11.5055 8.99992 10.0026ZM14.6666 6.33594C13.6941 6.33594 12.7615 6.72225 12.0739 7.40988C11.3862 8.09751 10.9999 9.03014 10.9999 10.0026C10.9999 10.9751 11.3862 11.9077 12.0739 12.5953C12.7615 13.283 13.6941 13.6693 14.6666 13.6693C15.639 13.6693 16.5717 13.283 17.2593 12.5953C17.9469 11.9077 18.3333 10.9751 18.3333 10.0026C18.3333 9.03014 17.9469 8.09751 17.2593 7.40988C16.5717 6.72225 15.639 6.33594 14.6666 6.33594ZM4.33325 22.6693C4.33325 21.3432 4.86004 20.0714 5.79772 19.1337C6.7354 18.1961 8.00717 17.6693 9.33325 17.6693H9.78659C10.0355 17.6702 10.2773 17.7084 10.5119 17.7839L11.6666 18.1613C13.616 18.7977 15.7172 18.7977 17.6666 18.1613L18.8213 17.7839C19.0546 17.7079 19.2999 17.6693 19.5453 17.6693H19.9999C21.326 17.6693 22.5978 18.1961 23.5355 19.1337C24.4731 20.0714 24.9999 21.3432 24.9999 22.6693V24.2533C24.9999 25.2586 24.2719 26.1146 23.2799 26.2759C17.5754 27.2071 11.7577 27.2071 6.05325 26.2759C5.5735 26.197 5.13731 25.9504 4.82235 25.58C4.50738 25.2096 4.33406 24.7395 4.33325 24.2533V22.6693ZM9.33325 19.6693C8.5376 19.6693 7.77454 19.9853 7.21193 20.5479C6.64932 21.1106 6.33325 21.8736 6.33325 22.6693V24.2533C6.33325 24.2773 6.35059 24.2986 6.37459 24.3026C11.8666 25.1986 17.4679 25.1986 22.9586 24.3026C22.9699 24.3 22.9801 24.2938 22.9875 24.2849C22.995 24.276 22.9993 24.2649 22.9999 24.2533V22.6693C22.9999 21.8736 22.6838 21.1106 22.1212 20.5479C21.5586 19.9853 20.7956 19.6693 19.9999 19.6693H19.5466C19.5109 19.6699 19.4755 19.6753 19.4413 19.6853L18.2879 20.0626C15.9348 20.831 13.3983 20.831 11.0453 20.0626L9.89059 19.6853C9.8572 19.6755 9.82269 19.6701 9.78792 19.6693H9.33325Z" fill="#61B6DB"/>
<path d="M26.0001 8.33594C26.2653 8.33594 26.5197 8.44129 26.7072 8.62883C26.8947 8.81637 27.0001 9.07072 27.0001 9.33594V11.6693H29.3334C29.5986 11.6693 29.853 11.7746 30.0405 11.9622C30.2281 12.1497 30.3334 12.4041 30.3334 12.6693C30.3334 12.9345 30.2281 13.1888 30.0405 13.3764C29.853 13.5639 29.5986 13.6693 29.3334 13.6693H27.0001V16.0026C27.0001 16.2678 26.8947 16.5222 26.7072 16.7097C26.5197 16.8972 26.2653 17.0026 26.0001 17.0026C25.7349 17.0026 25.4805 16.8972 25.293 16.7097C25.1054 16.5222 25.0001 16.2678 25.0001 16.0026V13.6693H22.6667C22.4015 13.6693 22.1472 13.5639 21.9596 13.3764C21.7721 13.1888 21.6667 12.9345 21.6667 12.6693C21.6667 12.4041 21.7721 12.1497 21.9596 11.9622C22.1472 11.7746 22.4015 11.6693 22.6667 11.6693H25.0001V9.33594C25.0001 9.07072 25.1054 8.81637 25.293 8.62883C25.4805 8.44129 25.7349 8.33594 26.0001 8.33594Z" fill="#61B6DB"/>
</svg>
