<svg width="60" height="60" viewBox="0 0 60 60" fill="none" xmlns="http://www.w3.org/2000/svg">
<path d="M9.24572 43.5888C8.95256 44.3382 8.92084 45.1578 9.15528 45.9257C9.38972 46.6937 9.87781 47.3693 10.5472 47.8521C16.1062 51.9679 22.9486 54.1983 29.9893 54.1897C37.3218 54.1897 44.0766 51.8192 49.4506 47.84C50.8155 46.8332 51.3678 45.1097 50.7456 43.5767C49.1339 39.5795 46.2876 36.1417 42.5825 33.7172C38.8774 31.2926 34.4876 29.9952 29.9924 29.9962C25.4973 29.9972 21.1081 31.2965 17.4041 33.7227C13.7002 36.1489 10.8556 39.5878 9.24572 43.5857" fill="url(#paint0_linear_4116_17109)"/>
<path d="M37.7782 22.7782C35.7153 24.8411 32.9174 26 30 26C27.0826 26 24.2847 24.8411 22.2218 22.7782C20.1589 20.7153 19 17.9174 19 15C19 12.0826 20.1589 9.28473 22.2218 7.22183C24.2847 5.15893 27.0826 4 30 4C32.9174 4 35.7153 5.15893 37.7782 7.22183C39.8411 9.28473 41 12.0826 41 15C41 17.9174 39.8411 20.7153 37.7782 22.7782Z" fill="url(#paint1_linear_4116_17109)"/>
<defs>
<linearGradient id="paint0_linear_4116_17109" x1="9" y1="29.9962" x2="29.9283" y2="66.3278" gradientUnits="userSpaceOnUse">
<stop stop-color="#78D6EF"/>
<stop offset="1" stop-color="#3879B6"/>
</linearGradient>
<linearGradient id="paint1_linear_4116_17109" x1="19" y1="4" x2="41" y2="26" gradientUnits="userSpaceOnUse">
<stop stop-color="#78D6EF"/>
<stop offset="1" stop-color="#3879B6"/>
</linearGradient>
</defs>
</svg>
