<svg width="24" height="24" viewBox="0 0 24 24" fill="none" xmlns="http://www.w3.org/2000/svg">
<path d="M5.5 3.24023H17.5C18.1925 3.24023 18.7598 3.80755 18.7598 4.5V19.5C18.7598 20.1925 18.1925 20.7598 17.5 20.7598H5.5C4.80755 20.7598 4.24023 20.1925 4.24023 19.5V4.5C4.24023 3.80755 4.80755 3.24023 5.5 3.24023ZM6.25 16.6348C5.70495 16.6348 5.25977 17.08 5.25977 17.625V18C5.25977 18.545 5.70495 18.9902 6.25 18.9902H7.75C8.29505 18.9902 8.74023 18.545 8.74023 18V17.625C8.74023 17.08 8.29505 16.6348 7.75 16.6348H6.25ZM10.75 16.6348C10.205 16.6348 9.75977 17.08 9.75977 17.625V18C9.75977 18.545 10.205 18.9902 10.75 18.9902H12.25C12.795 18.9902 13.2402 18.545 13.2402 18V17.625C13.2402 17.08 12.795 16.6348 12.25 16.6348H10.75ZM15.25 16.6348C14.705 16.6348 14.2598 17.08 14.2598 17.625V18C14.2598 18.545 14.705 18.9902 15.25 18.9902H16.75C17.295 18.9902 17.7402 18.545 17.7402 18V17.625C17.7402 17.08 17.295 16.6348 16.75 16.6348H15.25ZM6.25 13.6348C5.70495 13.6348 5.25977 14.08 5.25977 14.625V15C5.25977 15.545 5.70495 15.9902 6.25 15.9902H7.75C8.29505 15.9902 8.74023 15.545 8.74023 15V14.625C8.74023 14.08 8.29505 13.6348 7.75 13.6348H6.25ZM10.75 13.6348C10.205 13.6348 9.75977 14.08 9.75977 14.625V15C9.75977 15.545 10.205 15.9902 10.75 15.9902H12.25C12.795 15.9902 13.2402 15.545 13.2402 15V14.625C13.2402 14.08 12.795 13.6348 12.25 13.6348H10.75ZM15.25 13.6348C14.705 13.6348 14.2598 14.08 14.2598 14.625V15C14.2598 15.545 14.705 15.9902 15.25 15.9902H16.75C17.295 15.9902 17.7402 15.545 17.7402 15V14.625C17.7402 14.08 17.295 13.6348 16.75 13.6348H15.25ZM6.25 10.6348C5.70495 10.6348 5.25977 11.08 5.25977 11.625V12C5.25977 12.545 5.70495 12.9902 6.25 12.9902H7.75C8.29505 12.9902 8.74023 12.545 8.74023 12V11.625C8.74023 11.08 8.29505 10.6348 7.75 10.6348H6.25ZM10.75 10.6348C10.205 10.6348 9.75977 11.08 9.75977 11.625V12C9.75977 12.545 10.205 12.9902 10.75 12.9902H12.25C12.795 12.9902 13.2402 12.545 13.2402 12V11.625C13.2402 11.08 12.795 10.6348 12.25 10.6348H10.75ZM15.25 10.6348C14.705 10.6348 14.2598 11.08 14.2598 11.625V12C14.2598 12.545 14.705 12.9902 15.25 12.9902H16.75C17.295 12.9902 17.7402 12.545 17.7402 12V11.625C17.7402 11.08 17.295 10.6348 16.75 10.6348H15.25ZM6.25 4.63477C5.70495 4.63477 5.25977 5.07995 5.25977 5.625V8.625C5.25977 9.17005 5.70495 9.61523 6.25 9.61523H16.75C17.295 9.61523 17.7402 9.17005 17.7402 8.625V5.625C17.7402 5.07995 17.295 4.63477 16.75 4.63477H6.25Z" fill="currentColor" stroke="currentColor" stroke-width="0.48"/>
</svg>
