<svg viewBox="0 0 42 42" fill="none" xmlns="http://www.w3.org/2000/svg">
<path d="M5.25 15.75C5.25 13.817 6.817 12.25 8.75 12.25H10.3769C11.5471 12.25 12.6399 11.6651 13.289 10.6915L14.711 8.55855C15.3601 7.58485 16.4529 7 17.6231 7H24.3769C25.5471 7 26.6399 7.58485 27.289 8.55855L28.711 10.6915C29.3601 11.6651 30.4529 12.25 31.6231 12.25H33.25C35.183 12.25 36.75 13.817 36.75 15.75V31.5C36.75 33.433 35.183 35 33.25 35H8.75C6.817 35 5.25 33.433 5.25 31.5V15.75Z" stroke="white" stroke-width="2" stroke-linecap="round" stroke-linejoin="round"/>
<path d="M26.25 22.75C26.25 25.6495 23.8995 28 21 28C18.1005 28 15.75 25.6495 15.75 22.75C15.75 19.8505 18.1005 17.5 21 17.5C23.8995 17.5 26.25 19.8505 26.25 22.75Z" stroke="white" stroke-width="2" stroke-linecap="round" stroke-linejoin="round"/>
</svg>

