<svg xmlns="http://www.w3.org/2000/svg" viewBox="0 0 24 24" fill="none">
<path d="M8.66667 7.66667V5.66667C8.66667 5.48986 8.7369 5.32029 8.86193 5.19526C8.98695 5.07024 9.15652 5 9.33333 5H17.3333C17.5101 5 17.6797 5.07024 17.8047 5.19526C17.9298 5.32029 18 5.48986 18 5.66667V15C18 15.1768 17.9298 15.3464 17.8047 15.4714C17.6797 15.5964 17.5101 15.6667 17.3333 15.6667H15.3333V17.6667C15.3333 18.0347 15.0333 18.3333 14.662 18.3333H6.67133C6.58342 18.3339 6.49626 18.317 6.41488 18.2838C6.3335 18.2505 6.25949 18.2015 6.19711 18.1395C6.13472 18.0776 6.0852 18.0039 6.05137 17.9228C6.01754 17.8416 6.00009 17.7546 6 17.6667L6.002 8.33333C6.002 7.96533 6.302 7.66667 6.67333 7.66667H8.66667ZM7.33533 9L7.33333 17H14V9H7.33533ZM10 7.66667H15.3333V14.3333H16.6667V6.33333H10V7.66667Z" fill="currentColor"/>
</svg>