<svg width="100%" height="100%" viewBox="0 0 24 24" fill="none" xmlns="http://www.w3.org/2000/svg">
<path d="M6.44444 5.44444V2.11111C6.44444 1.81643 6.56151 1.53381 6.76988 1.32544C6.97826 1.11706 7.26087 1 7.55556 1H20.8889C21.1836 1 21.4662 1.11706 21.6746 1.32544C21.8829 1.53381 22 1.81643 22 2.11111V17.6667C22 17.9614 21.8829 18.244 21.6746 18.4523C21.4662 18.6607 21.1836 18.7778 20.8889 18.7778H17.5556V22.1111C17.5556 22.7244 17.0556 23.2222 16.4367 23.2222H3.11889C2.97236 23.2231 2.82711 23.195 2.69147 23.1396C2.55583 23.0842 2.43248 23.0025 2.32851 22.8992C2.22454 22.796 2.14199 22.6732 2.08562 22.5379C2.02924 22.4027 2.00014 22.2576 2 22.1111L2.00333 6.55556C2.00333 5.94222 2.50333 5.44444 3.12222 5.44444H6.44444ZM4.22556 7.66667L4.22222 21H15.3333V7.66667H4.22556ZM8.66667 5.44444H17.5556V16.5556H19.7778V3.22222H8.66667V5.44444Z" fill="currentColor"/>
</svg>
