<svg width="100%" height="100%" viewBox="0 0 24 24" fill="none" xmlns="http://www.w3.org/2000/svg">
<path d="M6.375 22C5.75625 22 5.22675 21.7826 4.7865 21.3478C4.34625 20.913 4.12575 20.3896 4.125 19.7778V5.33333C3.80625 5.33333 3.53925 5.22667 3.324 5.01333C3.10875 4.8 3.00075 4.5363 3 4.22222C2.99925 3.90815 3.10725 3.64444 3.324 3.43111C3.54075 3.21778 3.80775 3.11111 4.125 3.11111H8.625C8.625 2.7963 8.733 2.53259 8.949 2.32C9.165 2.10741 9.432 2.00074 9.75 2H14.25C14.5687 2 14.8361 2.10667 15.0521 2.32C15.2681 2.53333 15.3757 2.79704 15.375 3.11111H19.875C20.1937 3.11111 20.4611 3.21778 20.6771 3.43111C20.8931 3.64444 21.0007 3.90815 21 4.22222C20.9992 4.5363 20.8912 4.80037 20.676 5.01444C20.4607 5.22852 20.1937 5.33481 19.875 5.33333V19.7778C19.875 20.3889 19.6549 20.9122 19.2146 21.3478C18.7744 21.7833 18.2445 22.0007 17.625 22H6.375ZM17.625 5.33333H6.375V19.7778H17.625V5.33333ZM12 14.1111L14.1375 16.2222C14.3437 16.4259 14.6062 16.5278 14.925 16.5278C15.2437 16.5278 15.5062 16.4259 15.7125 16.2222C15.9187 16.0185 16.0219 15.7593 16.0219 15.4444C16.0219 15.1296 15.9187 14.8704 15.7125 14.6667L13.575 12.5556L15.7125 10.4444C15.9187 10.2407 16.0219 9.98148 16.0219 9.66667C16.0219 9.35185 15.9187 9.09259 15.7125 8.88889C15.5062 8.68518 15.2437 8.58333 14.925 8.58333C14.6062 8.58333 14.3437 8.68518 14.1375 8.88889L12 11L9.8625 8.88889C9.65625 8.68518 9.39375 8.58333 9.075 8.58333C8.75625 8.58333 8.49375 8.68518 8.2875 8.88889C8.08125 9.09259 7.97813 9.35185 7.97813 9.66667C7.97813 9.98148 8.08125 10.2407 8.2875 10.4444L10.425 12.5556L8.2875 14.6667C8.08125 14.8704 7.97813 15.1296 7.97813 15.4444C7.97813 15.7593 8.08125 16.0185 8.2875 16.2222C8.49375 16.4259 8.75625 16.5278 9.075 16.5278C9.39375 16.5278 9.65625 16.4259 9.8625 16.2222L12 14.1111Z" fill="currentColor"/>
</svg>
