<svg width="100%" height="100%" viewBox="0 0 24 24" fill="none" xmlns="http://www.w3.org/2000/svg">
<g id="icons">
<g id="Icon">
<path d="M12.0001 14C13.1576 14 14.096 13.1046 14.096 12C14.096 10.8954 13.1576 10 12.0001 10C10.8425 10 9.9041 10.8954 9.9041 12C9.9041 13.1046 10.8425 14 12.0001 14Z" fill="currentColor"/>
<path fill-rule="evenodd" clip-rule="evenodd" d="M2 12C3.33539 7.94291 7.30753 5 12 5C16.6925 5 20.6646 7.94288 22 12C20.6646 16.0571 16.6925 19 12 19C7.30754 19 3.33541 16.0571 2 12ZM16.192 12C16.192 14.2091 14.3152 16 12.0001 16C9.68492 16 7.80814 14.2091 7.80814 12C7.80814 9.79086 9.68492 8 12.0001 8C14.3152 8 16.192 9.79086 16.192 12Z" fill="currentColor"/>
</g>
</g>
</svg>
