<svg width="23" height="34" viewBox="0 0 23 34" fill="none" xmlns="http://www.w3.org/2000/svg">
<path d="M2.773 14.3328C1.306 14.3328 1 14.64 1 16.1104V18.7776C1 20.2496 1.306 20.5552 2.773 20.5552H6.3175V31.2224C6.3175 32.6944 6.625 33 8.0905 33H11.6365C13.1035 33 13.4095 32.6928 13.4095 31.2224V20.5552H17.3905C18.502 20.5552 18.7885 20.3392 19.0945 19.2656L19.855 16.6C20.3785 14.7616 20.0545 14.3328 18.1495 14.3328H13.4095V9.8896C13.4095 8.9072 14.203 8.1104 15.181 8.1104H20.227C21.694 8.1104 22 7.8048 22 6.3344V2.776C22 1.3056 21.694 1 20.227 1H15.181C10.2865 1 6.3175 4.9792 6.3175 9.8896V14.3328H2.773Z" stroke="#1D1B20" stroke-width="2" stroke-linecap="round" stroke-linejoin="round"/>
</svg>
