<svg width="24" height="24" viewBox="0 0 24 24" fill="none" xmlns="http://www.w3.org/2000/svg">
<path d="M19.5 7H8.5M6.5 7H3.5M19.5 17H8.5M6.5 17H3.5M14.5 12H3.5M19.5 12H16.5M7.5 5C7.76522 5 8.01957 5.10536 8.20711 5.29289C8.39464 5.48043 8.5 5.73478 8.5 6V8C8.5 8.26522 8.39464 8.51957 8.20711 8.70711C8.01957 8.89464 7.76522 9 7.5 9C7.23478 9 6.98043 8.89464 6.79289 8.70711C6.60536 8.51957 6.5 8.26522 6.5 8V6C6.5 5.73478 6.60536 5.48043 6.79289 5.29289C6.98043 5.10536 7.23478 5 7.5 5ZM7.5 15C7.76522 15 8.01957 15.1054 8.20711 15.2929C8.39464 15.4804 8.5 15.7348 8.5 16V18C8.5 18.2652 8.39464 18.5196 8.20711 18.7071C8.01957 18.8946 7.76522 19 7.5 19C7.23478 19 6.98043 18.8946 6.79289 18.7071C6.60536 18.5196 6.5 18.2652 6.5 18V16C6.5 15.7348 6.60536 15.4804 6.79289 15.2929C6.98043 15.1054 7.23478 15 7.5 15ZM15.5 10C15.7652 10 16.0196 10.1054 16.2071 10.2929C16.3946 10.4804 16.5 10.7348 16.5 11V13C16.5 13.2652 16.3946 13.5196 16.2071 13.7071C16.0196 13.8946 15.7652 14 15.5 14C15.2348 14 14.9804 13.8946 14.7929 13.7071C14.6054 13.5196 14.5 13.2652 14.5 13V11C14.5 10.7348 14.6054 10.4804 14.7929 10.2929C14.9804 10.1054 15.2348 10 15.5 10Z" stroke="white" stroke-width="1.2" stroke-linecap="round" stroke-linejoin="round"/>
</svg>
