<svg width="34" height="34" viewBox="0 0 34 34" fill="none" xmlns="http://www.w3.org/2000/svg">
<path d="M1 17C1 9.45811 1 5.68547 3.34274 3.34274C5.68547 1 9.45642 1 17 1C24.5419 1 28.3145 1 30.6573 3.34274C33 5.68547 33 9.45642 33 17C33 24.5419 33 28.3145 30.6573 30.6573C28.3145 33 24.5436 33 17 33C9.45811 33 5.68547 33 3.34274 30.6573C1 28.3145 1 24.5436 1 17Z" stroke="#1D1B20" stroke-width="2" stroke-linecap="round" stroke-linejoin="round"/>
<path d="M26.2765 7.73828H26.2596M24.5788 17.0014C24.5788 19.0115 23.7803 20.9392 22.359 22.3606C20.9376 23.7819 19.0099 24.5804 16.9998 24.5804C14.9898 24.5804 13.062 23.7819 11.6407 22.3606C10.2194 20.9392 9.4209 19.0115 9.4209 17.0014C9.4209 14.9914 10.2194 13.0636 11.6407 11.6423C13.062 10.221 14.9898 9.42249 16.9998 9.42249C19.0099 9.42249 20.9376 10.221 22.359 11.6423C23.7803 13.0636 24.5788 14.9914 24.5788 17.0014Z" stroke="#1D1B20" stroke-width="2" stroke-linecap="round" stroke-linejoin="round"/>
</svg>
