<svg width="44" height="44" viewBox="0 0 44 44" fill="none" xmlns="http://www.w3.org/2000/svg">
<path d="M22 12.1622C25.2041 12.1622 25.5836 12.1744 26.849 12.2321C28.019 12.2855 28.6544 12.481 29.0773 12.6453C29.6373 12.863 30.0371 13.1231 30.457 13.543C30.8769 13.9629 31.137 14.3627 31.3546 14.9227C31.519 15.3456 31.7145 15.981 31.7679 17.151C31.8256 18.4164 31.8378 18.7959 31.8378 22C31.8378 25.2042 31.8256 25.5837 31.7679 26.849C31.7145 28.019 31.519 28.6544 31.3546 29.0773C31.137 29.6374 30.8769 30.0372 30.457 30.4571C30.0371 30.877 29.6373 31.1371 29.0773 31.3547C28.6544 31.519 28.019 31.7145 26.849 31.7679C25.5838 31.8256 25.2043 31.8378 22 31.8378C18.7956 31.8378 18.4161 31.8256 17.151 31.7679C15.981 31.7145 15.3456 31.519 14.9227 31.3547C14.3626 31.1371 13.9628 30.877 13.5429 30.4571C13.123 30.0372 12.863 29.6374 12.6453 29.0773C12.481 28.6544 12.2855 28.019 12.2321 26.8491C12.1744 25.5837 12.1622 25.2042 12.1622 22C12.1622 18.7959 12.1744 18.4164 12.2321 17.151C12.2855 15.981 12.481 15.3456 12.6453 14.9227C12.863 14.3627 13.123 13.9629 13.5429 13.543C13.9628 13.1231 14.3626 12.863 14.9227 12.6453C15.3456 12.481 15.981 12.2855 17.1509 12.2321C18.4163 12.1744 18.7958 12.1622 22 12.1622ZM22 10C18.7409 10 18.3323 10.0138 17.0524 10.0722C15.7751 10.1305 14.9028 10.3333 14.1395 10.63C13.3504 10.9367 12.6812 11.347 12.0141 12.0141C11.3469 12.6812 10.9366 13.3504 10.63 14.1395C10.3333 14.9029 10.1305 15.7752 10.0722 17.0525C10.0138 18.3323 10 18.741 10 22C10 25.2591 10.0138 25.6677 10.0722 26.9476C10.1305 28.2249 10.3333 29.0972 10.63 29.8605C10.9366 30.6496 11.3469 31.3188 12.0141 31.9859C12.6812 32.6531 13.3504 33.0634 14.1395 33.37C14.9028 33.6667 15.7751 33.8695 17.0524 33.9278C18.3323 33.9862 18.7409 34 22 34C25.259 34 25.6677 33.9862 26.9475 33.9278C28.2248 33.8695 29.0971 33.6667 29.8605 33.37C30.6496 33.0634 31.3188 32.6531 31.9859 31.9859C32.653 31.3188 33.0633 30.6496 33.37 29.8605C33.6667 29.0972 33.8695 28.2249 33.9278 26.9476C33.9862 25.6677 34 25.2591 34 22C34 18.741 33.9862 18.3323 33.9278 17.0525C33.8695 15.7752 33.6667 14.9029 33.37 14.1395C33.0633 13.3504 32.653 12.6812 31.9859 12.0141C31.3188 11.347 30.6496 10.9367 29.8605 10.63C29.0971 10.3333 28.2248 10.1305 26.9475 10.0722C25.6677 10.0138 25.259 10 22 10ZM22 15.8378C18.5967 15.8378 15.8378 18.5968 15.8378 22C15.8378 25.4033 18.5967 28.1622 22 28.1622C25.4032 28.1622 28.1622 25.4033 28.1622 22C28.1622 18.5968 25.4032 15.8378 22 15.8378ZM22 26C19.7909 26 18 24.2092 18 22C18 19.7909 19.7909 18 22 18C24.2091 18 26 19.7909 26 22C26 24.2092 24.2091 26 22 26ZM29.8456 15.5944C29.8456 16.3897 29.2009 17.0344 28.4056 17.0344C27.6103 17.0344 26.9656 16.3897 26.9656 15.5944C26.9656 14.7991 27.6103 14.1544 28.4056 14.1544C29.2009 14.1544 29.8456 14.7991 29.8456 15.5944Z" fill="currentColor"/>
</svg>
