<svg width="100%" height="100%" viewBox="0 0 32 32" fill="none" xmlns="http://www.w3.org/2000/svg">
<path d="M8.0013 9.33398H14.668C15.0216 9.33398 15.3607 9.47446 15.6108 9.72451C15.8608 9.97456 16.0013 10.3137 16.0013 10.6673C16.0013 11.0209 15.8608 11.3601 15.6108 11.6101C15.3607 11.8602 15.0216 12.0007 14.668 12.0007H8.0013C7.64768 12.0007 7.30854 11.8602 7.05849 11.6101C6.80844 11.3601 6.66797 11.0209 6.66797 10.6673C6.66797 10.3137 6.80844 9.97456 7.05849 9.72451C7.30854 9.47446 7.64768 9.33398 8.0013 9.33398ZM17.3346 20.0007H24.0013C24.3549 20.0007 24.6941 20.1411 24.9441 20.3912C25.1942 20.6412 25.3346 20.9804 25.3346 21.334C25.3346 21.6876 25.1942 22.0267 24.9441 22.2768C24.6941 22.5268 24.3549 22.6673 24.0013 22.6673H17.3346C16.981 22.6673 16.6419 22.5268 16.3918 22.2768C16.1418 22.0267 16.0013 21.6876 16.0013 21.334C16.0013 20.9804 16.1418 20.6412 16.3918 20.3912C16.6419 20.1411 16.981 20.0007 17.3346 20.0007ZM8.0013 14.6673H24.0013C24.3549 14.6673 24.6941 14.8078 24.9441 15.0578C25.1942 15.3079 25.3346 15.647 25.3346 16.0007C25.3346 16.3543 25.1942 16.6934 24.9441 16.9435C24.6941 17.1935 24.3549 17.334 24.0013 17.334H8.0013C7.64768 17.334 7.30854 17.1935 7.05849 16.9435C6.80844 16.6934 6.66797 16.3543 6.66797 16.0007C6.66797 15.647 6.80844 15.3079 7.05849 15.0578C7.30854 14.8078 7.64768 14.6673 8.0013 14.6673Z" fill="currentColor"/>
</svg>
