<svg width="32" height="32" viewBox="0 0 32 32" fill="none" xmlns="http://www.w3.org/2000/svg">
<path d="M7.69949 11.2066H1.42839C1.22049 11.2066 1.02111 11.2908 0.8741 11.4408C0.727092 11.5908 0.644504 11.7942 0.644504 12.0063V31.2003C0.644504 31.4124 0.727092 31.6158 0.8741 31.7658C1.02111 31.9157 1.22049 32 1.42839 32H7.69949C7.90739 32 8.10678 31.9157 8.25378 31.7658C8.40079 31.6158 8.48338 31.4124 8.48338 31.2003V12.0063C8.48338 11.7942 8.40079 11.5908 8.25378 11.4408C8.10678 11.2908 7.90739 11.2066 7.69949 11.2066ZM6.9156 30.4005H2.21228V12.8061H6.9156V30.4005ZM24.1611 11.2066C22.4601 11.2066 20.8061 11.7792 19.4578 12.8365V12.0063C19.4578 11.7942 19.3752 11.5908 19.2282 11.4408C19.0812 11.2908 18.8818 11.2066 18.6739 11.2066H12.4028C12.1949 11.2066 11.9955 11.2908 11.8485 11.4408C11.7015 11.5908 11.6189 11.7942 11.6189 12.0063V31.2003C11.6189 31.4124 11.7015 31.6158 11.8485 31.7658C11.9955 31.9157 12.1949 32 12.4028 32H18.6739C18.8818 32 19.0812 31.9157 19.2282 31.7658C19.3752 31.6158 19.4578 31.4124 19.4578 31.2003V22.403C19.4578 21.7667 19.7056 21.1565 20.1466 20.7065C20.5876 20.2566 21.1858 20.0038 21.8095 20.0038C22.4332 20.0038 23.0313 20.2566 23.4723 20.7065C23.9134 21.1565 24.1611 21.7667 24.1611 22.403V31.2003C24.1611 31.4124 24.2437 31.6158 24.3907 31.7658C24.5377 31.9157 24.7371 32 24.945 32H31.2161C31.424 32 31.6234 31.9157 31.7704 31.7658C31.9174 31.6158 32 31.4124 32 31.2003V19.204C31.9975 17.0838 31.1708 15.051 29.7013 13.5518C28.2318 12.0525 26.2394 11.2091 24.1611 11.2066ZM30.4322 30.4005H25.7289V22.403C25.7289 21.3425 25.316 20.3254 24.5809 19.5755C23.8459 18.8256 22.849 18.4043 21.8095 18.4043C20.77 18.4043 19.773 18.8256 19.038 19.5755C18.303 20.3254 17.89 21.3425 17.89 22.403V30.4005H13.1867V12.8061H17.89V14.7303C17.89 14.8959 17.9404 15.0575 18.0342 15.1926C18.128 15.3278 18.2607 15.4299 18.4138 15.4849C18.567 15.5398 18.7331 15.5449 18.8892 15.4994C19.0453 15.4539 19.1837 15.3601 19.2853 15.2309C20.0904 14.1897 21.1939 13.4309 22.4419 13.0601C23.6899 12.6893 25.0203 12.7251 26.2474 13.1625C27.4745 13.5999 28.5372 14.4171 29.2874 15.5001C30.0376 16.5831 30.4378 17.8779 30.4322 19.204V30.4005ZM5.14088 0.0133094C4.95663 0.00116138 4.77183 9.30485e-05 4.58746 0.0101103C4.00075 -0.0306182 3.41209 0.0519895 2.85794 0.252817C2.3038 0.453644 1.79597 0.768413 1.36592 1.17763C0.935866 1.58684 0.592749 2.08178 0.35782 2.63179C0.12289 3.1818 0.00115301 3.77517 0.000148727 4.37513C-0.00472027 4.96883 0.110009 5.55722 0.337223 6.10381C0.564437 6.6504 0.89929 7.14355 1.32102 7.55266C1.74275 7.96178 2.24236 8.27814 2.78887 8.48214C3.33539 8.68613 3.91716 8.77341 4.4981 8.73855H4.54199C5.10354 8.77867 5.66733 8.70555 6.20118 8.52338C6.73503 8.3412 7.22848 8.05353 7.65336 7.67679C8.07824 7.30005 8.42623 6.84163 8.67745 6.32768C8.92868 5.81374 9.07822 5.25434 9.11754 4.68143C9.15687 4.10853 9.0852 3.53333 8.90664 2.98868C8.72807 2.44403 8.44611 1.94059 8.07684 1.50711C7.70757 1.07364 7.25824 0.718613 6.75448 0.462305C6.25073 0.205997 5.70243 0.0534287 5.14088 0.0133094ZM5.08601 7.14386C4.90519 7.16092 4.72385 7.15932 4.54199 7.13906H4.4981C4.12078 7.16799 3.74169 7.11635 3.38503 6.98741C3.02838 6.85847 2.702 6.65508 2.42672 6.39021C2.15145 6.12535 1.93333 5.80483 1.7863 5.44913C1.63927 5.09343 1.56655 4.71036 1.57279 4.32437C1.57903 3.93838 1.66408 3.55797 1.82253 3.2074C1.98098 2.85684 2.20933 2.54383 2.49302 2.28837C2.7767 2.03291 3.10948 1.84061 3.4701 1.72373C3.83073 1.60686 4.21128 1.56799 4.58746 1.6096C5.30679 1.54216 6.02293 1.769 6.57832 2.24025C7.13371 2.71149 7.48287 3.38852 7.54898 4.12241C7.6151 4.8563 7.39275 5.58692 6.93085 6.15355C6.46895 6.72018 5.80534 7.07641 5.08601 7.14386Z" fill="#1D1B20"/>
</svg>
