<svg viewBox="0 0 48 48" fill="none" xmlns="http://www.w3.org/2000/svg">
<path d="M13.232 42C12.336 42 11.5733 41.6853 10.944 41.056C10.3147 40.4267 10 39.6647 10 38.77V21.23C10 20.3367 10.3147 19.5747 10.944 18.944C11.5733 18.3147 12.336 18 13.232 18H16V14C16 11.772 16.7767 9.882 18.33 8.33C19.882 6.77667 21.772 6 24 6C26.228 6 28.1187 6.77667 29.672 8.33C31.2253 9.88333 32.0013 11.7733 32 14V18H34.77C35.6633 18 36.4253 18.3147 37.056 18.944C37.6853 19.5733 38 20.336 38 21.232V38.77C38 39.6633 37.6853 40.4253 37.056 41.056C36.4267 41.6853 35.6647 42 34.77 42H13.232ZM13.232 40H34.77C35.1287 40 35.4233 39.8847 35.654 39.654C35.8847 39.4233 36 39.1287 36 38.77V21.23C36 20.8713 35.8847 20.5767 35.654 20.346C35.4233 20.1153 35.1287 20 34.77 20H13.23C12.8713 20 12.5767 20.1153 12.346 20.346C12.1153 20.5767 12 20.872 12 21.232V38.77C12 39.1287 12.1153 39.4233 12.346 39.654C12.5767 39.8847 12.872 40 13.232 40ZM24 33C24.844 33 25.5547 32.7107 26.132 32.132C26.7107 31.5547 27 30.844 27 30C27 29.156 26.7107 28.4453 26.132 27.868C25.5533 27.2907 24.8427 27.0013 24 27C23.1573 26.9987 22.4467 27.288 21.868 27.868C21.2893 28.4453 21 29.156 21 30C21 30.844 21.2893 31.5547 21.868 32.132C22.4453 32.7107 23.156 33 24 33ZM18 18H30V14C30 12.3333 29.4167 10.9167 28.25 9.75C27.0833 8.58333 25.6667 8 24 8C22.3333 8 20.9167 8.58333 19.75 9.75C18.5833 10.9167 18 12.3333 18 14V18Z" fill="#B3261E"/>
</svg>
