<svg width="132" height="42" viewBox="0 0 132 42" fill="none" xmlns="http://www.w3.org/2000/svg">
<path d="M12.6016 7.9256C13.1514 7.02375 13.6853 5.47959 15.3631 3.92977C17.4024 2.04595 20.0598 1.0014 22.8167 1C28.9473 1 33.9349 6.06473 33.9349 12.2901C33.9349 16.4922 32.6474 19.8093 29.6322 23.3826C25.2483 28.576 15.8334 35.3314 15.3631 35.6667" stroke="white" stroke-width="1.5"/>
<path d="M12.6016 7.9256C13.1514 7.02375 13.6853 5.47959 15.3631 3.92977C17.4024 2.04595 20.0598 1.0014 22.8167 1C28.9473 1 33.9349 6.06473 33.9349 12.2901C33.9349 16.4922 32.6474 19.8093 29.6322 23.3826C25.2483 28.576 15.8334 35.3314 15.3631 35.6667" stroke="white" stroke-width="1.5"/>
<path d="M27.5391 34.1016C26.9893 34.9999 26.4553 36.538 24.7776 38.0817C22.7382 39.9582 20.0808 40.9986 17.3239 41C11.1933 41 6.20573 35.9552 6.20573 29.7543C6.20573 25.5686 7.49322 22.2646 10.5085 18.7053C14.8924 13.5323 23.7574 7.20066 24.2277 6.86666" stroke="white" stroke-width="1.5"/>
<path d="M27.5391 34.1016C26.9893 34.9999 26.4553 36.538 24.7776 38.0817C22.7382 39.9582 20.0808 40.9986 17.3239 41C11.1933 41 6.20573 35.9552 6.20573 29.7543C6.20573 25.5686 7.49322 22.2646 10.5085 18.7053C14.8924 13.5323 23.7574 7.20066 24.2277 6.86666" stroke="white" stroke-width="1.5"/>
<g filter="url(#filter0_d_10335_52045)">
<path d="M37.1333 20.8433C37.1333 30.2742 29.4913 37.9099 20.0707 37.9099C10.642 37.9181 3 30.2742 3 20.8433C3 11.4205 10.642 3.77661 20.0626 3.77661C29.4913 3.77661 37.1333 11.4205 37.1333 20.8433Z" fill="url(#paint0_radial_10335_52045)"/>
</g>
<mask id="mask0_10335_52045" style="mask-type:alpha" maskUnits="userSpaceOnUse" x="3" y="3" width="35" height="35">
<circle cx="20.0667" cy="20.8433" r="17.0667" fill="#D9D9D9"/>
</mask>
<g mask="url(#mask0_10335_52045)">
<path d="M15.351 3.9649C17.3921 2.05849 20.0518 1.00141 22.811 1C28.9467 1 33.9385 6.12546 33.9385 12.4255C33.9385 16.678 32.65 20.0348 29.6322 23.651C25.2446 28.9067 14.1426 36.9273 13.6719 37.2667" stroke="white" stroke-width="1.5"/>
<path d="M15.351 3.9649C17.3921 2.05849 20.0518 1.00141 22.811 1C28.9467 1 33.9385 6.12546 33.9385 12.4255C33.9385 16.678 32.65 20.0348 29.6322 23.651C25.2446 28.9067 14.1426 36.9273 13.6719 37.2667" stroke="white" stroke-width="1.5"/>
<path d="M24.7896 38.0787C22.7486 39.9571 20.0889 40.9986 17.3297 41C11.1939 41 6.20208 35.9499 6.20208 29.7426C6.20208 25.5526 7.49066 22.2451 10.5085 18.6821C14.8961 13.5037 26.5293 4.83435 27 4.5" stroke="white" stroke-width="1.5"/>
<path d="M24.7896 38.0787C22.7486 39.9571 20.0889 40.9986 17.3297 41C11.1939 41 6.20208 35.9499 6.20208 29.7426C6.20208 25.5526 7.49066 22.2451 10.5085 18.6821C14.8961 13.5037 26.5293 4.83435 27 4.5" stroke="white" stroke-width="1.5"/>
</g>
<path d="M53.6893 25.3035C51.9381 23.0659 51.0625 19.5636 51.0625 14.7965C51.0625 10.0294 51.9381 6.57571 53.6406 4.3381C55.3431 2.10049 57.7753 0.981689 60.9372 0.981689C62.7856 0.981689 64.4395 1.32219 65.8988 2.05185C66.5798 2.34371 67.1635 2.68422 67.6986 3.07337L66.0447 6.13791H65.6556C65.3637 5.8947 64.9746 5.60283 64.4881 5.31097C63.418 4.72725 62.3478 4.43539 61.2777 4.43539C59.6724 4.43539 58.4077 5.21369 57.5321 6.77028C56.6079 8.32688 56.1701 11.0023 56.1701 14.7965C56.1701 18.6393 56.6565 21.3147 57.5807 22.8713C58.505 24.4279 59.867 25.2062 61.6668 25.2062C62.7856 25.2062 63.8558 24.9144 64.8773 24.3793C65.4124 24.0388 65.8015 23.7469 66.0447 23.5037H66.4339L68.0878 26.5682C67.6013 26.9574 67.0176 27.3465 66.288 27.6384C64.8773 28.3194 63.2234 28.6599 61.3263 28.6599C57.9699 28.6599 55.4404 27.5411 53.6893 25.3035Z" fill="white"/>
<path d="M71.25 2.87886L72.7093 1.32227H76.3576V10.37C76.6008 10.1268 76.9413 9.8349 77.4277 9.54304C78.4006 8.95931 79.3735 8.66745 80.395 8.66745C82.6326 8.66745 84.3351 9.29982 85.5512 10.5646C86.7673 11.8293 87.351 13.6291 87.351 15.964V28.2708H82.2435V15.964C82.2435 14.7479 82.0002 13.8723 81.5138 13.24C81.0274 12.6076 80.3464 12.3157 79.5194 12.3157C78.6925 12.3157 77.9628 12.7049 77.2332 13.4832C76.9899 13.775 76.6981 14.1642 76.4062 14.6506V28.3195H71.2986V2.87886H71.25Z" fill="white"/>
<path d="M92.8918 27.0548C91.7243 25.9846 91.1406 24.5253 91.1406 22.7255C91.1406 20.7797 91.8216 19.3204 93.135 18.2016C94.4484 17.1315 96.5401 16.5477 99.3614 16.5477H101.94V15.964C101.94 14.602 101.648 13.6291 101.113 13.0454C100.529 12.4617 99.6533 12.1212 98.4858 12.1212C97.4643 12.1212 96.5401 12.3644 95.6645 12.8995C95.324 13.094 94.9835 13.3373 94.643 13.6778H94.2538L92.5999 10.6132C93.1837 10.2241 93.7674 9.88357 94.3025 9.64035C95.9077 9.00799 97.367 8.66748 98.8263 8.66748C100.529 8.66748 101.988 8.95934 103.253 9.59171C104.518 10.2241 105.442 11.0997 106.074 12.1698C106.707 13.2886 107.047 14.5047 107.047 15.9154V28.2222H103.399L103.01 25.936H102.815C102.377 26.5197 101.988 26.9575 101.55 27.298C100.529 28.1736 99.3128 28.66 97.8534 28.66C95.7618 28.66 94.1079 28.1249 92.8918 27.0548ZM101.064 23.8443C101.404 23.5038 101.696 23.1146 101.94 22.6768V20.0014H99.3614C97.2697 20.0014 96.2482 20.877 96.2482 22.6768C96.2482 23.3579 96.4914 23.9416 96.9292 24.3307C97.367 24.7685 97.9994 24.9631 98.8263 24.9631C99.556 25.0117 100.334 24.6226 101.064 23.8443Z" fill="white"/>
<path d="M111.914 9.05644H115.562L115.951 11.3427H116.146C116.389 10.9535 116.827 10.5158 117.411 9.98067C118.578 9.10509 119.794 8.61865 121.108 8.61865C121.74 8.61865 122.372 8.6673 122.956 8.81323C123.345 8.91051 123.637 8.95916 123.832 9.0078L123.102 12.8506H122.713C122.47 12.802 122.227 12.7534 121.886 12.6561C121.351 12.5101 120.767 12.4615 120.135 12.4615C119.308 12.4615 118.578 12.8506 117.849 13.6289C117.605 13.9208 117.314 14.31 117.022 14.7964V28.2707H111.914V9.05644Z" fill="white"/>
<path d="M126.944 5.70018C126.409 5.11645 126.117 4.43544 126.117 3.65714C126.117 2.87884 126.409 2.19783 126.944 1.61411C127.479 1.03039 128.112 0.738525 128.841 0.738525C129.571 0.738525 130.203 1.03039 130.738 1.61411C131.273 2.19783 131.565 2.87884 131.565 3.65714C131.565 4.43544 131.273 5.11645 130.738 5.70018C130.203 6.2839 129.571 6.57576 128.841 6.57576C128.112 6.57576 127.479 6.2839 126.944 5.70018ZM126.312 28.2708V9.05659H131.419V28.2708H126.312Z" fill="white"/>
<path d="M53.6893 25.3035C51.9381 23.0659 51.0625 19.5636 51.0625 14.7965C51.0625 10.0294 51.9381 6.57571 53.6406 4.3381C55.3431 2.10049 57.7753 0.981689 60.9372 0.981689C62.7856 0.981689 64.4395 1.32219 65.8988 2.05185C66.5798 2.34371 67.1635 2.68422 67.6986 3.07337L66.0447 6.13791H65.6556C65.3637 5.8947 64.9746 5.60283 64.4881 5.31097C63.418 4.72725 62.3478 4.43539 61.2777 4.43539C59.6724 4.43539 58.4077 5.21369 57.5321 6.77028C56.6079 8.32688 56.1701 11.0023 56.1701 14.7965C56.1701 18.6393 56.6565 21.3147 57.5807 22.8713C58.505 24.4279 59.867 25.2062 61.6668 25.2062C62.7856 25.2062 63.8558 24.9144 64.8773 24.3793C65.4124 24.0388 65.8015 23.7469 66.0447 23.5037H66.4339L68.0878 26.5682C67.6013 26.9574 67.0176 27.3465 66.288 27.6384C64.8773 28.3194 63.2234 28.6599 61.3263 28.6599C57.9699 28.6599 55.4404 27.5411 53.6893 25.3035Z" fill="white"/>
<path d="M71.25 2.87886L72.7093 1.32227H76.3576V10.37C76.6008 10.1268 76.9413 9.8349 77.4277 9.54304C78.4006 8.95931 79.3735 8.66745 80.395 8.66745C82.6326 8.66745 84.3351 9.29982 85.5512 10.5646C86.7673 11.8293 87.351 13.6291 87.351 15.964V28.2708H82.2435V15.964C82.2435 14.7479 82.0002 13.8723 81.5138 13.24C81.0274 12.6076 80.3464 12.3157 79.5194 12.3157C78.6925 12.3157 77.9628 12.7049 77.2332 13.4832C76.9899 13.775 76.6981 14.1642 76.4062 14.6506V28.3195H71.2986V2.87886H71.25Z" fill="white"/>
<path d="M92.8918 27.0548C91.7243 25.9846 91.1406 24.5253 91.1406 22.7255C91.1406 20.7797 91.8216 19.3204 93.135 18.2016C94.4484 17.1315 96.5401 16.5477 99.3614 16.5477H101.94V15.964C101.94 14.602 101.648 13.6291 101.113 13.0454C100.529 12.4617 99.6533 12.1212 98.4858 12.1212C97.4643 12.1212 96.5401 12.3644 95.6645 12.8995C95.324 13.094 94.9835 13.3373 94.643 13.6778H94.2538L92.5999 10.6132C93.1837 10.2241 93.7674 9.88357 94.3025 9.64035C95.9077 9.00799 97.367 8.66748 98.8263 8.66748C100.529 8.66748 101.988 8.95934 103.253 9.59171C104.518 10.2241 105.442 11.0997 106.074 12.1698C106.707 13.2886 107.047 14.5047 107.047 15.9154V28.2222H103.399L103.01 25.936H102.815C102.377 26.5197 101.988 26.9575 101.55 27.298C100.529 28.1736 99.3128 28.66 97.8534 28.66C95.7618 28.66 94.1079 28.1249 92.8918 27.0548ZM101.064 23.8443C101.404 23.5038 101.696 23.1146 101.94 22.6768V20.0014H99.3614C97.2697 20.0014 96.2482 20.877 96.2482 22.6768C96.2482 23.3579 96.4914 23.9416 96.9292 24.3307C97.367 24.7685 97.9994 24.9631 98.8263 24.9631C99.556 25.0117 100.334 24.6226 101.064 23.8443Z" fill="white"/>
<path d="M111.914 9.05644H115.562L115.951 11.3427H116.146C116.389 10.9535 116.827 10.5158 117.411 9.98067C118.578 9.10509 119.794 8.61865 121.108 8.61865C121.74 8.61865 122.372 8.6673 122.956 8.81323C123.345 8.91051 123.637 8.95916 123.832 9.0078L123.102 12.8506H122.713C122.47 12.802 122.227 12.7534 121.886 12.6561C121.351 12.5101 120.767 12.4615 120.135 12.4615C119.308 12.4615 118.578 12.8506 117.849 13.6289C117.605 13.9208 117.314 14.31 117.022 14.7964V28.2707H111.914V9.05644Z" fill="white"/>
<path d="M126.944 5.70018C126.409 5.11645 126.117 4.43544 126.117 3.65714C126.117 2.87884 126.409 2.19783 126.944 1.61411C127.479 1.03039 128.112 0.738525 128.841 0.738525C129.571 0.738525 130.203 1.03039 130.738 1.61411C131.273 2.19783 131.565 2.87884 131.565 3.65714C131.565 4.43544 131.273 5.11645 130.738 5.70018C130.203 6.2839 129.571 6.57576 128.841 6.57576C128.112 6.57576 127.479 6.2839 126.944 5.70018ZM126.312 28.2708V9.05659H131.419V28.2708H126.312Z" fill="white"/>
<path d="M51.0625 41.1137V32.8372H56.0383V33.921H52.7375V36.2857H55.3486V37.3696H52.7375V40.0792H56.0383V41.163H51.0625V41.1137Z" fill="white"/>
<path d="M59.1406 32.8369H61.4068C62.4907 32.8369 63.3282 33.0832 63.8208 33.5266C64.3135 33.97 64.6091 34.6597 64.6091 35.4972C64.6091 36.2855 64.3627 36.9259 63.8208 37.4186C63.5745 37.6156 63.3282 37.7634 63.0326 37.862L65.0525 41.1135H63.1804L61.4561 38.1576H60.8156V41.1135H59.1406V32.8369ZM61.4068 37.0737C61.9487 37.0737 62.3429 36.9259 62.5892 36.6796C62.8355 36.4333 62.934 36.0392 62.934 35.448C62.934 34.8568 62.8355 34.4627 62.5892 34.2163C62.3429 33.97 61.9487 33.8222 61.4068 33.8222H60.8156V37.0245H61.4068V37.0737Z" fill="white"/>
<path d="M68.0625 32.8372H70.4272C71.5603 32.8372 72.3486 33.0835 72.8412 33.5269C73.3339 33.9703 73.5802 34.66 73.5802 35.6453C73.5802 36.5813 73.3339 37.271 72.8412 37.7637C72.3486 38.2071 71.5111 38.4534 70.4272 38.4534H69.7375V41.163H68.0625V32.8372ZM70.4272 37.3203C70.9691 37.3203 71.3633 37.1725 71.6096 36.9262C71.8559 36.6799 71.9545 36.2365 71.9545 35.596C71.9545 35.0048 71.8559 34.5614 71.6096 34.2659C71.3633 34.0195 70.9691 33.8717 70.4272 33.8717H69.7375V37.3203H70.4272Z" fill="white"/>
<path d="M82.3436 40.9166C82.0972 40.818 81.8509 40.7195 81.7031 40.5717L82.245 39.6357H82.3436C82.4421 39.7342 82.5899 39.8327 82.787 39.9313C83.1811 40.1283 83.6245 40.1776 84.1171 40.1776C84.5605 40.1776 84.9546 40.0791 85.201 39.882C85.4473 39.6849 85.5458 39.3893 85.5458 38.9952C85.5458 38.7489 85.4965 38.5518 85.3488 38.404C85.201 38.2562 85.0532 38.1084 84.8561 37.9606C84.659 37.8621 84.3634 37.7143 84.0186 37.5173C83.5259 37.3202 83.1811 37.0739 82.8362 36.8768C82.4914 36.6797 82.2943 36.4334 82.0972 36.1378C81.9002 35.8422 81.8017 35.4481 81.8017 34.9555C81.8017 34.5613 81.9002 34.1672 82.1465 33.8224C82.3436 33.4775 82.6884 33.2312 83.0826 33.0341C83.4767 32.8371 84.0186 32.7385 84.5605 32.7385C85.2502 32.7385 85.8414 32.8371 86.3833 33.0834C86.6297 33.1819 86.8267 33.2804 86.9745 33.379L86.4326 34.315H86.3341C86.2355 34.2657 86.137 34.1672 85.9399 34.0687C85.5458 33.8716 85.1517 33.7731 84.7083 33.7731C84.3634 33.7731 84.0679 33.8716 83.8215 34.118C83.5752 34.315 83.4767 34.5613 83.4767 34.8569C83.4767 35.1033 83.5259 35.3003 83.6737 35.4481C83.8215 35.5959 83.9693 35.7437 84.1664 35.8915C84.3634 35.99 84.659 36.1378 85.0039 36.3349C85.4965 36.5319 85.8414 36.7783 86.1863 36.9753C86.4819 37.1724 86.7282 37.4187 86.9252 37.7143C87.1223 38.0099 87.2208 38.404 87.2208 38.8967C87.2208 39.3401 87.1223 39.7835 86.876 40.1283C86.6297 40.4732 86.3341 40.7688 85.8907 40.9658C85.4473 41.1629 84.9054 41.2614 84.2649 41.2614C83.4767 41.2122 82.8362 41.1136 82.3436 40.9166Z" fill="white"/>
<path d="M92.0071 38.4039L89.4453 32.8369H91.1696L92.6968 36.5811L92.7954 36.9259L92.8446 37.123H92.8939L92.9432 36.9259L93.0417 36.5811L94.5689 32.8369H96.1947L93.6329 38.4039V41.1135H91.9578V38.4039H92.0071Z" fill="white"/>
<path d="M99.0467 40.9166C98.8004 40.818 98.554 40.7195 98.4062 40.5717L98.9482 39.6357H99.0467C99.1452 39.7342 99.293 39.8327 99.4901 39.9313C99.8842 40.1283 100.328 40.1776 100.82 40.1776C101.264 40.1776 101.658 40.0791 101.904 39.882C102.15 39.6849 102.249 39.3893 102.249 38.9952C102.249 38.7489 102.2 38.5518 102.052 38.404C101.904 38.2562 101.756 38.1084 101.559 37.9606C101.362 37.8621 101.067 37.7143 100.722 37.5173C100.229 37.3202 99.8842 37.0739 99.5394 36.8768C99.1945 36.6797 98.9974 36.4334 98.8004 36.1378C98.6033 35.8422 98.5048 35.4481 98.5048 34.9555C98.5048 34.5613 98.6033 34.1672 98.8496 33.8224C99.0467 33.4775 99.3916 33.2312 99.7857 33.0341C100.18 32.8371 100.722 32.7385 101.264 32.7385C101.953 32.7385 102.545 32.8371 103.086 33.0834C103.333 33.1819 103.53 33.2804 103.678 33.379L103.136 34.315H103.037C102.939 34.2657 102.84 34.1672 102.643 34.0687C102.249 33.8716 101.855 33.7731 101.411 33.7731C101.067 33.7731 100.771 33.8716 100.525 34.118C100.278 34.315 100.18 34.5613 100.18 34.8569C100.18 35.1033 100.229 35.3003 100.377 35.4481C100.525 35.5959 100.672 35.7437 100.87 35.8915C101.067 35.99 101.362 36.1378 101.707 36.3349C102.2 36.5319 102.545 36.7783 102.889 36.9753C103.185 37.1724 103.431 37.4187 103.628 37.7143C103.825 38.0099 103.924 38.404 103.924 38.8967C103.924 39.3401 103.825 39.7835 103.579 40.1283C103.333 40.4732 103.037 40.7688 102.594 40.9658C102.15 41.1629 101.608 41.2614 100.968 41.2614C100.229 41.2122 99.5886 41.1136 99.0467 40.9166Z" fill="white"/>
<path d="M108.108 41.1137V33.8717H106.039V32.7878H111.852V33.8717H109.783V41.1137H108.108Z" fill="white"/>
<path d="M114.812 41.1135V32.8369H119.788V33.9208H116.488V36.2855H119.099V37.3693H116.488V40.0789H119.788V41.1627H114.812V41.1135Z" fill="white"/>
<path d="M122.885 32.8369H124.461L126.777 37.5171C126.875 37.7142 126.924 37.8127 126.924 37.9112L126.974 38.1083H127.023L127.072 37.9112C127.072 37.8127 127.171 37.7142 127.22 37.5171L129.535 32.8369H131.112V41.1135H129.437V36.187C129.437 35.9406 129.437 35.7928 129.437 35.645L129.486 35.3987H129.437C129.388 35.5465 129.388 35.5958 129.338 35.645C129.24 35.8914 129.191 36.0392 129.092 36.187L127.269 39.7341H126.432L124.707 36.2855C124.609 36.0884 124.56 35.8914 124.461 35.7436C124.461 35.6943 124.412 35.5958 124.363 35.4972H124.313V35.7436C124.313 36.0392 124.363 36.2362 124.363 36.2855V41.0642H122.688V32.8369H122.885Z" fill="white"/>
<path d="M51.0625 41.1137V32.8372H56.0383V33.921H52.7375V36.2857H55.3486V37.3696H52.7375V40.0792H56.0383V41.163H51.0625V41.1137Z" fill="white"/>
<path d="M59.1406 32.8369H61.4068C62.4907 32.8369 63.3282 33.0832 63.8208 33.5266C64.3135 33.97 64.6091 34.6597 64.6091 35.4972C64.6091 36.2855 64.3627 36.9259 63.8208 37.4186C63.5745 37.6156 63.3282 37.7634 63.0326 37.862L65.0525 41.1135H63.1804L61.4561 38.1576H60.8156V41.1135H59.1406V32.8369ZM61.4068 37.0737C61.9487 37.0737 62.3429 36.9259 62.5892 36.6796C62.8355 36.4333 62.934 36.0392 62.934 35.448C62.934 34.8568 62.8355 34.4627 62.5892 34.2163C62.3429 33.97 61.9487 33.8222 61.4068 33.8222H60.8156V37.0245H61.4068V37.0737Z" fill="white"/>
<path d="M68.0625 32.8372H70.4272C71.5603 32.8372 72.3486 33.0835 72.8412 33.5269C73.3339 33.9703 73.5802 34.66 73.5802 35.6453C73.5802 36.5813 73.3339 37.271 72.8412 37.7637C72.3486 38.2071 71.5111 38.4534 70.4272 38.4534H69.7375V41.163H68.0625V32.8372ZM70.4272 37.3203C70.9691 37.3203 71.3633 37.1725 71.6096 36.9262C71.8559 36.6799 71.9545 36.2365 71.9545 35.596C71.9545 35.0048 71.8559 34.5614 71.6096 34.2659C71.3633 34.0195 70.9691 33.8717 70.4272 33.8717H69.7375V37.3203H70.4272Z" fill="white"/>
<path d="M82.3436 40.9166C82.0972 40.818 81.8509 40.7195 81.7031 40.5717L82.245 39.6357H82.3436C82.4421 39.7342 82.5899 39.8327 82.787 39.9313C83.1811 40.1283 83.6245 40.1776 84.1171 40.1776C84.5605 40.1776 84.9546 40.0791 85.201 39.882C85.4473 39.6849 85.5458 39.3893 85.5458 38.9952C85.5458 38.7489 85.4965 38.5518 85.3488 38.404C85.201 38.2562 85.0532 38.1084 84.8561 37.9606C84.659 37.8621 84.3634 37.7143 84.0186 37.5173C83.5259 37.3202 83.1811 37.0739 82.8362 36.8768C82.4914 36.6797 82.2943 36.4334 82.0972 36.1378C81.9002 35.8422 81.8017 35.4481 81.8017 34.9555C81.8017 34.5613 81.9002 34.1672 82.1465 33.8224C82.3436 33.4775 82.6884 33.2312 83.0826 33.0341C83.4767 32.8371 84.0186 32.7385 84.5605 32.7385C85.2502 32.7385 85.8414 32.8371 86.3833 33.0834C86.6297 33.1819 86.8267 33.2804 86.9745 33.379L86.4326 34.315H86.3341C86.2355 34.2657 86.137 34.1672 85.9399 34.0687C85.5458 33.8716 85.1517 33.7731 84.7083 33.7731C84.3634 33.7731 84.0679 33.8716 83.8215 34.118C83.5752 34.315 83.4767 34.5613 83.4767 34.8569C83.4767 35.1033 83.5259 35.3003 83.6737 35.4481C83.8215 35.5959 83.9693 35.7437 84.1664 35.8915C84.3634 35.99 84.659 36.1378 85.0039 36.3349C85.4965 36.5319 85.8414 36.7783 86.1863 36.9753C86.4819 37.1724 86.7282 37.4187 86.9252 37.7143C87.1223 38.0099 87.2208 38.404 87.2208 38.8967C87.2208 39.3401 87.1223 39.7835 86.876 40.1283C86.6297 40.4732 86.3341 40.7688 85.8907 40.9658C85.4473 41.1629 84.9054 41.2614 84.2649 41.2614C83.4767 41.2122 82.8362 41.1136 82.3436 40.9166Z" fill="white"/>
<path d="M92.0071 38.4039L89.4453 32.8369H91.1696L92.6968 36.5811L92.7954 36.9259L92.8446 37.123H92.8939L92.9432 36.9259L93.0417 36.5811L94.5689 32.8369H96.1947L93.6329 38.4039V41.1135H91.9578V38.4039H92.0071Z" fill="white"/>
<path d="M99.0467 40.9166C98.8004 40.818 98.554 40.7195 98.4062 40.5717L98.9482 39.6357H99.0467C99.1452 39.7342 99.293 39.8327 99.4901 39.9313C99.8842 40.1283 100.328 40.1776 100.82 40.1776C101.264 40.1776 101.658 40.0791 101.904 39.882C102.15 39.6849 102.249 39.3893 102.249 38.9952C102.249 38.7489 102.2 38.5518 102.052 38.404C101.904 38.2562 101.756 38.1084 101.559 37.9606C101.362 37.8621 101.067 37.7143 100.722 37.5173C100.229 37.3202 99.8842 37.0739 99.5394 36.8768C99.1945 36.6797 98.9974 36.4334 98.8004 36.1378C98.6033 35.8422 98.5048 35.4481 98.5048 34.9555C98.5048 34.5613 98.6033 34.1672 98.8496 33.8224C99.0467 33.4775 99.3916 33.2312 99.7857 33.0341C100.18 32.8371 100.722 32.7385 101.264 32.7385C101.953 32.7385 102.545 32.8371 103.086 33.0834C103.333 33.1819 103.53 33.2804 103.678 33.379L103.136 34.315H103.037C102.939 34.2657 102.84 34.1672 102.643 34.0687C102.249 33.8716 101.855 33.7731 101.411 33.7731C101.067 33.7731 100.771 33.8716 100.525 34.118C100.278 34.315 100.18 34.5613 100.18 34.8569C100.18 35.1033 100.229 35.3003 100.377 35.4481C100.525 35.5959 100.672 35.7437 100.87 35.8915C101.067 35.99 101.362 36.1378 101.707 36.3349C102.2 36.5319 102.545 36.7783 102.889 36.9753C103.185 37.1724 103.431 37.4187 103.628 37.7143C103.825 38.0099 103.924 38.404 103.924 38.8967C103.924 39.3401 103.825 39.7835 103.579 40.1283C103.333 40.4732 103.037 40.7688 102.594 40.9658C102.15 41.1629 101.608 41.2614 100.968 41.2614C100.229 41.2122 99.5886 41.1136 99.0467 40.9166Z" fill="white"/>
<path d="M108.108 41.1137V33.8717H106.039V32.7878H111.852V33.8717H109.783V41.1137H108.108Z" fill="white"/>
<path d="M114.812 41.1135V32.8369H119.788V33.9208H116.488V36.2855H119.099V37.3693H116.488V40.0789H119.788V41.1627H114.812V41.1135Z" fill="white"/>
<path d="M122.885 32.8369H124.461L126.777 37.5171C126.875 37.7142 126.924 37.8127 126.924 37.9112L126.974 38.1083H127.023L127.072 37.9112C127.072 37.8127 127.171 37.7142 127.22 37.5171L129.535 32.8369H131.112V41.1135H129.437V36.187C129.437 35.9406 129.437 35.7928 129.437 35.645L129.486 35.3987H129.437C129.388 35.5465 129.388 35.5958 129.338 35.645C129.24 35.8914 129.191 36.0392 129.092 36.187L127.269 39.7341H126.432L124.707 36.2855C124.609 36.0884 124.56 35.8914 124.461 35.7436C124.461 35.6943 124.412 35.5958 124.363 35.4972H124.313V35.7436C124.313 36.0392 124.363 36.2362 124.363 36.2855V41.0642H122.688V32.8369H122.885Z" fill="white"/>
<defs>
<filter id="filter0_d_10335_52045" x="0" y="1.77661" width="40.1328" height="40.1333" filterUnits="userSpaceOnUse" color-interpolation-filters="sRGB">
<feFlood flood-opacity="0" result="BackgroundImageFix"/>
<feColorMatrix in="SourceAlpha" type="matrix" values="0 0 0 0 0 0 0 0 0 0 0 0 0 0 0 0 0 0 127 0" result="hardAlpha"/>
<feOffset dy="1"/>
<feGaussianBlur stdDeviation="1.5"/>
<feComposite in2="hardAlpha" operator="out"/>
<feColorMatrix type="matrix" values="0 0 0 0 0 0 0 0 0 0 0 0 0 0 0 0 0 0 0.29 0"/>
<feBlend mode="normal" in2="BackgroundImageFix" result="effect1_dropShadow_10335_52045"/>
<feBlend mode="normal" in="SourceGraphic" in2="effect1_dropShadow_10335_52045" result="shape"/>
</filter>
<radialGradient id="paint0_radial_10335_52045" cx="0" cy="0" r="1" gradientUnits="userSpaceOnUse" gradientTransform="translate(24.791 14.9246) scale(18.5957 18.6002)">
<stop offset="0.0495126" stop-color="white"/>
<stop offset="0.2388" stop-color="#CBEDFD"/>
<stop offset="0.6189" stop-color="#9CDAF8"/>
<stop offset="0.82" stop-color="#74B9DA"/>
<stop offset="1" stop-color="#409CC4"/>
</radialGradient>
</defs>
</svg>
