<svg xmlns="http://www.w3.org/2000/svg"  viewBox="0 0 22 22" fill="none">
<path fill-rule="evenodd" clip-rule="evenodd" d="M3.4375 16.5C3.4375 16.3177 3.50993 16.1428 3.63886 16.0139C3.7678 15.8849 3.94266 15.8125 4.125 15.8125H17.875C18.0573 15.8125 18.2322 15.8849 18.3611 16.0139C18.4901 16.1428 18.5625 16.3177 18.5625 16.5C18.5625 16.6823 18.4901 16.8572 18.3611 16.9861C18.2322 17.1151 18.0573 17.1875 17.875 17.1875H4.125C3.94266 17.1875 3.7678 17.1151 3.63886 16.9861C3.50993 16.8572 3.4375 16.6823 3.4375 16.5ZM3.4375 11C3.4375 10.8177 3.50993 10.6428 3.63886 10.5139C3.7678 10.3849 3.94266 10.3125 4.125 10.3125H17.875C18.0573 10.3125 18.2322 10.3849 18.3611 10.5139C18.4901 10.6428 18.5625 10.8177 18.5625 11C18.5625 11.1823 18.4901 11.3572 18.3611 11.4861C18.2322 11.6151 18.0573 11.6875 17.875 11.6875H4.125C3.94266 11.6875 3.7678 11.6151 3.63886 11.4861C3.50993 11.3572 3.4375 11.1823 3.4375 11ZM3.4375 5.5C3.4375 5.31766 3.50993 5.1428 3.63886 5.01386C3.7678 4.88493 3.94266 4.8125 4.125 4.8125H17.875C18.0573 4.8125 18.2322 4.88493 18.3611 5.01386C18.4901 5.1428 18.5625 5.31766 18.5625 5.5C18.5625 5.68234 18.4901 5.8572 18.3611 5.98614C18.2322 6.11507 18.0573 6.1875 17.875 6.1875H4.125C3.94266 6.1875 3.7678 6.11507 3.63886 5.98614C3.50993 5.8572 3.4375 5.68234 3.4375 5.5Z" fill="currentColor"/>
</svg>