<svg width="40" height="40" viewBox="0 0 40 40" fill="none" xmlns="http://www.w3.org/2000/svg">
<g clip-path="url(#clip0_10162_47060)">
<path d="M9.33888 -0.00884639C9.40896 -0.00919466 9.47904 -0.00954293 9.55124 -0.00990175C9.66626 -0.00988014 9.66626 -0.00988014 9.78361 -0.0098581C9.90616 -0.010289 9.90616 -0.010289 10.0312 -0.0107285C10.3059 -0.0115912 10.5806 -0.0118911 10.8552 -0.0121886C11.0518 -0.012678 11.2484 -0.0131973 11.445 -0.0137443C12.0356 -0.0152466 12.6262 -0.0160747 13.2167 -0.0167699C13.495 -0.0171126 13.7733 -0.0175318 14.0516 -0.0179409C14.977 -0.0192699 15.9024 -0.0204022 16.8278 -0.0209682C17.0679 -0.0211174 17.3079 -0.0212674 17.548 -0.0214202C17.6077 -0.021458 17.6673 -0.0214958 17.7288 -0.0215347C18.695 -0.022183 19.6611 -0.0241621 20.6272 -0.0267C21.6197 -0.0292857 22.6122 -0.0306909 23.6047 -0.0309404C24.1617 -0.0311093 24.7187 -0.03179 25.2757 -0.0337889C25.7999 -0.0356656 26.324 -0.0359386 26.8482 -0.0351357C27.0403 -0.035097 27.2325 -0.0355913 27.4247 -0.0366635C27.6875 -0.0380477 27.9503 -0.0374926 28.2131 -0.0364656C28.3265 -0.0377511 28.3265 -0.0377511 28.4423 -0.0390625C29.1844 -0.0320847 29.7737 0.184443 30.3074 0.709647C30.3872 0.786582 30.4671 0.863486 30.547 0.94036C30.6065 0.998746 30.6065 0.998746 30.6672 1.05831C30.854 1.23962 31.0473 1.41365 31.24 1.58855C31.6477 1.96142 32.0515 2.33834 32.455 2.71568C32.7683 3.00852 33.0827 3.30008 33.3982 3.59051C33.8335 3.99132 34.2652 4.39586 34.6966 4.80095C35.0209 5.10534 35.3464 5.40835 35.6736 5.70965C36.2851 6.27276 36.8922 6.8406 37.4994 7.40845C37.5997 7.50225 37.7 7.59603 37.8003 7.68978C37.8988 7.78186 37.9972 7.87402 38.0956 7.96627C38.324 8.18012 38.5537 8.39186 38.7885 8.59875C39.4105 9.1486 39.951 9.68016 40.0246 10.5496C40.0248 10.6334 40.025 10.7172 40.0252 10.8036C40.0258 10.9008 40.0264 10.998 40.027 11.0982C40.0269 11.2055 40.0268 11.3128 40.0266 11.4201C40.027 11.5345 40.0275 11.649 40.028 11.7634C40.0293 12.0777 40.0296 12.3919 40.0297 12.7062C40.03 13.0452 40.0311 13.3842 40.0322 13.7233C40.0343 14.4645 40.0353 15.2057 40.0359 15.9469C40.0364 16.4099 40.037 16.8729 40.0377 17.3359C40.0396 18.6183 40.0413 19.9006 40.0418 21.183C40.0418 21.265 40.0419 21.3471 40.0419 21.4316C40.0419 21.5138 40.042 21.5961 40.042 21.6808C40.0421 21.8475 40.0421 22.0141 40.0422 22.1808C40.0422 22.2635 40.0423 22.3461 40.0423 22.4313C40.0429 23.7704 40.0457 25.1095 40.0493 26.4486C40.053 27.8241 40.0549 29.1996 40.0551 30.575C40.0553 31.347 40.0562 32.1191 40.059 32.8911C40.0614 33.5486 40.0622 34.206 40.0609 34.8635C40.0603 35.1987 40.0604 35.5339 40.0626 35.8692C40.0646 36.1766 40.0644 36.4839 40.0626 36.7913C40.0622 36.902 40.0627 37.0128 40.0641 37.1235C40.0742 37.9986 39.8804 38.7082 39.2869 39.3718C38.5905 39.9928 37.8225 40.0585 36.9253 40.0507C36.8049 40.0511 36.6845 40.0517 36.5641 40.0524C36.2353 40.0539 35.9066 40.0529 35.5777 40.0516C35.2224 40.0505 34.867 40.0517 34.5116 40.0526C33.8162 40.0541 33.1209 40.0534 32.4255 40.052C31.8603 40.0509 31.2951 40.0506 30.7298 40.0509C30.6493 40.0509 30.5687 40.0509 30.4858 40.051C30.3222 40.0511 30.1585 40.0511 29.9949 40.0512C28.5491 40.0519 27.1033 40.0506 25.6575 40.0483C24.2553 40.046 22.8532 40.0455 21.451 40.0467C19.9231 40.048 18.3953 40.0483 16.8674 40.0469C16.7044 40.0468 16.5414 40.0466 16.3784 40.0465C16.2983 40.0464 16.2181 40.0464 16.1355 40.0463C15.571 40.0458 15.0066 40.0461 14.4421 40.0466C13.7541 40.0472 13.0661 40.0467 12.378 40.0447C12.0271 40.0438 11.6763 40.0433 11.3254 40.0442C11.0039 40.0449 10.6824 40.0443 10.361 40.0425C10.2449 40.0421 10.1289 40.0422 10.0129 40.0429C9.06127 40.0482 8.36308 39.9071 7.65939 39.2433C7.27568 38.799 7.02591 38.2495 7.02652 37.6615C7.02636 37.5417 7.02636 37.5417 7.02619 37.4194C7.02648 37.3319 7.02676 37.2443 7.02705 37.1541C7.02703 37.0619 7.02702 36.9697 7.02701 36.8746C7.02706 36.6217 7.02745 36.3688 7.02799 36.1159C7.02848 35.8516 7.02853 35.5873 7.02862 35.3229C7.02886 34.8224 7.0295 34.3219 7.03029 33.8214C7.03116 33.2516 7.03159 32.6817 7.03198 32.1119C7.0328 30.9397 7.03417 29.7676 7.03592 28.5954C6.94214 28.597 6.94214 28.597 6.84647 28.5985C6.25353 28.608 5.66062 28.6151 5.06761 28.6197C4.76284 28.6221 4.45812 28.6254 4.15338 28.6308C3.85855 28.6359 3.56379 28.6387 3.26893 28.6399C3.15718 28.6407 3.04543 28.6424 2.9337 28.645C2.04038 28.6646 1.31648 28.4864 0.634548 27.8776C0.0702268 27.2291 -0.0530534 26.5378 -0.0446397 25.7017C-0.0451987 25.6036 -0.0457577 25.5056 -0.0463337 25.4045C-0.0474208 25.1382 -0.0467775 24.8719 -0.0452328 24.6056C-0.0439425 24.3254 -0.0446425 24.0453 -0.045039 23.7651C-0.045391 23.2951 -0.0441597 22.825 -0.0419694 22.355C-0.0394636 21.813 -0.0394678 21.2712 -0.0408143 20.7293C-0.0420573 20.2057 -0.0415257 19.6822 -0.0401944 19.1586C-0.0396603 18.9368 -0.0397358 18.7149 -0.0403154 18.4931C-0.0410298 18.1829 -0.0391454 17.8728 -0.0370103 17.5626C-0.0375201 17.4715 -0.03803 17.3805 -0.0385553 17.2866C-0.0321987 16.7419 0.0491791 16.3371 0.317165 15.861C0.35201 15.7987 0.386855 15.7363 0.422756 15.6721C0.814847 15.1273 1.33898 14.801 1.9914 14.6435C2.42795 14.5729 2.8718 14.5923 3.31277 14.5958C3.42048 14.596 3.52818 14.5963 3.63589 14.5964C3.91742 14.597 4.19893 14.5985 4.48046 14.6003C4.76851 14.6019 5.05657 14.6026 5.34463 14.6034C5.9084 14.6051 6.47215 14.6077 7.03592 14.611C7.03563 14.5465 7.03534 14.482 7.03504 14.4155C7.02813 12.844 7.02297 11.2725 7.01972 9.70098C7.01811 8.94099 7.01592 8.18102 7.01234 7.42104C7.00922 6.75843 7.00721 6.09583 7.00651 5.43322C7.00611 5.08255 7.00515 4.73191 7.00287 4.38125C7.00074 4.05075 7.0001 3.72028 7.00057 3.38977C7.00048 3.26891 6.99987 3.14804 6.99866 3.02718C6.98949 2.05895 7.11885 1.34422 7.79977 0.625114C8.24886 0.224958 8.73596 -0.00745274 9.33888 -0.00884639ZM8.48611 1.6032C8.17991 2.09312 8.1198 2.51411 8.12027 3.09289C8.12016 3.19476 8.12006 3.29664 8.11994 3.40161C8.12022 3.51354 8.12051 3.62548 8.1208 3.73741C8.12082 3.85601 8.12081 3.97461 8.12076 4.09322C8.12074 4.4144 8.1212 4.73557 8.12174 5.05675C8.12223 5.3927 8.12228 5.72865 8.12237 6.0646C8.12261 6.70041 8.12325 7.33622 8.12404 7.97203C8.12491 8.69603 8.12534 9.42003 8.12573 10.144C8.12655 11.633 8.12792 13.122 8.12967 14.611C8.23242 14.6112 8.33518 14.6114 8.44105 14.6116C10.8818 14.6161 13.3225 14.6217 15.7633 14.6289C16.0639 14.6298 16.3645 14.6307 16.6651 14.6315C16.7249 14.6317 16.7847 14.6319 16.8464 14.632C17.8146 14.6348 18.7828 14.6367 19.7509 14.6384C20.7448 14.6401 21.7387 14.6427 22.7326 14.6461C23.3456 14.6481 23.9586 14.6495 24.5716 14.65C25.0421 14.6505 25.5126 14.6522 25.9831 14.6543C26.1758 14.655 26.3684 14.6553 26.5611 14.6552C26.8246 14.655 27.0881 14.6563 27.3516 14.658C27.4654 14.6574 27.4654 14.6574 27.5814 14.6568C28.368 14.665 29.0348 14.8416 29.614 15.3923C30.2489 16.0747 30.3524 16.7849 30.3475 17.6927C30.3481 17.8352 30.3481 17.8352 30.3487 17.9805C30.3496 18.2391 30.3494 18.4977 30.3486 18.7563C30.348 19.0281 30.3486 19.2999 30.349 19.5717C30.3494 20.028 30.3488 20.4842 30.3477 20.9405C30.3464 21.4665 30.3469 21.9925 30.3481 22.5185C30.3492 22.9718 30.3494 23.425 30.3487 23.8783C30.3484 24.1483 30.3483 24.4183 30.3491 24.6883C30.3499 24.9895 30.3488 25.2906 30.3475 25.5919C30.348 25.6803 30.3484 25.7687 30.3489 25.8598C30.3421 26.7178 30.1421 27.3485 29.5359 27.9704C28.9382 28.4446 28.3603 28.5405 27.6147 28.539C27.4896 28.5397 27.4896 28.5397 27.3621 28.5404C27.0828 28.5417 26.8036 28.5419 26.5243 28.5422C26.3241 28.5429 26.1239 28.5437 25.9238 28.5446C25.4928 28.5462 25.0618 28.5475 24.6308 28.5483C24.0077 28.5494 23.3846 28.5514 22.7614 28.5536C21.7504 28.5571 20.7394 28.56 19.7284 28.5624C18.7464 28.5648 17.7644 28.5675 16.7824 28.5706C16.7218 28.5708 16.6613 28.571 16.5989 28.5712C16.2951 28.5721 15.9913 28.5731 15.6876 28.5741C13.1683 28.5822 10.649 28.5892 8.12967 28.5954C8.12601 29.7356 8.12326 30.8759 8.12157 32.0161C8.12076 32.5456 8.11967 33.0751 8.11788 33.6046C8.11615 34.1157 8.11524 34.6268 8.11484 35.1379C8.11455 35.3328 8.11399 35.5276 8.11314 35.7225C8.11201 35.9957 8.11185 36.2689 8.11193 36.5422C8.11137 36.6225 8.1108 36.7028 8.11022 36.7855C8.11218 37.469 8.18203 38.0846 8.67654 38.5954C9.09821 38.8536 9.44704 38.9176 9.93517 38.9182C10.0337 38.9185 10.1322 38.9188 10.2337 38.9191C10.3433 38.919 10.4528 38.9189 10.5624 38.9189C10.6786 38.9191 10.7948 38.9193 10.911 38.9196C11.2308 38.9202 11.5506 38.9203 11.8704 38.9204C12.2151 38.9205 12.5599 38.9211 12.9046 38.9217C13.6586 38.9227 14.4125 38.9232 15.1665 38.9235C15.6372 38.9237 16.1078 38.9241 16.5785 38.9244C17.8812 38.9254 19.184 38.9262 20.4868 38.9265C20.5702 38.9265 20.6536 38.9265 20.7395 38.9265C20.8649 38.9265 20.8649 38.9265 20.9928 38.9266C21.1622 38.9266 21.3316 38.9266 21.501 38.9267C21.585 38.9267 21.669 38.9267 21.7556 38.9267C23.1175 38.927 24.4794 38.9284 25.8412 38.9302C27.239 38.9321 28.6368 38.933 30.0346 38.9331C30.8196 38.9332 31.6046 38.9336 32.3895 38.9351C33.0579 38.9363 33.7262 38.9367 34.3946 38.936C34.7356 38.9357 35.0767 38.9358 35.4177 38.9369C35.7299 38.9379 36.0421 38.9378 36.3544 38.9368C36.4673 38.9367 36.5802 38.9369 36.6932 38.9376C37.4656 38.942 38.0145 38.9125 38.5984 38.361C38.8698 37.9733 38.9207 37.6659 38.9207 37.1987C38.921 37.1043 38.9212 37.0098 38.9214 36.9125C38.9212 36.8075 38.921 36.7026 38.9208 36.5976C38.9209 36.4862 38.921 36.3748 38.9212 36.2634C38.9215 35.957 38.9214 35.6505 38.9211 35.3441C38.921 35.0137 38.9212 34.6834 38.9214 34.3531C38.9218 33.7058 38.9217 33.0586 38.9215 32.4114C38.9213 31.8857 38.9213 31.3599 38.9214 30.8342C38.9214 30.7595 38.9214 30.6847 38.9214 30.6077C38.9214 30.4559 38.9215 30.3041 38.9215 30.1523C38.9217 28.7279 38.9214 27.3036 38.921 25.8793C38.9207 24.6559 38.9207 23.4325 38.9211 22.2091C38.9215 20.7896 38.9217 19.3702 38.9214 17.9507C38.9214 17.7995 38.9214 17.6483 38.9214 17.4971C38.9214 17.4227 38.9213 17.3483 38.9213 17.2717C38.9213 16.7461 38.9214 16.2206 38.9216 15.6951C38.9218 15.0553 38.9217 14.4154 38.9213 13.7756C38.9211 13.4489 38.921 13.1221 38.9213 12.7954C38.9215 12.4968 38.9214 12.1982 38.921 11.8995C38.9209 11.791 38.9209 11.6825 38.9211 11.574C38.9214 11.4275 38.9211 11.281 38.9207 11.1344C38.9207 11.0528 38.9207 10.9711 38.9207 10.8869C38.9314 10.7079 38.9314 10.7079 38.8328 10.6266C38.7287 10.6188 38.6241 10.6162 38.5197 10.6159C38.4522 10.6154 38.3848 10.615 38.3153 10.6146C38.2407 10.6145 38.1661 10.6144 38.0892 10.6143C38.0111 10.6139 37.933 10.6135 37.8525 10.6131C37.6821 10.6123 37.5117 10.6116 37.3413 10.6111C37.0713 10.6102 36.8014 10.6086 36.5314 10.6069C35.7636 10.6021 34.9958 10.5979 34.2279 10.5953C33.7587 10.5936 33.2896 10.5909 32.8204 10.5874C32.6418 10.5863 32.4631 10.5856 32.2845 10.5854C32.0337 10.585 31.783 10.5832 31.5322 10.5811C31.4222 10.5814 31.4222 10.5814 31.31 10.5818C30.5007 10.5716 29.8845 10.3355 29.3015 9.76726C28.8492 9.19721 28.7315 8.63798 28.7298 7.92465C28.729 7.85067 28.7282 7.77669 28.7274 7.70046C28.725 7.45698 28.7236 7.21351 28.7223 6.97002C28.7209 6.80079 28.7193 6.63156 28.7177 6.46232C28.7137 6.01768 28.7106 5.57304 28.7077 5.1284C28.7046 4.67436 28.7006 4.22032 28.6967 3.76629C28.6891 2.87599 28.6825 1.9857 28.6765 1.09539C26.2302 1.08826 23.7839 1.08273 21.3375 1.07943C21.0486 1.07904 20.7596 1.07864 20.4706 1.07822C20.3844 1.0781 20.3844 1.0781 20.2963 1.07798C19.3655 1.07662 18.4346 1.07415 17.5038 1.07128C16.5483 1.06835 15.5928 1.06662 14.6373 1.06599C14.048 1.06556 13.4586 1.06421 12.8692 1.06167C12.417 1.05982 11.9647 1.05962 11.5124 1.06004C11.3271 1.05996 11.1419 1.05934 10.9566 1.05814C10.7033 1.05658 10.4501 1.05696 10.1968 1.05781C10.1238 1.0569 10.0507 1.05599 9.97548 1.05505C9.40066 1.06026 8.89692 1.18186 8.48611 1.6032ZM29.7703 1.87664C29.7648 2.69093 29.7607 3.50521 29.7581 4.31951C29.7569 4.69766 29.7553 5.0758 29.7526 5.45395C29.7501 5.81918 29.7487 6.18439 29.7481 6.54963C29.7476 6.68867 29.7468 6.82771 29.7455 6.96674C29.7438 7.16214 29.7436 7.3575 29.7437 7.55291C29.7428 7.60983 29.742 7.66676 29.7411 7.72541C29.7442 8.23334 29.8594 8.65776 30.1902 9.04949C30.7426 9.5098 31.2205 9.54499 31.9246 9.54176C31.9902 9.54177 32.0558 9.54178 32.1234 9.54179C32.339 9.54174 32.5546 9.54113 32.7702 9.54052C32.9201 9.54037 33.0701 9.54026 33.2201 9.54018C33.6138 9.53989 34.0076 9.53912 34.4014 9.53825C34.8036 9.53745 35.2058 9.5371 35.608 9.5367C36.3965 9.53587 37.1849 9.53454 37.9734 9.53289C37.8997 9.4458 37.8259 9.35886 37.752 9.27196C37.7109 9.22353 37.6698 9.1751 37.6274 9.12519C37.4587 8.93395 37.2748 8.76526 37.0847 8.59539C37.0026 8.52131 36.9205 8.44715 36.8385 8.37292C36.7949 8.33353 36.7513 8.29414 36.7064 8.25355C36.4506 8.02038 36.1991 7.78275 35.947 7.54559C35.5677 7.1891 35.1874 6.83373 34.8045 6.48113C34.1934 5.91843 33.5868 5.35086 32.98 4.78359C32.429 4.26861 31.8776 3.75412 31.3226 3.24341C31.0937 3.03261 30.8656 2.82091 30.6385 2.60815C30.5882 2.56107 30.5378 2.514 30.4859 2.4655C30.388 2.37383 30.2901 2.28202 30.1925 2.19004C30.008 1.97588 30.008 1.97588 29.7703 1.87664ZM1.42556 16.32C1.0656 16.8342 1.07555 17.3172 1.07696 17.9237C1.07656 18.0128 1.07616 18.1019 1.07575 18.1937C1.07466 18.4878 1.07474 18.7819 1.07492 19.076C1.07461 19.2807 1.07427 19.4855 1.0739 19.6902C1.07326 20.1191 1.07333 20.548 1.07375 20.9769C1.07423 21.4718 1.07326 21.9667 1.0716 22.4616C1.07005 22.9388 1.06982 23.416 1.07009 23.8932C1.07005 24.0958 1.06965 24.2983 1.06886 24.5009C1.06789 24.7842 1.06842 25.0674 1.06933 25.3507C1.06873 25.4342 1.06813 25.5177 1.06752 25.6038C1.07208 26.2496 1.18814 26.7051 1.64529 27.1891C2.0248 27.4548 2.32804 27.5113 2.78532 27.5119C2.91956 27.5124 2.91956 27.5124 3.05652 27.5128C3.15489 27.5128 3.25326 27.5127 3.35461 27.5126C3.46014 27.5128 3.56566 27.5131 3.67118 27.5133C3.96143 27.5139 4.25168 27.5141 4.54194 27.5141C4.85487 27.5143 5.16781 27.5149 5.48074 27.5154C6.16515 27.5165 6.84955 27.5169 7.53395 27.5173C7.96126 27.5175 8.38858 27.5178 8.81589 27.5182C9.99891 27.5191 11.1819 27.5199 12.365 27.5202C12.4785 27.5202 12.4785 27.5202 12.5944 27.5203C12.7083 27.5203 12.7083 27.5203 12.8244 27.5203C12.9782 27.5203 13.132 27.5204 13.2858 27.5204C13.4003 27.5204 13.4003 27.5204 13.517 27.5205C14.7533 27.5208 15.9896 27.5221 17.2259 27.524C18.495 27.5258 19.7642 27.5268 21.0333 27.5269C21.746 27.5269 22.4586 27.5274 23.1712 27.5288C23.7781 27.53 24.3849 27.5304 24.9917 27.5298C25.3012 27.5295 25.6108 27.5295 25.9204 27.5306C26.2039 27.5316 26.4875 27.5315 26.771 27.5306C26.9219 27.5304 27.0727 27.5313 27.2235 27.5323C27.8415 27.5287 28.3289 27.4948 28.8181 27.0817C29.0932 26.7516 29.2524 26.5119 29.2542 26.0755C29.2556 25.9538 29.2556 25.9538 29.2569 25.8296C29.2567 25.7414 29.2565 25.6532 29.2562 25.5623C29.2569 25.4688 29.2575 25.3752 29.2582 25.2789C29.2597 25.0228 29.2602 24.7668 29.26 24.5108C29.26 24.2967 29.2607 24.0826 29.2614 23.8684C29.2629 23.3629 29.2631 22.8574 29.2626 22.3519C29.262 21.8315 29.2638 21.3111 29.2667 20.7907C29.2691 20.343 29.27 19.8954 29.2697 19.4477C29.2695 19.1807 29.27 18.9137 29.2719 18.6467C29.2736 18.3486 29.2729 18.0506 29.2715 17.7526C29.2725 17.6648 29.2736 17.5771 29.2746 17.4867C29.2689 16.954 29.1919 16.5799 28.8328 16.1735C28.4522 15.8767 28.1742 15.7733 27.6973 15.7724C27.6068 15.7721 27.5163 15.7717 27.4231 15.7713C27.3232 15.7714 27.2234 15.7714 27.1205 15.7714C27.0137 15.7711 26.9069 15.7708 26.8001 15.7705C26.5059 15.7697 26.2118 15.7694 25.9176 15.7692C25.6007 15.7689 25.2837 15.7682 24.9667 15.7675C24.2009 15.766 23.4351 15.7652 22.6693 15.7645C22.3088 15.7641 21.9483 15.7637 21.5878 15.7633C20.3896 15.762 19.1914 15.7608 17.9933 15.7603C17.6823 15.7601 17.3713 15.76 17.0603 15.7598C16.983 15.7598 16.9057 15.7598 16.8261 15.7597C15.5736 15.7591 14.3211 15.7571 13.0686 15.7545C11.7831 15.752 10.4976 15.7506 9.21213 15.7503C8.4902 15.7501 7.76827 15.7495 7.04634 15.7475C6.4316 15.7458 5.81687 15.7451 5.20213 15.7459C4.88846 15.7463 4.5748 15.7461 4.26113 15.7446C3.97389 15.7432 3.6867 15.7433 3.39947 15.7445C3.24648 15.7448 3.0935 15.7435 2.94053 15.7422C2.28864 15.747 1.87792 15.8237 1.42556 16.32Z" fill="#0C6399"/>
<path d="M7.81425 18.5127C7.95929 18.6798 8.07583 18.8322 8.19511 19.0156C8.26219 19.1144 8.32933 19.2132 8.39653 19.312C8.42961 19.3613 8.46269 19.4107 8.49678 19.4616C8.69216 19.7483 8.90341 20.0234 9.11125 20.301C9.2205 20.4658 9.2205 20.4658 9.2205 20.6221C9.56173 20.3053 9.81743 19.9556 10.0799 19.5723C10.8313 18.4805 10.8313 18.4805 11.1346 18.3516C11.4112 18.3585 11.6038 18.4742 11.7986 18.6689C11.8077 18.8531 11.8118 19.0349 11.8125 19.2191C11.813 19.2767 11.8135 19.3342 11.814 19.3935C11.8156 19.5847 11.8165 19.7759 11.8172 19.9672C11.8176 20.0323 11.8179 20.0974 11.8182 20.1646C11.8198 20.5093 11.821 20.854 11.8217 21.1987C11.8226 21.5554 11.8252 21.9121 11.8283 22.2688C11.8304 22.5425 11.831 22.8162 11.8313 23.0899C11.8317 23.2214 11.8326 23.3529 11.8341 23.4845C11.836 23.6683 11.8359 23.8521 11.8353 24.036C11.8363 24.0906 11.8373 24.1451 11.8384 24.2014C11.8357 24.4493 11.8294 24.5742 11.6547 24.7571C11.4231 24.8721 11.2727 24.8781 11.0174 24.8408C10.8495 24.7335 10.8495 24.7335 10.7049 24.5283C10.6561 24.2567 10.6576 23.9871 10.6573 23.7117C10.656 23.6323 10.6547 23.553 10.6534 23.4713C10.6496 23.2182 10.6479 22.9651 10.6463 22.7119C10.6441 22.5402 10.6417 22.3685 10.6393 22.1968C10.6335 21.776 10.6295 21.3553 10.6268 20.9346C10.5992 20.972 10.5716 21.0095 10.5432 21.0481C10.4184 21.2172 10.2931 21.3859 10.1678 21.5547C10.1244 21.6137 10.081 21.6726 10.0362 21.7334C9.99444 21.7895 9.95265 21.8457 9.90959 21.9035C9.87113 21.9555 9.83267 22.0074 9.79305 22.061C9.64197 22.2409 9.54708 22.2608 9.31328 22.292C9.05007 22.261 8.95863 22.211 8.7849 22.0156C8.63507 21.8223 8.49165 21.6249 8.34831 21.4268C8.29215 21.3493 8.236 21.2718 8.17814 21.1919C8.1354 21.1328 8.09266 21.0736 8.04863 21.0127C8.0479 21.1148 8.04717 21.2169 8.04642 21.322C8.0433 21.7014 8.03816 22.0806 8.03242 22.4599C8.03021 22.6239 8.02856 22.788 8.02746 22.9521C8.02578 23.1881 8.02214 23.4241 8.01811 23.6601C8.01797 23.7699 8.01797 23.7699 8.01782 23.8818C8.01045 24.211 7.99788 24.4036 7.82837 24.6921C7.658 24.8408 7.658 24.8408 7.38457 24.8848C7.06401 24.8332 6.99081 24.7842 6.79863 24.5283C6.75947 24.2734 6.75947 24.2734 6.75943 23.9671C6.7588 23.8832 6.7588 23.8832 6.75815 23.7976C6.75718 23.6131 6.75847 23.4287 6.75987 23.2441C6.75986 23.1157 6.75974 22.9873 6.75953 22.8589C6.75942 22.5899 6.7604 22.3209 6.76218 22.0519C6.7644 21.7072 6.76418 21.3626 6.76319 21.0179C6.76264 20.7527 6.76325 20.4876 6.76422 20.2225C6.76458 20.0954 6.7646 19.9683 6.7643 19.8412C6.76407 19.6636 6.76536 19.486 6.76706 19.3083C6.76748 19.2072 6.76791 19.1062 6.76834 19.002C6.80032 18.7329 6.84475 18.6249 7.033 18.4346C7.3196 18.2962 7.53435 18.3881 7.81425 18.5127Z" fill="#0C6399"/>
<path d="M13.6072 18.3936C13.6724 18.3926 13.7376 18.3916 13.8048 18.3906C13.9103 18.3916 13.9103 18.3916 14.0179 18.3925C14.127 18.3921 14.127 18.3921 14.2384 18.3916C14.3925 18.3914 14.5466 18.392 14.7008 18.3933C14.9352 18.395 15.1694 18.3933 15.4039 18.3913C15.5539 18.3915 15.7039 18.3919 15.8538 18.3925C15.9234 18.3919 15.9929 18.3913 16.0645 18.3906C16.6367 18.3991 17.0379 18.5552 17.4765 18.9223C18.0163 19.5643 18.1978 20.092 18.1259 20.934C17.9809 21.5525 17.6699 22.0069 17.1339 22.3461C16.5651 22.6501 15.9734 22.6099 15.3476 22.5942C15.2379 22.5926 15.1281 22.5912 15.0184 22.5899C14.7521 22.5863 14.4859 22.5811 14.2196 22.5747C14.2217 22.6294 14.2237 22.6842 14.2258 22.7406C14.234 22.9896 14.239 23.2386 14.244 23.4878C14.2473 23.5739 14.2506 23.6601 14.254 23.7488C14.2636 24.387 14.2636 24.387 14.0405 24.7048C13.829 24.8403 13.829 24.8403 13.5458 24.8452C13.2498 24.752 13.1941 24.7145 13.0478 24.4497C13.018 24.1977 13.018 24.1977 13.0174 23.8956C13.0168 23.8129 13.0168 23.8129 13.0162 23.7284C13.0152 23.5465 13.0158 23.3646 13.0166 23.1826C13.0165 23.0559 13.0162 22.9292 13.0159 22.8026C13.0156 22.5372 13.0161 22.2719 13.0172 22.0066C13.0185 21.6667 13.0178 21.3268 13.0164 20.9868C13.0155 20.7253 13.0158 20.4638 13.0164 20.2023C13.0165 20.0769 13.0164 19.9516 13.0158 19.8262C13.0152 19.651 13.0161 19.4758 13.0174 19.3006C13.0176 19.2009 13.0178 19.1012 13.018 18.9985C13.0652 18.5991 13.1922 18.3954 13.6072 18.3936ZM14.2196 19.5278C14.2196 20.1723 14.2196 20.8169 14.2196 21.4809C14.5048 21.4858 14.79 21.4906 15.0839 21.4956C15.1727 21.4977 15.2615 21.4998 15.3531 21.502C15.9141 21.5066 16.2846 21.4446 16.7489 21.1147C16.9277 20.8603 16.9693 20.6137 16.954 20.309C16.8362 19.9804 16.7082 19.7847 16.4071 19.6059C16.1589 19.5232 15.9832 19.5188 15.7226 19.5202C15.6439 19.5204 15.5652 19.5206 15.4841 19.5208C15.3842 19.5215 15.2844 19.5222 15.1815 19.5229C14.8641 19.5245 14.5467 19.5261 14.2196 19.5278Z" fill="#0C6399"/>
<path d="M22.0299 18.5139C22.1862 18.6701 22.1862 18.6701 22.2219 18.9533C22.2106 19.3622 22.015 19.6063 21.7711 19.9201C21.6855 20.0355 21.5999 20.151 21.5145 20.2665C21.4706 20.325 21.4266 20.3835 21.3814 20.4438C21.1666 20.7343 20.9637 21.0327 20.7604 21.3313C20.6884 21.4364 20.6164 21.5414 20.5443 21.6465C20.4932 21.7213 20.442 21.7962 20.3893 21.8733C20.776 21.899 21.1627 21.9248 21.5612 21.9514C21.5576 21.8591 21.5539 21.7669 21.5502 21.6718C21.5473 21.5502 21.5444 21.4285 21.5416 21.3069C21.539 21.2461 21.5364 21.1854 21.5337 21.1228C21.526 20.6725 21.526 20.6725 21.7016 20.4267C21.9536 20.2569 22.1238 20.2684 22.4206 20.3108C22.5927 20.4267 22.5927 20.4267 22.7331 20.6233C22.7708 20.8525 22.7626 21.0754 22.7526 21.3069C22.7512 21.3688 22.7498 21.4307 22.7483 21.4945C22.7446 21.6469 22.739 21.7991 22.7331 21.9514C22.833 21.9625 22.9329 21.9735 23.0358 21.985C23.229 22.0064 23.3436 22.0214 23.5143 22.1174C23.6424 22.3577 23.6251 22.5445 23.5924 22.8108C23.4704 23.0012 23.4704 23.0012 23.2799 23.1233C23.0977 23.1281 22.9153 23.1286 22.7331 23.1233C22.7376 23.2146 22.7421 23.3059 22.7468 23.4001C22.7504 23.521 22.754 23.642 22.7575 23.7629C22.7624 23.853 22.7624 23.853 22.7674 23.9449C22.7746 24.2805 22.7626 24.4121 22.5539 24.6894C22.3424 24.842 22.3424 24.842 22.0592 24.8469C21.7604 24.7528 21.7036 24.723 21.5612 24.4514C21.5333 24.2227 21.5391 23.9977 21.5465 23.7678C21.5481 23.6749 21.5481 23.6749 21.5497 23.5801C21.5525 23.4278 21.5567 23.2755 21.5612 23.1233C21.4823 23.1249 21.4035 23.1265 21.3223 23.1282C21.0294 23.1339 20.7364 23.1375 20.4435 23.1404C20.3168 23.142 20.1901 23.1441 20.0634 23.1468C19.8811 23.1506 19.6988 23.1524 19.5165 23.1538C19.4318 23.1562 19.4318 23.1562 19.3453 23.1587C19.076 23.1588 18.931 23.1427 18.7125 22.9795C18.5493 22.7502 18.5542 22.6182 18.5924 22.342C18.6791 22.1549 18.6791 22.1549 18.8073 21.966C18.8572 21.8917 18.9072 21.8174 18.9586 21.7408C19.0187 21.6546 19.0789 21.5686 19.1393 21.4826C19.1736 21.4335 19.208 21.3844 19.2434 21.3338C19.4383 21.0554 19.6347 20.7781 19.8317 20.5012C20.108 20.1121 20.3772 19.7183 20.6439 19.3227C21.3745 18.2489 21.3745 18.2489 22.0299 18.5139Z" fill="#0C6399"/>
</g>
<defs>
<clipPath id="clip0_10162_47060">
<rect width="40" height="40" fill="white"/>
</clipPath>
</defs>
</svg>
