<svg width="40" height="40" viewBox="0 0 40 40" fill="none" xmlns="http://www.w3.org/2000/svg">
<g clip-path="url(#clip0_10162_47066)">
<path d="M9.33888 -0.00884639C9.40896 -0.00919466 9.47904 -0.00954293 9.55124 -0.00990175C9.66626 -0.00988014 9.66626 -0.00988014 9.78361 -0.0098581C9.90616 -0.010289 9.90616 -0.010289 10.0312 -0.0107285C10.3059 -0.0115912 10.5806 -0.0118911 10.8552 -0.0121886C11.0518 -0.012678 11.2484 -0.0131973 11.445 -0.0137443C12.0356 -0.0152466 12.6262 -0.0160747 13.2167 -0.0167699C13.495 -0.0171126 13.7733 -0.0175318 14.0516 -0.0179409C14.977 -0.0192699 15.9024 -0.0204022 16.8278 -0.0209682C17.0679 -0.0211174 17.3079 -0.0212674 17.548 -0.0214202C17.6077 -0.021458 17.6673 -0.0214958 17.7288 -0.0215347C18.695 -0.022183 19.6611 -0.0241621 20.6272 -0.0267C21.6197 -0.0292857 22.6122 -0.0306909 23.6047 -0.0309404C24.1617 -0.0311093 24.7187 -0.03179 25.2757 -0.0337889C25.7999 -0.0356656 26.324 -0.0359386 26.8482 -0.0351357C27.0403 -0.035097 27.2325 -0.0355913 27.4247 -0.0366635C27.6875 -0.0380477 27.9503 -0.0374926 28.2131 -0.0364656C28.3265 -0.0377511 28.3265 -0.0377511 28.4423 -0.0390625C29.1926 -0.0320084 29.783 0.193569 30.3172 0.719413C30.3974 0.796767 30.4776 0.874078 30.5579 0.951347C30.5967 0.989314 30.6354 1.02728 30.6753 1.0664C30.8299 1.21614 30.9908 1.35824 31.1521 1.50066C31.5718 1.87718 31.981 2.26463 32.391 2.65165C32.7299 2.97142 33.07 3.28968 33.4129 3.60515C34.0225 4.1661 34.6273 4.73211 35.2325 5.29781C35.7804 5.80987 36.3291 6.32095 36.8808 6.8289C37.2762 7.19348 37.6684 7.5614 38.0597 7.93041C38.3019 8.15836 38.545 8.3845 38.7943 8.60454C39.4143 9.1527 39.9512 9.68291 40.0246 10.5496C40.0248 10.6334 40.025 10.7172 40.0252 10.8036C40.0258 10.9008 40.0264 10.998 40.027 11.0982C40.0269 11.2055 40.0268 11.3128 40.0266 11.4201C40.027 11.5345 40.0275 11.649 40.028 11.7634C40.0293 12.0777 40.0296 12.3919 40.0297 12.7062C40.03 13.0452 40.0311 13.3842 40.0322 13.7233C40.0343 14.4645 40.0353 15.2057 40.0359 15.9469C40.0364 16.4099 40.037 16.8729 40.0377 17.3359C40.0396 18.6183 40.0413 19.9006 40.0418 21.183C40.0418 21.265 40.0419 21.3471 40.0419 21.4316C40.0419 21.5138 40.042 21.5961 40.042 21.6808C40.0421 21.8475 40.0421 22.0141 40.0422 22.1808C40.0422 22.2635 40.0423 22.3461 40.0423 22.4313C40.0429 23.7704 40.0457 25.1095 40.0493 26.4486C40.053 27.8241 40.0549 29.1996 40.0551 30.575C40.0553 31.347 40.0562 32.1191 40.059 32.8911C40.0614 33.5486 40.0622 34.206 40.0609 34.8635C40.0603 35.1987 40.0604 35.5339 40.0626 35.8692C40.0646 36.1766 40.0644 36.4839 40.0626 36.7913C40.0622 36.902 40.0627 37.0128 40.0641 37.1235C40.0742 37.9986 39.8804 38.7082 39.2869 39.3718C38.5905 39.9928 37.8225 40.0585 36.9253 40.0507C36.8049 40.0511 36.6845 40.0517 36.5641 40.0524C36.2353 40.0539 35.9066 40.0529 35.5777 40.0516C35.2224 40.0505 34.867 40.0517 34.5116 40.0526C33.8162 40.0541 33.1209 40.0534 32.4255 40.052C31.8603 40.0509 31.2951 40.0506 30.7298 40.0509C30.6493 40.0509 30.5687 40.0509 30.4858 40.051C30.3222 40.0511 30.1585 40.0511 29.9949 40.0512C28.5491 40.0519 27.1033 40.0506 25.6575 40.0483C24.2553 40.046 22.8532 40.0455 21.451 40.0467C19.9231 40.048 18.3953 40.0483 16.8674 40.0469C16.7044 40.0468 16.5414 40.0466 16.3784 40.0465C16.2983 40.0464 16.2181 40.0464 16.1355 40.0463C15.571 40.0458 15.0066 40.0461 14.4421 40.0466C13.7541 40.0472 13.0661 40.0467 12.378 40.0447C12.0271 40.0438 11.6763 40.0433 11.3254 40.0442C11.0039 40.0449 10.6824 40.0443 10.361 40.0425C10.2449 40.0421 10.1289 40.0422 10.0129 40.0429C9.06127 40.0482 8.36308 39.9071 7.65939 39.2433C7.27568 38.799 7.02591 38.2495 7.02652 37.6615C7.02636 37.5417 7.02636 37.5417 7.02619 37.4194C7.02648 37.3319 7.02676 37.2443 7.02705 37.1541C7.02703 37.0619 7.02702 36.9697 7.02701 36.8746C7.02706 36.6217 7.02745 36.3688 7.02799 36.1159C7.02848 35.8516 7.02853 35.5873 7.02862 35.3229C7.02886 34.8224 7.0295 34.3219 7.03029 33.8214C7.03116 33.2516 7.03159 32.6817 7.03198 32.1119C7.0328 30.9397 7.03417 29.7676 7.03592 28.5954C6.94214 28.597 6.94214 28.597 6.84647 28.5985C6.25353 28.608 5.66062 28.6151 5.06761 28.6197C4.76284 28.6221 4.45812 28.6254 4.15338 28.6308C3.85855 28.6359 3.56379 28.6387 3.26893 28.6399C3.15718 28.6407 3.04543 28.6424 2.9337 28.645C2.04038 28.6646 1.31648 28.4864 0.634548 27.8776C0.0702268 27.2291 -0.0530534 26.5378 -0.0446397 25.7017C-0.0451987 25.6036 -0.0457577 25.5056 -0.0463337 25.4045C-0.0474208 25.1382 -0.0467775 24.8719 -0.0452328 24.6056C-0.0439425 24.3254 -0.0446425 24.0453 -0.045039 23.7651C-0.045391 23.2951 -0.0441597 22.825 -0.0419694 22.355C-0.0394636 21.813 -0.0394678 21.2712 -0.0408143 20.7293C-0.0420573 20.2057 -0.0415257 19.6822 -0.0401944 19.1586C-0.0396603 18.9368 -0.0397358 18.7149 -0.0403154 18.4931C-0.0410298 18.1829 -0.0391454 17.8728 -0.0370103 17.5626C-0.0375201 17.4715 -0.03803 17.3805 -0.0385553 17.2866C-0.0321987 16.7419 0.0491791 16.3371 0.317165 15.861C0.35201 15.7987 0.386855 15.7363 0.422756 15.6721C0.814847 15.1273 1.33898 14.801 1.9914 14.6435C2.42795 14.5729 2.8718 14.5923 3.31277 14.5958C3.42048 14.596 3.52818 14.5963 3.63589 14.5964C3.91742 14.597 4.19893 14.5985 4.48046 14.6003C4.76851 14.6019 5.05657 14.6026 5.34463 14.6034C5.9084 14.6051 6.47215 14.6077 7.03592 14.611C7.03563 14.5465 7.03534 14.482 7.03504 14.4155C7.02813 12.844 7.02297 11.2725 7.01972 9.70098C7.01811 8.94099 7.01592 8.18102 7.01234 7.42104C7.00922 6.75843 7.00721 6.09583 7.00651 5.43322C7.00611 5.08255 7.00515 4.73191 7.00287 4.38125C7.00074 4.05075 7.0001 3.72028 7.00057 3.38977C7.00048 3.26891 6.99987 3.14804 6.99866 3.02718C6.98949 2.05895 7.11885 1.34422 7.79977 0.625114C8.24886 0.224958 8.73596 -0.00745274 9.33888 -0.00884639ZM8.48611 1.6032C8.17991 2.09312 8.1198 2.51411 8.12027 3.09289C8.12016 3.19476 8.12006 3.29664 8.11994 3.40161C8.12022 3.51354 8.12051 3.62548 8.1208 3.73741C8.12082 3.85601 8.12081 3.97461 8.12076 4.09322C8.12074 4.4144 8.1212 4.73557 8.12174 5.05675C8.12223 5.3927 8.12228 5.72865 8.12237 6.0646C8.12261 6.70041 8.12325 7.33622 8.12404 7.97203C8.12491 8.69603 8.12534 9.42003 8.12573 10.144C8.12655 11.633 8.12792 13.122 8.12967 14.611C8.23242 14.6112 8.33518 14.6114 8.44105 14.6116C10.8818 14.6161 13.3225 14.6217 15.7633 14.6289C16.0639 14.6298 16.3645 14.6307 16.6651 14.6315C16.7249 14.6317 16.7847 14.6319 16.8464 14.632C17.8146 14.6348 18.7828 14.6367 19.7509 14.6384C20.7448 14.6401 21.7387 14.6427 22.7326 14.6461C23.3456 14.6481 23.9586 14.6495 24.5716 14.65C25.0421 14.6505 25.5126 14.6522 25.9831 14.6543C26.1758 14.655 26.3684 14.6553 26.5611 14.6552C26.8246 14.655 27.0881 14.6563 27.3516 14.658C27.4654 14.6574 27.4654 14.6574 27.5814 14.6568C28.368 14.665 29.0348 14.8416 29.614 15.3923C30.2489 16.0747 30.3524 16.7849 30.3475 17.6927C30.3481 17.8352 30.3481 17.8352 30.3487 17.9805C30.3496 18.2391 30.3494 18.4977 30.3486 18.7563C30.348 19.0281 30.3486 19.2999 30.349 19.5717C30.3494 20.028 30.3488 20.4842 30.3477 20.9405C30.3464 21.4665 30.3469 21.9925 30.3481 22.5185C30.3492 22.9718 30.3494 23.425 30.3487 23.8783C30.3484 24.1483 30.3483 24.4183 30.3491 24.6883C30.3499 24.9895 30.3488 25.2906 30.3475 25.5919C30.348 25.6803 30.3484 25.7687 30.3489 25.8598C30.3421 26.7178 30.1421 27.3485 29.5359 27.9704C28.9382 28.4446 28.3603 28.5405 27.6147 28.539C27.4896 28.5397 27.4896 28.5397 27.3621 28.5404C27.0828 28.5417 26.8036 28.5419 26.5243 28.5422C26.3241 28.5429 26.1239 28.5437 25.9238 28.5446C25.4928 28.5462 25.0618 28.5475 24.6308 28.5483C24.0077 28.5494 23.3846 28.5514 22.7614 28.5536C21.7504 28.5571 20.7394 28.56 19.7284 28.5624C18.7464 28.5648 17.7644 28.5675 16.7824 28.5706C16.7218 28.5708 16.6613 28.571 16.5989 28.5712C16.2951 28.5721 15.9913 28.5731 15.6876 28.5741C13.1683 28.5822 10.649 28.5892 8.12967 28.5954C8.12601 29.7356 8.12326 30.8759 8.12157 32.0161C8.12076 32.5456 8.11967 33.0751 8.11788 33.6046C8.11615 34.1157 8.11524 34.6268 8.11484 35.1379C8.11455 35.3328 8.11399 35.5276 8.11314 35.7225C8.11201 35.9957 8.11185 36.2689 8.11193 36.5422C8.11137 36.6225 8.1108 36.7028 8.11022 36.7855C8.11218 37.469 8.18203 38.0846 8.67654 38.5954C9.09821 38.8536 9.44704 38.9176 9.93517 38.9182C10.0337 38.9185 10.1322 38.9188 10.2337 38.9191C10.3433 38.919 10.4528 38.9189 10.5624 38.9189C10.6786 38.9191 10.7948 38.9193 10.911 38.9196C11.2308 38.9202 11.5506 38.9203 11.8704 38.9204C12.2151 38.9205 12.5599 38.9211 12.9046 38.9217C13.6586 38.9227 14.4125 38.9232 15.1665 38.9235C15.6372 38.9237 16.1078 38.9241 16.5785 38.9244C17.8812 38.9254 19.184 38.9262 20.4868 38.9265C20.5702 38.9265 20.6536 38.9265 20.7395 38.9265C20.8649 38.9265 20.8649 38.9265 20.9928 38.9266C21.1622 38.9266 21.3316 38.9266 21.501 38.9267C21.585 38.9267 21.669 38.9267 21.7556 38.9267C23.1175 38.927 24.4794 38.9284 25.8412 38.9302C27.239 38.9321 28.6368 38.933 30.0346 38.9331C30.8196 38.9332 31.6046 38.9336 32.3895 38.9351C33.0579 38.9363 33.7262 38.9367 34.3946 38.936C34.7356 38.9357 35.0767 38.9358 35.4177 38.9369C35.7299 38.9379 36.0421 38.9378 36.3544 38.9368C36.4673 38.9367 36.5802 38.9369 36.6932 38.9376C37.4656 38.942 38.0145 38.9125 38.5984 38.361C38.8698 37.9733 38.9207 37.6659 38.9207 37.1987C38.921 37.1043 38.9212 37.0098 38.9214 36.9125C38.9212 36.8075 38.921 36.7026 38.9208 36.5976C38.9209 36.4862 38.921 36.3748 38.9212 36.2634C38.9215 35.957 38.9214 35.6505 38.9211 35.3441C38.921 35.0137 38.9212 34.6834 38.9214 34.3531C38.9218 33.7058 38.9217 33.0586 38.9215 32.4114C38.9213 31.8857 38.9213 31.3599 38.9214 30.8342C38.9214 30.7595 38.9214 30.6847 38.9214 30.6077C38.9214 30.4559 38.9215 30.3041 38.9215 30.1523C38.9217 28.7279 38.9214 27.3036 38.921 25.8793C38.9207 24.6559 38.9207 23.4325 38.9211 22.2091C38.9215 20.7896 38.9217 19.3702 38.9214 17.9507C38.9214 17.7995 38.9214 17.6483 38.9214 17.4971C38.9214 17.4227 38.9213 17.3483 38.9213 17.2717C38.9213 16.7461 38.9214 16.2206 38.9216 15.6951C38.9218 15.0553 38.9217 14.4154 38.9213 13.7756C38.9211 13.4489 38.921 13.1221 38.9213 12.7954C38.9215 12.4968 38.9214 12.1982 38.921 11.8995C38.9209 11.791 38.9209 11.6825 38.9211 11.574C38.9214 11.4275 38.9211 11.281 38.9207 11.1344C38.9207 11.0528 38.9207 10.9711 38.9207 10.8869C38.9314 10.7079 38.9314 10.7079 38.8328 10.6266C38.7287 10.6188 38.6241 10.6162 38.5197 10.6159C38.4522 10.6154 38.3848 10.615 38.3153 10.6146C38.2407 10.6145 38.1661 10.6144 38.0892 10.6143C38.0111 10.6139 37.933 10.6135 37.8525 10.6131C37.6821 10.6123 37.5117 10.6116 37.3413 10.6111C37.0713 10.6102 36.8014 10.6086 36.5314 10.6069C35.7636 10.6021 34.9958 10.5979 34.2279 10.5953C33.7587 10.5936 33.2896 10.5909 32.8204 10.5874C32.6418 10.5863 32.4631 10.5856 32.2845 10.5854C32.0337 10.585 31.783 10.5832 31.5322 10.5811C31.4222 10.5814 31.4222 10.5814 31.31 10.5818C30.5007 10.5716 29.8845 10.3355 29.3015 9.76726C28.8492 9.19721 28.7315 8.63798 28.7298 7.92465C28.729 7.85067 28.7282 7.77669 28.7274 7.70046C28.725 7.45698 28.7236 7.21351 28.7223 6.97002C28.7209 6.80079 28.7193 6.63156 28.7177 6.46232C28.7137 6.01768 28.7106 5.57304 28.7077 5.1284C28.7046 4.67436 28.7006 4.22032 28.6967 3.76629C28.6891 2.87599 28.6825 1.9857 28.6765 1.09539C26.2302 1.08826 23.7839 1.08273 21.3375 1.07943C21.0486 1.07904 20.7596 1.07864 20.4706 1.07822C20.3844 1.0781 20.3844 1.0781 20.2963 1.07798C19.3655 1.07662 18.4346 1.07415 17.5038 1.07128C16.5483 1.06835 15.5928 1.06662 14.6373 1.06599C14.048 1.06556 13.4586 1.06421 12.8692 1.06167C12.417 1.05982 11.9647 1.05962 11.5124 1.06004C11.3271 1.05996 11.1419 1.05934 10.9566 1.05814C10.7033 1.05658 10.4501 1.05696 10.1968 1.05781C10.1238 1.0569 10.0507 1.05599 9.97548 1.05505C9.40066 1.06026 8.89692 1.18186 8.48611 1.6032ZM29.7703 1.87664C29.7648 2.69093 29.7607 3.50521 29.7581 4.31951C29.7569 4.69766 29.7553 5.0758 29.7526 5.45395C29.7501 5.81918 29.7487 6.18439 29.7481 6.54963C29.7476 6.68867 29.7468 6.82771 29.7455 6.96674C29.7438 7.16214 29.7436 7.3575 29.7437 7.55291C29.7428 7.60983 29.742 7.66676 29.7411 7.72541C29.7442 8.23334 29.8594 8.65776 30.1902 9.04949C30.7426 9.5098 31.2205 9.54499 31.9246 9.54176C31.9902 9.54177 32.0558 9.54178 32.1234 9.54179C32.339 9.54174 32.5546 9.54113 32.7702 9.54052C32.9201 9.54037 33.0701 9.54026 33.2201 9.54018C33.6138 9.53989 34.0076 9.53912 34.4014 9.53825C34.8036 9.53745 35.2058 9.5371 35.608 9.5367C36.3965 9.53587 37.1849 9.53454 37.9734 9.53289C37.8997 9.4458 37.8259 9.35886 37.752 9.27196C37.7109 9.22353 37.6698 9.1751 37.6274 9.12519C37.4587 8.93395 37.2748 8.76526 37.0847 8.59539C37.0026 8.52131 36.9205 8.44715 36.8385 8.37292C36.7949 8.33353 36.7513 8.29414 36.7064 8.25355C36.4506 8.02038 36.1991 7.78275 35.947 7.54559C35.5677 7.1891 35.1874 6.83373 34.8045 6.48113C34.1934 5.91843 33.5868 5.35086 32.98 4.78359C32.429 4.26861 31.8776 3.75412 31.3226 3.24341C31.0937 3.03261 30.8656 2.82091 30.6385 2.60815C30.5882 2.56107 30.5378 2.514 30.4859 2.4655C30.388 2.37383 30.2901 2.28202 30.1925 2.19004C30.008 1.97588 30.008 1.97588 29.7703 1.87664ZM1.42556 16.32C1.0656 16.8342 1.07555 17.3172 1.07696 17.9237C1.07656 18.0128 1.07616 18.1019 1.07575 18.1937C1.07466 18.4878 1.07474 18.7819 1.07492 19.076C1.07461 19.2807 1.07427 19.4855 1.0739 19.6902C1.07326 20.1191 1.07333 20.548 1.07375 20.9769C1.07423 21.4718 1.07326 21.9667 1.0716 22.4616C1.07005 22.9388 1.06982 23.416 1.07009 23.8932C1.07005 24.0958 1.06965 24.2983 1.06886 24.5009C1.06789 24.7842 1.06842 25.0674 1.06933 25.3507C1.06873 25.4342 1.06813 25.5177 1.06752 25.6038C1.07208 26.2496 1.18814 26.7051 1.64529 27.1891C2.0248 27.4548 2.32804 27.5113 2.78532 27.5119C2.91956 27.5124 2.91956 27.5124 3.05652 27.5128C3.15489 27.5128 3.25326 27.5127 3.35461 27.5126C3.46014 27.5128 3.56566 27.5131 3.67118 27.5133C3.96143 27.5139 4.25168 27.5141 4.54194 27.5141C4.85487 27.5143 5.16781 27.5149 5.48074 27.5154C6.16515 27.5165 6.84955 27.5169 7.53395 27.5173C7.96126 27.5175 8.38858 27.5178 8.81589 27.5182C9.99891 27.5191 11.1819 27.5199 12.365 27.5202C12.4785 27.5202 12.4785 27.5202 12.5944 27.5203C12.7083 27.5203 12.7083 27.5203 12.8244 27.5203C12.9782 27.5203 13.132 27.5204 13.2858 27.5204C13.4003 27.5204 13.4003 27.5204 13.517 27.5205C14.7533 27.5208 15.9896 27.5221 17.2259 27.524C18.495 27.5258 19.7642 27.5268 21.0333 27.5269C21.746 27.5269 22.4586 27.5274 23.1712 27.5288C23.7781 27.53 24.3849 27.5304 24.9917 27.5298C25.3012 27.5295 25.6108 27.5295 25.9204 27.5306C26.2039 27.5316 26.4875 27.5315 26.771 27.5306C26.9219 27.5304 27.0727 27.5313 27.2235 27.5323C27.8415 27.5287 28.3289 27.4948 28.8181 27.0817C29.0932 26.7516 29.2524 26.5119 29.2542 26.0755C29.2556 25.9538 29.2556 25.9538 29.2569 25.8296C29.2567 25.7414 29.2565 25.6532 29.2562 25.5623C29.2569 25.4688 29.2575 25.3752 29.2582 25.2789C29.2597 25.0228 29.2602 24.7668 29.26 24.5108C29.26 24.2967 29.2607 24.0826 29.2614 23.8684C29.2629 23.3629 29.2631 22.8574 29.2626 22.3519C29.262 21.8315 29.2638 21.3111 29.2667 20.7907C29.2691 20.343 29.27 19.8954 29.2697 19.4477C29.2695 19.1807 29.27 18.9137 29.2719 18.6467C29.2736 18.3486 29.2729 18.0506 29.2715 17.7526C29.2725 17.6648 29.2736 17.5771 29.2746 17.4867C29.2689 16.954 29.1919 16.5799 28.8328 16.1735C28.4522 15.8767 28.1742 15.7733 27.6973 15.7724C27.6068 15.7721 27.5163 15.7717 27.4231 15.7713C27.3232 15.7714 27.2234 15.7714 27.1205 15.7714C27.0137 15.7711 26.9069 15.7708 26.8001 15.7705C26.5059 15.7697 26.2118 15.7694 25.9176 15.7692C25.6007 15.7689 25.2837 15.7682 24.9667 15.7675C24.2009 15.766 23.4351 15.7652 22.6693 15.7645C22.3088 15.7641 21.9483 15.7637 21.5878 15.7633C20.3896 15.762 19.1914 15.7608 17.9933 15.7603C17.6823 15.7601 17.3713 15.76 17.0603 15.7598C16.983 15.7598 16.9057 15.7598 16.8261 15.7597C15.5736 15.7591 14.3211 15.7571 13.0686 15.7545C11.7831 15.752 10.4976 15.7506 9.21213 15.7503C8.4902 15.7501 7.76827 15.7495 7.04634 15.7475C6.4316 15.7458 5.81687 15.7451 5.20213 15.7459C4.88846 15.7463 4.5748 15.7461 4.26113 15.7446C3.97389 15.7432 3.6867 15.7433 3.39947 15.7445C3.24648 15.7448 3.0935 15.7435 2.94053 15.7422C2.28864 15.747 1.87792 15.8237 1.42556 16.32Z" fill="#0C6399"/>
<path d="M13.4859 18.3919C13.5737 18.3914 13.5737 18.3914 13.6632 18.391C13.7873 18.3907 13.9113 18.3913 14.0354 18.3926C14.2229 18.3943 14.4101 18.3927 14.5975 18.3906C15.5185 18.3889 16.2111 18.5028 16.9018 19.1588C17.6511 19.9237 17.7569 20.7683 17.7554 21.799C17.7419 22.706 17.5395 23.4487 16.903 24.1167C16.3279 24.6432 15.7351 24.85 14.9651 24.8582C14.9091 24.8589 14.8531 24.8595 14.7953 24.8601C14.6771 24.8612 14.5589 24.8621 14.4407 24.8627C14.3199 24.8636 14.1992 24.8652 14.0784 24.8675C13.9036 24.8708 13.7289 24.8721 13.554 24.8729C13.5002 24.8743 13.4464 24.8756 13.391 24.877C13.1476 24.8759 12.9993 24.8605 12.8 24.7162C12.606 24.4578 12.6188 24.2873 12.6188 23.9659C12.6182 23.882 12.6182 23.882 12.6175 23.7964C12.6166 23.6119 12.6178 23.4275 12.6192 23.2429C12.6192 23.1145 12.6191 22.9861 12.6189 22.8577C12.6188 22.5887 12.6198 22.3197 12.6216 22.0507C12.6238 21.706 12.6236 21.3614 12.6226 21.0167C12.622 20.7515 12.6226 20.4864 12.6236 20.2213C12.624 20.0942 12.624 19.9671 12.6237 19.84C12.6234 19.6623 12.6247 19.4848 12.6264 19.3071C12.6269 19.206 12.6273 19.105 12.6277 19.0008C12.6948 18.4365 12.9736 18.3861 13.4859 18.3919ZM13.8299 19.5271C13.8299 20.8935 13.8299 22.2599 13.8299 23.6677C15.0739 23.7905 15.0739 23.7905 16.0543 23.3388C16.5027 22.8136 16.5799 22.3285 16.5838 21.6609C16.5854 21.5927 16.587 21.5244 16.5887 21.4542C16.5918 20.9248 16.5335 20.4794 16.1868 20.0551C16.1357 20.013 16.0846 19.9709 16.032 19.9275C15.9816 19.8842 15.9311 19.8409 15.8791 19.7963C15.2211 19.3699 14.6492 19.5271 13.8299 19.5271Z" fill="#0C6399"/>
<path d="M7.41661 18.4005C7.48552 18.3999 7.55443 18.3993 7.62543 18.3987C7.77155 18.3979 7.91767 18.3976 8.06379 18.398C8.28521 18.3981 8.50641 18.3948 8.7278 18.3913C9.55577 18.3858 10.2231 18.3981 10.8698 18.9749C11.3097 19.4095 11.452 19.9102 11.5154 20.5123C11.4507 21.1052 11.253 21.6779 10.794 22.08C10.3262 22.4449 9.97634 22.5981 9.37279 22.593C9.32132 22.5928 9.26985 22.5926 9.21682 22.5923C9.05364 22.5915 8.8905 22.5895 8.72734 22.5875C8.61621 22.5867 8.50507 22.586 8.39393 22.5854C8.12257 22.5837 7.85123 22.581 7.57988 22.5777C7.58152 22.638 7.58315 22.6984 7.58484 22.7605C7.59133 23.0332 7.5954 23.3059 7.59941 23.5787C7.60334 23.7211 7.60334 23.7211 7.60734 23.8663C7.60835 23.9572 7.60936 24.0481 7.6104 24.1418C7.61203 24.2256 7.61367 24.3095 7.61536 24.3959C7.57988 24.609 7.57988 24.609 7.43637 24.7532C7.20484 24.8767 7.05737 24.8811 6.79863 24.8434C6.63018 24.7206 6.63018 24.7206 6.48613 24.5309C6.44697 24.2724 6.44697 24.2724 6.44693 23.9612C6.44651 23.9044 6.44609 23.8476 6.44565 23.7891C6.44468 23.6016 6.44597 23.4143 6.44737 23.2269C6.44736 23.0965 6.44724 22.9661 6.44703 22.8358C6.44692 22.5628 6.4479 22.2898 6.44968 22.0168C6.4519 21.6667 6.45168 21.3166 6.45069 20.9665C6.45014 20.6974 6.45075 20.4283 6.45172 20.1592C6.45208 20.0301 6.4521 19.901 6.4518 19.7719C6.45157 19.5915 6.45286 19.4113 6.45456 19.231C6.45498 19.1284 6.45541 19.0258 6.45584 18.92C6.48613 18.6715 6.48613 18.6715 6.58602 18.5214C6.83415 18.3659 7.13217 18.4006 7.41661 18.4005ZM7.57988 19.5309C7.57988 20.1754 7.57988 20.8199 7.57988 21.484C7.86508 21.4872 8.15029 21.4904 8.44414 21.4938C8.57738 21.4959 8.57738 21.4959 8.71332 21.4981C9.49319 21.504 9.49319 21.504 10.1531 21.1275C10.3416 20.8715 10.3707 20.6397 10.3527 20.3265C10.2769 19.9902 10.073 19.7828 9.78363 19.5974C9.55982 19.5111 9.37595 19.5133 9.13628 19.5156C9.04564 19.5161 8.955 19.5166 8.86162 19.5171C8.76735 19.5184 8.67309 19.5198 8.57597 19.5211C8.4805 19.5218 8.38503 19.5225 8.28667 19.5232C8.05106 19.5251 7.81547 19.5279 7.57988 19.5309Z" fill="#0C6399"/>
<path d="M19.5626 18.4227C19.6975 18.4212 19.6975 18.4212 19.8352 18.4197C19.9332 18.4191 20.0312 18.4185 20.1321 18.4179C20.282 18.417 20.282 18.417 20.4349 18.416C20.6467 18.4148 20.8586 18.4141 21.0705 18.4135C21.3421 18.4126 21.6136 18.4099 21.8851 18.4068C22.1439 18.4043 22.4026 18.4039 22.6614 18.4033C22.7591 18.4019 22.8567 18.4005 22.9573 18.3991C23.093 18.3995 23.093 18.3995 23.2314 18.3998C23.3112 18.3994 23.3909 18.3989 23.4731 18.3984C23.6728 18.4365 23.6728 18.4365 23.8154 18.5804C23.9412 18.8116 23.945 18.9584 23.9071 19.2178C23.7998 19.3868 23.7998 19.3868 23.5946 19.5303C23.3223 19.5743 23.0532 19.5666 22.778 19.5608C22.6987 19.5604 22.6193 19.5599 22.5376 19.5595C22.2844 19.5577 22.0314 19.5538 21.7782 19.5498C21.6065 19.5483 21.4348 19.5468 21.2631 19.5456C20.8423 19.5421 20.4216 19.5367 20.0009 19.5303C20.0009 20.0201 20.0009 20.51 20.0009 21.0147C20.2389 21.0129 20.4768 21.011 20.722 21.0092C20.9529 21.008 21.1838 21.007 21.4147 21.0061C21.575 21.0053 21.7352 21.0042 21.8955 21.0029C22.1261 21.001 22.3567 21.0001 22.5872 20.9994C22.6587 20.9986 22.7302 20.9978 22.8038 20.997C23.1518 20.9969 23.4386 20.9977 23.7509 21.1709C23.9071 21.3272 23.9071 21.3272 23.9364 21.5908C23.9071 21.874 23.9071 21.874 23.8001 22.0461C23.477 22.267 23.1601 22.2251 22.778 22.2171C22.6987 22.2166 22.6193 22.2162 22.5376 22.2157C22.2844 22.214 22.0314 22.2101 21.7782 22.2061C21.6065 22.2045 21.4348 22.2031 21.2631 22.2018C20.8423 22.1984 20.4216 22.1931 20.0009 22.1865C20.0029 22.2559 20.005 22.3253 20.0071 22.3967C20.0137 22.6547 20.0186 22.9127 20.0223 23.1707C20.0243 23.2823 20.027 23.3938 20.0303 23.5054C20.0351 23.666 20.0373 23.8264 20.039 23.9871C20.0411 24.0836 20.0431 24.1802 20.0452 24.2797C20.0009 24.5303 20.0009 24.5303 19.8209 24.7202C19.6103 24.8428 19.6103 24.8428 19.3271 24.8477C19.0634 24.7647 19.0634 24.7647 18.9316 24.5979C18.8073 24.3268 18.7993 24.1319 18.7987 23.8339C18.7983 23.7811 18.7979 23.7283 18.7974 23.674C18.7964 23.5004 18.7971 23.3269 18.7979 23.1533C18.7977 23.0322 18.7975 22.9111 18.7972 22.79C18.7969 22.5365 18.7974 22.283 18.7985 22.0295C18.7998 21.7051 18.799 21.3807 18.7976 21.0562C18.7968 20.8062 18.797 20.5563 18.7976 20.3063C18.7978 20.1867 18.7976 20.067 18.7971 19.9474C18.7965 19.7801 18.7974 19.6128 18.7987 19.4455C18.7989 19.3503 18.7991 19.2552 18.7992 19.1573C18.8632 18.6156 19.05 18.4277 19.5626 18.4227Z" fill="#0C6399"/>
</g>
<defs>
<clipPath id="clip0_10162_47066">
<rect width="40" height="40" fill="white"/>
</clipPath>
</defs>
</svg>
