<svg width="100%" height="100%" viewBox="0 0 24 24" fill="none" xmlns="http://www.w3.org/2000/svg">
<path d="M19.9214 9.63983L20.8483 8.71282C21.5857 7.97537 22 6.97518 22 5.93228C22 4.88937 21.5857 3.88918 20.8483 3.15174C20.1109 2.41429 19.1108 2 18.0679 2C17.0251 2 16.0249 2.41429 15.2875 3.15174L14.3606 4.07875L5.83886 12.5989C5.26188 13.1769 4.97289 13.4659 4.7249 13.7839C4.43202 14.1592 4.18088 14.5652 3.97592 14.9949C3.80293 15.3589 3.67394 15.7469 3.41594 16.5209L2.32198 19.802M19.9214 9.63983C19.9214 9.63983 17.9524 9.52383 16.2145 7.7858C14.4765 6.04878 14.3616 4.07875 14.3616 4.07875M19.9214 9.63983L11.4007 18.1599C10.8237 18.737 10.5347 19.026 10.2167 19.274C9.84145 19.5669 9.4354 19.818 9.00574 20.023C8.64176 20.196 8.25477 20.325 7.4798 20.583L4.19892 21.677M4.19892 21.677L3.39695 21.945C3.21001 22.0077 3.00929 22.017 2.81735 21.9719C2.62542 21.9267 2.44988 21.829 2.31046 21.6895C2.17104 21.5501 2.07327 21.3745 2.02814 21.1826C1.98301 20.9907 1.99231 20.7899 2.05499 20.603L2.32298 19.801L4.19892 21.677Z" stroke="currentColor" stroke-width="2"/>
</svg>
