<svg width="32" height="32" viewBox="0 0 32 32" fill="none" xmlns="http://www.w3.org/2000/svg">
<path d="M30.628 21.9261L22.9151 18.4697C22.5656 18.32 22.1843 18.2598 21.8057 18.2945C21.4271 18.3293 21.0632 18.458 20.7468 18.6689C20.7148 18.6896 20.6842 18.7125 20.6554 18.7375L16.6243 22.1662C16.5824 22.189 16.5359 22.2017 16.4883 22.2034C16.4407 22.2051 16.3933 22.1957 16.35 22.176C13.7588 20.9253 11.0747 18.2574 9.81913 15.7022C9.79822 15.6596 9.78735 15.6126 9.78735 15.5651C9.78735 15.5176 9.79822 15.4706 9.81913 15.428L13.2592 11.3462C13.284 11.316 13.3069 11.2844 13.3278 11.2515C13.5358 10.9339 13.6614 10.5696 13.6934 10.1913C13.7253 9.81304 13.6625 9.43279 13.5107 9.08486L10.0787 1.38499C9.88383 0.930459 9.54677 0.551397 9.11814 0.304698C8.68951 0.0579998 8.19243 -0.0430279 7.7015 0.0167777C5.56792 0.297272 3.60947 1.34505 2.19213 2.96431C0.77479 4.58358 -0.0044535 6.66352 1.91474e-05 8.81546C1.91474e-05 21.5996 10.4004 32 23.1845 32C25.3363 32.0041 27.4161 31.2247 29.0353 29.8075C30.6544 28.3902 31.7023 26.4319 31.9831 24.2985C32.0428 23.8098 31.9432 23.315 31.699 22.8876C31.4548 22.4601 31.0792 22.1229 30.628 21.9261ZM23.1845 30.0407C11.4812 30.0407 1.95927 20.5187 1.95927 8.81546C1.95381 7.14019 2.55848 5.52023 3.6603 4.25825C4.76212 2.99628 6.28571 2.17863 7.94641 1.95807H7.98396C8.04976 1.9593 8.11365 1.98038 8.16725 2.01855C8.22086 2.05671 8.26169 2.11019 8.28438 2.17196L11.7294 9.86367C11.749 9.90643 11.7592 9.95294 11.7592 10C11.7592 10.0471 11.749 10.0936 11.7294 10.1363L8.28275 14.2279C8.25716 14.2572 8.2337 14.2883 8.21254 14.321C7.99687 14.6502 7.86987 15.0296 7.84384 15.4223C7.81781 15.8151 7.89363 16.2079 8.06396 16.5627C9.51218 19.5277 12.5 22.4927 15.4977 23.9409C15.8546 24.1103 16.2493 24.1843 16.6433 24.1557C17.0374 24.1271 17.4172 23.9968 17.7459 23.7776C17.7769 23.7564 17.808 23.7336 17.8374 23.7091L21.8669 20.2804C21.9067 20.259 21.9506 20.2465 21.9957 20.2436C22.0408 20.2408 22.086 20.2478 22.1281 20.264L29.8427 23.7205C29.9057 23.7473 29.9587 23.7933 29.9941 23.8519C30.0296 23.9105 30.0457 23.9788 30.0402 24.047C29.8208 25.7085 29.0039 27.2332 27.7422 28.3363C26.4805 29.4393 24.8604 30.0452 23.1845 30.0407Z" fill="#1D1B20"/>
</svg>
