<svg width="100%" height="100%" viewBox="0 0 41 40" fill="none" xmlns="http://www.w3.org/2000/svg">
<path d="M30.5002 21.6615H22.1668V29.9948C22.1668 30.4368 21.9912 30.8607 21.6787 31.1733C21.3661 31.4859 20.9422 31.6615 20.5002 31.6615C20.0581 31.6615 19.6342 31.4859 19.3217 31.1733C19.0091 30.8607 18.8335 30.4368 18.8335 29.9948V21.6615H10.5002C10.0581 21.6615 9.63421 21.4859 9.32165 21.1733C9.00909 20.8607 8.8335 20.4368 8.8335 19.9948C8.8335 19.5528 9.00909 19.1288 9.32165 18.8163C9.63421 18.5037 10.0581 18.3281 10.5002 18.3281H18.8335V9.99479C18.8335 9.55276 19.0091 9.12884 19.3217 8.81628C19.6342 8.50372 20.0581 8.32812 20.5002 8.32812C20.9422 8.32812 21.3661 8.50372 21.6787 8.81628C21.9912 9.12884 22.1668 9.55276 22.1668 9.99479V18.3281H30.5002C30.9422 18.3281 31.3661 18.5037 31.6787 18.8163C31.9912 19.1288 32.1668 19.5528 32.1668 19.9948C32.1668 20.4368 31.9912 20.8607 31.6787 21.1733C31.3661 21.4859 30.9422 21.6615 30.5002 21.6615Z" fill="currentColor"/>
</svg>
