<svg width="100%" height="100%" viewBox="0 0 24 24" fill="none" xmlns="http://www.w3.org/2000/svg">
<g clip-path="url(#clip0_4009_4502)">
<g clip-path="url(#clip1_4009_4502)">
<path d="M16.5938 3C16.9097 3 17.2226 3.06402 17.5146 3.1884C17.8065 3.31278 18.0718 3.49509 18.2952 3.72491C18.5187 3.95474 18.6959 4.22758 18.8168 4.52786C18.9378 4.82814 19 5.14998 19 5.475V18.525C19 18.85 18.9378 19.1719 18.8168 19.4721C18.6959 19.7724 18.5187 20.0453 18.2952 20.2751C18.0718 20.5049 17.8065 20.6872 17.5146 20.8116C17.2226 20.936 16.9097 21 16.5938 21H7.40625C7.09018 21 6.77721 20.936 6.48522 20.8115C6.19322 20.6871 5.92792 20.5047 5.70447 20.2748C5.48101 20.0449 5.30379 19.7719 5.18291 19.4715C5.06204 19.1711 4.99989 18.8492 5 18.5241V5.475C5 4.341 5.74025 3.387 6.75 3.0927V4.575C6.484 4.7802 6.3125 5.106 6.3125 5.475V18.5232C6.3125 19.1442 6.8025 19.6482 7.40625 19.6482H16.5938C17.1975 19.6482 17.6875 19.1442 17.6875 18.5232V5.475C17.6875 4.854 17.1975 4.35 16.5938 4.35H14.625V3H16.5938ZM13.75 3V10.3251C13.75 10.9974 13.05 11.2494 12.6213 11.0127L12.5495 10.9659L10.6892 9.8094L8.871 10.9353C8.4335 11.2593 7.70725 11.0613 7.63113 10.4331L7.625 10.326V3H13.75ZM12.4375 4.35H8.9375V9.3207L10.3139 8.4666C10.4235 8.40664 10.5452 8.3735 10.6693 8.36975C10.7934 8.366 10.9167 8.39175 11.0296 8.445L12.4384 9.3216V4.35H12.4375Z" fill="currentColor" stroke="currentColor" stroke-width="0.3"/>
</g>
</g>
<defs>
<clipPath id="clip0_4009_4502">
<rect width="100%" height="100%" fill="currentColor"/>
</clipPath>
<clipPath id="clip1_4009_4502">
<rect width="100%" height="100%" fill="currentColor"/>
</clipPath>
</defs>
</svg>
