<svg xmlns="http://www.w3.org/2000/svg"  viewBox="0 0 18 18" fill="none">
<path d="M13.805 1.36038C13.6907 1.2461 13.555 1.15546 13.4057 1.09362C13.2563 1.03179 13.0963 0.999974 12.9346 1H2.77769C2.54423 0.99995 2.31304 1.0459 2.09734 1.13522C1.88164 1.22454 1.68565 1.35548 1.52056 1.52056C1.35548 1.68565 1.22454 1.88164 1.13522 2.09734C1.0459 2.31304 0.99995 2.54423 1 2.77769V15.2223C0.99995 15.4558 1.0459 15.687 1.13522 15.9027C1.22454 16.1184 1.35548 16.3144 1.52056 16.4794C1.68565 16.6445 1.88164 16.7755 2.09734 16.8648C2.31304 16.9541 2.54423 17.0001 2.77769 17H15.2223C15.6933 16.9986 16.1447 16.8108 16.4778 16.4778C16.8108 16.1447 16.9986 15.6933 17 15.2223V5.06538C17 4.90375 16.9682 4.74369 16.9064 4.59435C16.8445 4.44501 16.7539 4.30931 16.6396 4.195L13.805 1.36038ZM9 15.1538C8.51315 15.1538 8.03724 15.0095 7.63244 14.739C7.22765 14.4685 6.91214 14.0841 6.72583 13.6343C6.53953 13.1845 6.49078 12.6896 6.58576 12.2121C6.68074 11.7346 6.91518 11.296 7.25943 10.9517C7.60368 10.6075 8.04229 10.373 8.51978 10.2781C8.99727 10.1831 9.4922 10.2318 9.94199 10.4181C10.3918 10.6045 10.7762 10.92 11.0467 11.3248C11.3172 11.7295 11.4615 12.2055 11.4615 12.6923C11.4619 13.0157 11.3986 13.3359 11.275 13.6348C11.1514 13.9336 10.9701 14.2051 10.7415 14.4338C10.5128 14.6624 10.2413 14.8437 9.94247 14.9673C9.64364 15.0909 9.32337 15.1543 9 15.1538ZM10.8462 6.53846H3.46154C3.29833 6.53846 3.1418 6.47363 3.0264 6.35822C2.91099 6.24281 2.84615 6.08629 2.84615 5.92308V3.46154C2.84615 3.29833 2.91099 3.1418 3.0264 3.0264C3.1418 2.91099 3.29833 2.84615 3.46154 2.84615H10.8462C11.0094 2.84615 11.1659 2.91099 11.2813 3.0264C11.3967 3.1418 11.4615 3.29833 11.4615 3.46154V5.92308C11.4615 6.08629 11.3967 6.24281 11.2813 6.35822C11.1659 6.47363 11.0094 6.53846 10.8462 6.53846Z" stroke="currentColor" stroke-width="1.3" stroke-linecap="round" stroke-linejoin="round"/>
</svg>