<svg width="100%" height="100%" viewBox="0 0 24 24" fill="none" xmlns="http://www.w3.org/2000/svg">
<path d="M14.392 2.81775C14.3514 2.65557 14.2577 2.51161 14.1259 2.40874C13.9941 2.30588 13.8317 2.25 13.6645 2.25H10.3345C10.1673 2.25 10.0049 2.30588 9.87313 2.40874C9.74132 2.51161 9.64766 2.65557 9.60703 2.81775L9.11203 4.80075C9.0876 4.89829 9.0438 4.98991 8.98324 5.07018C8.92269 5.15045 8.84661 5.21772 8.75953 5.268L7.79128 5.82825C7.70403 5.8786 7.60753 5.91087 7.50753 5.92311C7.40754 5.93535 7.30611 5.92732 7.20928 5.8995L5.24428 5.337C5.08333 5.29086 4.91156 5.29991 4.75634 5.3627C4.60112 5.4255 4.47138 5.53842 4.38778 5.6835L2.72353 8.5665C2.63989 8.71137 2.60708 8.88004 2.63032 9.0457C2.65356 9.21135 2.73151 9.36449 2.85178 9.48075L4.32178 10.902C4.39414 10.9719 4.45168 11.0557 4.49098 11.1484C4.53028 11.241 4.55053 11.3406 4.55053 11.4413V12.5588C4.55063 12.6595 4.53043 12.7593 4.49113 12.852C4.45182 12.9448 4.39423 13.0287 4.32178 13.0988L2.85178 14.5192C2.73145 14.6357 2.65353 14.789 2.63043 14.9548C2.60732 15.1206 2.64036 15.2894 2.72428 15.4343L4.38778 18.3165C4.47146 18.4613 4.60113 18.574 4.75618 18.6366C4.91123 18.6992 5.08276 18.7083 5.24353 18.6622L7.20103 18.1027C7.3003 18.0743 7.40436 18.0667 7.50671 18.0804C7.60905 18.0941 7.70746 18.1288 7.79578 18.1823L8.51803 18.6202C8.6702 18.7127 8.78451 18.8563 8.84053 19.0253L9.57853 21.2377C9.62842 21.387 9.724 21.5168 9.85174 21.6087C9.97948 21.7007 10.1329 21.7501 10.2903 21.75H13.7088C13.8663 21.75 14.0197 21.7005 14.1475 21.6084C14.2752 21.5164 14.3708 21.3864 14.4205 21.237L15.157 19.0267C15.2137 18.8566 15.3294 18.7124 15.4833 18.6202L16.2198 18.18C16.308 18.1272 16.4061 18.0931 16.508 18.0798C16.6099 18.0665 16.7135 18.0743 16.8123 18.1027L18.7548 18.6615C18.9157 18.7077 19.0874 18.6988 19.2426 18.6361C19.3978 18.5735 19.5276 18.4607 19.6113 18.3157L21.2778 15.4297C21.361 15.2857 21.3939 15.118 21.3713 14.9532C21.3488 14.7884 21.2721 14.6357 21.1533 14.5192L19.7035 13.0972C19.6324 13.0275 19.5759 12.9443 19.5372 12.8525C19.4986 12.7607 19.4786 12.6621 19.4785 12.5625V11.4375C19.4786 11.3379 19.4986 11.2393 19.5372 11.1475C19.5759 11.0557 19.6324 10.9725 19.7035 10.9027L21.1533 9.48075C21.2721 9.36429 21.3488 9.21163 21.3713 9.0468C21.3939 8.88197 21.361 8.71433 21.2778 8.57025L19.6113 5.68425C19.5275 5.53945 19.3976 5.42683 19.2424 5.36432C19.0872 5.3018 18.9156 5.29298 18.7548 5.33925L16.8048 5.8995C16.7083 5.92733 16.6072 5.9355 16.5075 5.92352C16.4077 5.91154 16.3114 5.87965 16.2243 5.82975L15.2418 5.26725C15.154 5.21711 15.0772 5.14974 15.0162 5.06919C14.9551 4.98863 14.9109 4.89656 14.8863 4.7985L14.392 2.81775Z" stroke="currentColor" stroke-width="2" stroke-linejoin="round"/>
<path d="M15.75 12C15.75 12.9946 15.3549 13.9484 14.6517 14.6517C13.9484 15.3549 12.9946 15.75 12 15.75C11.0054 15.75 10.0516 15.3549 9.34835 14.6517C8.64509 13.9484 8.25 12.9946 8.25 12C8.25 11.0054 8.64509 10.0516 9.34835 9.34835C10.0516 8.64509 11.0054 8.25 12 8.25C12.9946 8.25 13.9484 8.64509 14.6517 9.34835C15.3549 10.0516 15.75 11.0054 15.75 12Z" stroke="currentColor" stroke-width="2" stroke-linejoin="round"/>
</svg>
