<svg width="100%" height="100%" viewBox="0 0 32 32" fill="none" xmlns="http://www.w3.org/2000/svg">
<path d="M0 16C0 24.8366 7.16344 32 16 32C24.8366 32 32 24.8366 32 16C32 7.16344 24.8366 0 16 0C7.16344 0 0 7.16344 0 16Z" fill="#F24D57"/>
<path d="M16 13.3371C14.5257 13.3371 13.3371 14.5371 13.3371 16C13.3371 17.4629 14.5371 18.6629 16 18.6629C17.4629 18.6629 18.6629 17.4629 18.6629 16C18.6629 14.5371 17.4629 13.3371 16 13.3371ZM24 16C24 14.8914 24 13.8057 23.9429 12.6971C23.8857 11.4171 23.5886 10.2743 22.6514 9.34857C21.7143 8.41143 20.5829 8.11429 19.3029 8.05714C18.1943 8 17.1086 8 16 8C14.8914 8 13.8057 8 12.6971 8.05714C11.4171 8.11429 10.2743 8.41143 9.34857 9.34857C8.41143 10.2857 8.11429 11.4171 8.05714 12.6971C8 13.8057 8 14.8914 8 16C8 17.1086 8 18.1943 8.05714 19.3029C8.11429 20.5829 8.41143 21.7257 9.34857 22.6514C10.2857 23.5886 11.4171 23.8857 12.6971 23.9429C13.8057 24 14.8914 24 16 24C17.1086 24 18.1943 24 19.3029 23.9429C20.5829 23.8857 21.7257 23.5886 22.6514 22.6514C23.5886 21.7143 23.8857 20.5829 23.9429 19.3029C24.0114 18.2057 24 17.1086 24 16ZM16 20.1029C13.7257 20.1029 11.8971 18.2743 11.8971 16C11.8971 13.7257 13.7257 11.8971 16 11.8971C18.2743 11.8971 20.1029 13.7257 20.1029 16C20.1029 18.2743 18.2743 20.1029 16 20.1029ZM20.2743 12.6857C19.7486 12.6857 19.3143 12.2629 19.3143 11.7257C19.3143 11.1886 19.7371 10.7657 20.2743 10.7657C20.8114 10.7657 21.2343 11.1886 21.2343 11.7257C21.2372 11.8509 21.2143 11.9753 21.1671 12.0913C21.12 12.2073 21.0495 12.3124 20.96 12.4C20.8724 12.4895 20.7673 12.56 20.6513 12.6071C20.5353 12.6543 20.4109 12.6772 20.2857 12.6743L20.2743 12.6857Z" fill="white"/>
</svg>
