<svg width="100%" height="100%" viewBox="0 0 32 32" fill="none" xmlns="http://www.w3.org/2000/svg">
<path d="M0 16C0 24.8366 7.16344 32 16 32C24.8366 32 32 24.8366 32 16C32 7.16344 24.8366 0 16 0C7.16344 0 0 7.16344 0 16Z" fill="#B166CC"/>
<path d="M11.965 15.0925C13.045 17.215 14.785 18.9475 16.9075 20.035L18.5575 18.385C18.76 18.1825 19.06 18.115 19.3225 18.205C20.1625 18.4825 21.07 18.6325 22 18.6325C22.4125 18.6325 22.75 18.97 22.75 19.3825V22C22.75 22.4125 22.4125 22.75 22 22.75C14.9575 22.75 9.25 17.0425 9.25 10C9.25 9.5875 9.5875 9.25 10 9.25H12.625C13.0375 9.25 13.375 9.5875 13.375 10C13.375 10.9375 13.525 11.8375 13.8025 12.6775C13.885 12.94 13.825 13.2325 13.615 13.4425L11.965 15.0925Z" fill="white" stroke="white"/>
</svg>
