<svg width="100%" height="100%" viewBox="0 0 32 32" fill="none" xmlns="http://www.w3.org/2000/svg">
<path d="M0 16C0 24.8366 7.16344 32 16 32C24.8366 32 32 24.8366 32 16C32 7.16344 24.8366 0 16 0C7.16344 0 0 7.16344 0 16Z" fill="#DBC553"/>
<path d="M16 7C12.1404 7 9.00007 10.1403 9.00007 13.9956C8.9747 19.6349 15.734 24.3108 16 24.4998C16 24.4998 23.0253 19.6349 22.9999 13.9999C22.9999 10.1403 19.8596 7 16 7ZM16 17.4999C14.0663 17.4999 12.5 15.9337 12.5 13.9999C12.5 12.0662 14.0663 10.5 16 10.5C17.9337 10.5 19.5 12.0662 19.5 13.9999C19.5 15.9337 17.9337 17.4999 16 17.4999Z" fill="white"/>
</svg>
