<svg width="100%" height="100%" viewBox="0 0 32 32" fill="none" xmlns="http://www.w3.org/2000/svg">
<path d="M0 16C0 24.8366 7.16344 32 16 32C24.8366 32 32 24.8366 32 16C32 7.16344 24.8366 0 16 0C7.16344 0 0 7.16344 0 16Z" fill="#1D1B20"/>
<path fill-rule="evenodd" clip-rule="evenodd" d="M15.9755 8.19531C11.5719 8.19531 8 11.7672 8 16.1708C8 19.6938 10.2997 22.6785 13.4312 23.7549C13.8226 23.8039 13.9694 23.5592 13.9694 23.3635C13.9694 23.1678 13.9694 22.6785 13.9694 21.9935C11.7676 22.4828 11.2783 20.917 11.2783 20.917C10.9358 19.9874 10.3976 19.7427 10.3976 19.7427C9.66361 19.2534 10.4465 19.2534 10.4465 19.2534C11.2294 19.3023 11.6697 20.0852 11.6697 20.0852C12.4037 21.3085 13.5291 20.966 13.9694 20.7702C14.0183 20.232 14.263 19.8895 14.4587 19.6938C12.6972 19.4981 10.8379 18.813 10.8379 15.7305C10.8379 14.8497 11.1315 14.1647 11.6697 13.5776C11.6208 13.4308 11.3272 12.599 11.7676 11.5225C11.7676 11.5225 12.4526 11.3268 13.9694 12.3543C14.6055 12.1586 15.2905 12.1097 15.9755 12.1097C16.6606 12.1097 17.3456 12.2075 17.9817 12.3543C19.4985 11.3268 20.1835 11.5225 20.1835 11.5225C20.6239 12.599 20.3303 13.4308 20.2813 13.6265C20.7706 14.1647 21.1131 14.8987 21.1131 15.7794C21.1131 18.862 19.2538 19.4981 17.4924 19.6938C17.7859 19.9384 18.0306 20.4277 18.0306 21.1617C18.0306 22.2381 18.0306 23.0699 18.0306 23.3635C18.0306 23.5592 18.1774 23.8039 18.5688 23.7549C21.7492 22.6785 24 19.6938 24 16.1708C23.9511 11.7672 20.3792 8.19531 15.9755 8.19531Z" fill="white"/>
</svg>
