<svg width="100%" height="100%" viewBox="0 0 32 32" fill="none" xmlns="http://www.w3.org/2000/svg">
<path d="M0 16C0 24.8366 7.16344 32 16 32C24.8366 32 32 24.8366 32 16C32 7.16344 24.8366 0 16 0C7.16344 0 0 7.16344 0 16Z" fill="#3B788B"/>
<path d="M16 8C14.4178 8 12.871 8.46919 11.5554 9.34824C10.2398 10.2273 9.21447 11.4767 8.60897 12.9385C8.00347 14.4003 7.84504 16.0089 8.15372 17.5607C8.4624 19.1126 9.22433 20.538 10.3431 21.6569C11.462 22.7757 12.8874 23.5376 14.4393 23.8463C15.9911 24.155 17.5997 23.9965 19.0615 23.391C20.5233 22.7855 21.7727 21.7602 22.6518 20.4446C23.5308 19.129 24 17.5822 24 16C23.9976 13.879 23.1539 11.8456 21.6542 10.3458C20.1544 8.84608 18.121 8.00244 16 8ZM22.7692 16C22.7698 16.6243 22.6836 17.2456 22.5131 17.8462H19.5508C19.7395 16.6226 19.7395 15.3774 19.5508 14.1538H22.5131C22.6836 14.7544 22.7698 15.3757 22.7692 16ZM14 19.0769H18C17.606 20.3682 16.9219 21.5522 16 22.5385C15.0786 21.5519 14.3945 20.3679 14 19.0769ZM13.7 17.8462C13.4887 16.6245 13.4887 15.3755 13.7 14.1538H18.3062C18.5175 15.3755 18.5175 16.6245 18.3062 17.8462H13.7ZM9.23077 16C9.23023 15.3757 9.31644 14.7544 9.48693 14.1538H12.4492C12.2605 15.3774 12.2605 16.6226 12.4492 17.8462H9.48693C9.31644 17.2456 9.23023 16.6243 9.23077 16ZM18 12.9231H14C14.394 11.6318 15.0781 10.4478 16 9.46154C16.9214 10.4481 17.6055 11.6321 18 12.9231ZM22.0254 12.9231H19.2854C18.94 11.6561 18.358 10.4659 17.57 9.41538C18.5221 9.6441 19.4135 10.076 20.183 10.6814C20.9526 11.2869 21.5821 12.0516 22.0285 12.9231H22.0254ZM14.43 9.41538C13.642 10.4659 13.06 11.6561 12.7146 12.9231H9.97154C10.4179 12.0516 11.0474 11.2869 11.817 10.6814C12.5865 10.076 13.4779 9.6441 14.43 9.41538ZM9.97154 19.0769H12.7146C13.06 20.3439 13.642 21.5341 14.43 22.5846C13.4779 22.3559 12.5865 21.924 11.817 21.3186C11.0474 20.7131 10.4179 19.9484 9.97154 19.0769ZM17.57 22.5846C18.358 21.5341 18.94 20.3439 19.2854 19.0769H22.0285C21.5821 19.9484 20.9526 20.7131 20.183 21.3186C19.4135 21.924 18.5221 22.3559 17.57 22.5846Z" fill="white"/>
</svg>
