<svg width="100%" height="100%" viewBox="0 0 22 16" fill="none" xmlns="http://www.w3.org/2000/svg">
<path d="M1.25 0.5C1.05109 0.5 0.860322 0.579018 0.71967 0.71967C0.579018 0.860322 0.5 1.05109 0.5 1.25C0.5 1.44891 0.579018 1.63968 0.71967 1.78033C0.860322 1.92098 1.05109 2 1.25 2H20.75C20.9489 2 21.1397 1.92098 21.2803 1.78033C21.421 1.63968 21.5 1.44891 21.5 1.25C21.5 1.05109 21.421 0.860322 21.2803 0.71967C21.1397 0.579018 20.9489 0.5 20.75 0.5H1.25ZM1.25 5C1.05109 5 0.860322 5.07902 0.71967 5.21967C0.579018 5.36032 0.5 5.55109 0.5 5.75C0.5 5.94891 0.579018 6.13968 0.71967 6.28033C0.860322 6.42098 1.05109 6.5 1.25 6.5H20.75C20.9489 6.5 21.1397 6.42098 21.2803 6.28033C21.421 6.13968 21.5 5.94891 21.5 5.75C21.5 5.55109 21.421 5.36032 21.2803 5.21967C21.1397 5.07902 20.9489 5 20.75 5H1.25ZM0.5 10.25C0.5 10.0511 0.579018 9.86032 0.71967 9.71967C0.860322 9.57902 1.05109 9.5 1.25 9.5H20.75C20.9489 9.5 21.1397 9.57902 21.2803 9.71967C21.421 9.86032 21.5 10.0511 21.5 10.25C21.5 10.4489 21.421 10.6397 21.2803 10.7803C21.1397 10.921 20.9489 11 20.75 11H1.25C1.05109 11 0.860322 10.921 0.71967 10.7803C0.579018 10.6397 0.5 10.4489 0.5 10.25ZM1.25 14C1.05109 14 0.860322 14.079 0.71967 14.2197C0.579018 14.3603 0.5 14.5511 0.5 14.75C0.5 14.9489 0.579018 15.1397 0.71967 15.2803C0.860322 15.421 1.05109 15.5 1.25 15.5H14.75C14.9489 15.5 15.1397 15.421 15.2803 15.2803C15.421 15.1397 15.5 14.9489 15.5 14.75C15.5 14.5511 15.421 14.3603 15.2803 14.2197C15.1397 14.079 14.9489 14 14.75 14H1.25Z" fill="currentColor"/>
</svg>
