<svg width="32" height="34" viewBox="0 0 32 34" fill="none" xmlns="http://www.w3.org/2000/svg">
<path d="M31.1542 0.63649C30.8258 0.317849 30.4296 0.109179 30.0078 0.032664C29.5861 -0.0438506 29.1544 0.0146507 28.7588 0.201948L1.4575 13.0832C1.01632 13.2951 0.640722 13.6588 0.380556 14.1261C0.12039 14.5933 -0.0120356 15.142 0.000859773 15.6992C0.0137552 16.2565 0.171361 16.796 0.452756 17.2461C0.73415 17.6962 1.12602 18.0357 1.57635 18.2194L7.46723 20.6094L10.6595 32.9439C10.6656 32.9689 10.6854 32.9849 10.6946 33.008C10.7279 33.1062 10.7759 33.1966 10.8363 33.2752C10.9292 33.395 11.0482 33.4831 11.1807 33.5298C11.1959 33.537 11.2066 33.553 11.2218 33.5566H11.2309L11.2355 33.5583C11.3534 33.5878 11.4759 33.5804 11.5905 33.537L11.6286 33.5281C11.7386 33.4826 11.8382 33.4083 11.9197 33.3108C11.9288 33.2983 11.9441 33.2965 11.9532 33.2859L16.5443 27.3626L23.2443 33.4265C23.6512 33.7988 24.1525 34 24.669 34C25.7875 34 26.752 33.0846 26.9821 31.8077L31.9526 3.28114C32.0375 2.79686 32.008 2.29474 31.8673 1.82856C31.7267 1.36237 31.4801 0.949689 31.1542 0.634709M12.325 22.9513L11.2477 29.0722L9.00014 20.385L20.1465 13.5997L12.5322 22.5007C12.4269 22.624 12.3549 22.7806 12.325 22.9513ZM25.4888 31.4497C25.4602 31.6112 25.3966 31.7614 25.304 31.8858C25.2114 32.0103 25.0929 32.1048 24.9601 32.1603C24.8303 32.2178 24.6901 32.2351 24.5529 32.2108C24.4157 32.1865 24.2862 32.1213 24.1769 32.0214L16.9192 25.4516C16.7674 25.3148 16.5772 25.2497 16.3862 25.2695C16.1953 25.2893 16.0178 25.3925 15.8891 25.5585L12.6938 29.6742L13.7695 23.571L24.7239 10.7663C24.8522 10.6159 24.9302 10.4168 24.944 10.205C24.9577 9.99324 24.9062 9.78269 24.7988 9.61137C24.6914 9.44005 24.5352 9.31925 24.3582 9.27075C24.1813 9.22225 23.9954 9.24926 23.834 9.34691L8.04322 18.9602L2.07462 16.5346C1.91686 16.4727 1.77933 16.3552 1.68086 16.1984C1.5824 16.0415 1.5278 15.8529 1.52454 15.6584C1.5165 15.4619 1.56123 15.2672 1.65248 15.1018C1.74374 14.9364 1.87695 14.8085 2.03348 14.7359L29.3302 1.85463C29.4703 1.78599 29.6238 1.76396 29.7739 1.79099C29.9239 1.81802 30.0647 1.89306 30.1805 2.00779C30.2958 2.116 30.3828 2.25975 30.4318 2.42278C30.4808 2.5858 30.4898 2.7616 30.4578 2.9303L25.4888 31.4497Z" fill="#1D1B20"/>
</svg>
