<svg width="10" height="6" viewBox="0 0 10 6" fill="none" xmlns="http://www.w3.org/2000/svg">
<path d="M9.04973 1.39115e-06L0.949499 6.83003e-07C0.867487 0.000229558 0.787099 0.0203712 0.716987 0.0582559C0.646875 0.096141 0.589695 0.150335 0.551599 0.215005C0.513504 0.279676 0.495937 0.352373 0.500789 0.425272C0.505641 0.498171 0.53273 0.568512 0.579137 0.628722L4.62925 5.83801C4.79711 6.054 5.20122 6.054 5.36952 5.83801L9.41964 0.628723C9.46652 0.568638 9.49401 0.498262 9.49913 0.425242C9.50424 0.352221 9.48679 0.279348 9.44866 0.214541C9.41053 0.149734 9.35318 0.0954704 9.28285 0.0576467C9.21252 0.019823 9.13189 -0.000113519 9.04973 1.39115e-06Z" fill="currentColor" fill-opacity="0.7"/>
</svg>
