<svg width="40" height="40" viewBox="0 0 40 40" fill="none" xmlns="http://www.w3.org/2000/svg">
<g clip-path="url(#clip0_10201_9330)">
<path d="M9.33888 -0.00884639C9.40896 -0.00919466 9.47904 -0.00954293 9.55124 -0.00990175C9.66626 -0.00988014 9.66626 -0.00988014 9.78361 -0.0098581C9.90616 -0.010289 9.90616 -0.010289 10.0312 -0.0107285C10.3059 -0.0115912 10.5806 -0.0118911 10.8552 -0.0121886C11.0518 -0.012678 11.2484 -0.0131973 11.445 -0.0137443C12.0356 -0.0152466 12.6262 -0.0160747 13.2167 -0.0167699C13.495 -0.0171126 13.7733 -0.0175318 14.0516 -0.0179409C14.977 -0.0192699 15.9024 -0.0204022 16.8278 -0.0209682C17.0679 -0.0211174 17.3079 -0.0212674 17.548 -0.0214202C17.6077 -0.021458 17.6673 -0.0214958 17.7288 -0.0215347C18.695 -0.022183 19.6611 -0.0241621 20.6272 -0.0267C21.6197 -0.0292857 22.6122 -0.0306909 23.6047 -0.0309404C24.1617 -0.0311093 24.7187 -0.03179 25.2757 -0.0337889C25.7999 -0.0356656 26.324 -0.0359386 26.8482 -0.0351357C27.0403 -0.035097 27.2325 -0.0355913 27.4247 -0.0366635C27.6875 -0.0380477 27.9503 -0.0374926 28.2131 -0.0364656C28.3265 -0.0377511 28.3265 -0.0377511 28.4423 -0.0390625C29.118 -0.0327092 29.7321 0.144427 30.2244 0.62664C30.289 0.688374 30.3537 0.750108 30.4203 0.813712C30.4894 0.880885 30.5585 0.948057 30.6297 1.01726C30.7481 1.12736 30.8673 1.23657 30.9866 1.34575C31.6515 1.95477 32.3082 2.57274 32.9669 3.18844C33.474 3.66239 33.9814 4.13595 34.492 4.60613C34.9273 5.00695 35.359 5.41148 35.7903 5.81657C36.1553 6.1591 36.5221 6.49949 36.8903 6.83849C37.2633 7.18207 37.6343 7.52773 38.0041 7.87477C38.2432 8.09884 38.4835 8.32088 38.7284 8.53863C39.3645 9.10649 39.9484 9.65019 40.0246 10.5496C40.0248 10.6334 40.025 10.7172 40.0252 10.8036C40.0258 10.9008 40.0264 10.998 40.027 11.0982C40.0269 11.2055 40.0268 11.3128 40.0266 11.4201C40.027 11.5345 40.0275 11.649 40.028 11.7634C40.0293 12.0777 40.0296 12.3919 40.0297 12.7062C40.03 13.0452 40.0311 13.3842 40.0322 13.7233C40.0343 14.4645 40.0353 15.2057 40.0359 15.9469C40.0364 16.4099 40.037 16.8729 40.0377 17.3359C40.0396 18.6183 40.0413 19.9006 40.0418 21.183C40.0418 21.265 40.0419 21.3471 40.0419 21.4316C40.0419 21.5138 40.042 21.5961 40.042 21.6808C40.0421 21.8475 40.0421 22.0141 40.0422 22.1808C40.0422 22.2635 40.0423 22.3461 40.0423 22.4313C40.0429 23.7704 40.0457 25.1095 40.0493 26.4486C40.053 27.8241 40.0549 29.1996 40.0551 30.575C40.0553 31.347 40.0562 32.1191 40.059 32.8911C40.0614 33.5486 40.0622 34.206 40.0609 34.8635C40.0603 35.1987 40.0604 35.5339 40.0626 35.8692C40.0646 36.1766 40.0644 36.4839 40.0626 36.7913C40.0622 36.902 40.0627 37.0128 40.0641 37.1235C40.0742 37.9986 39.8804 38.7082 39.2869 39.3718C38.5905 39.9928 37.8225 40.0585 36.9253 40.0507C36.8049 40.0511 36.6845 40.0517 36.5641 40.0524C36.2353 40.0539 35.9066 40.0529 35.5777 40.0516C35.2224 40.0505 34.867 40.0517 34.5116 40.0526C33.8162 40.0541 33.1209 40.0534 32.4255 40.052C31.8603 40.0509 31.2951 40.0506 30.7298 40.0509C30.6493 40.0509 30.5687 40.0509 30.4858 40.051C30.3222 40.0511 30.1585 40.0511 29.9949 40.0512C28.5491 40.0519 27.1033 40.0506 25.6575 40.0483C24.2553 40.046 22.8532 40.0455 21.451 40.0467C19.9231 40.048 18.3953 40.0483 16.8674 40.0469C16.7044 40.0468 16.5414 40.0466 16.3784 40.0465C16.2983 40.0464 16.2181 40.0464 16.1355 40.0463C15.571 40.0458 15.0066 40.0461 14.4421 40.0466C13.7541 40.0472 13.0661 40.0467 12.378 40.0447C12.0271 40.0438 11.6763 40.0433 11.3254 40.0442C11.0039 40.0449 10.6824 40.0443 10.361 40.0425C10.2449 40.0421 10.1289 40.0422 10.0129 40.0429C9.06127 40.0482 8.36308 39.9071 7.65939 39.2433C7.27568 38.799 7.02591 38.2495 7.02652 37.6615C7.02636 37.5417 7.02636 37.5417 7.02619 37.4194C7.02648 37.3319 7.02676 37.2443 7.02705 37.1541C7.02703 37.0619 7.02702 36.9697 7.02701 36.8746C7.02706 36.6217 7.02745 36.3688 7.02799 36.1159C7.02848 35.8516 7.02853 35.5873 7.02862 35.3229C7.02886 34.8224 7.0295 34.3219 7.03029 33.8214C7.03116 33.2516 7.03159 32.6817 7.03198 32.1119C7.0328 30.9397 7.03417 29.7676 7.03592 28.5954C6.94214 28.597 6.94214 28.597 6.84647 28.5985C6.25353 28.608 5.66062 28.6151 5.06761 28.6197C4.76284 28.6221 4.45812 28.6254 4.15338 28.6308C3.85855 28.6359 3.56379 28.6387 3.26893 28.6399C3.15718 28.6407 3.04543 28.6424 2.9337 28.645C2.04038 28.6646 1.31648 28.4864 0.634548 27.8776C0.0702268 27.2291 -0.0530534 26.5378 -0.0446397 25.7017C-0.0451987 25.6036 -0.0457577 25.5056 -0.0463337 25.4045C-0.0474208 25.1382 -0.0467775 24.8719 -0.0452328 24.6056C-0.0439425 24.3254 -0.0446425 24.0453 -0.045039 23.7651C-0.045391 23.2951 -0.0441597 22.825 -0.0419694 22.355C-0.0394636 21.813 -0.0394678 21.2712 -0.0408143 20.7293C-0.0420573 20.2057 -0.0415257 19.6822 -0.0401944 19.1586C-0.0396603 18.9368 -0.0397358 18.7149 -0.0403154 18.4931C-0.0410298 18.1829 -0.0391454 17.8728 -0.0370103 17.5626C-0.0375201 17.4715 -0.03803 17.3805 -0.0385553 17.2866C-0.0297675 16.5336 0.183443 15.8719 0.70779 15.3141C1.49597 14.6495 2.32755 14.5763 3.32803 14.5881C3.43551 14.5886 3.54299 14.5889 3.65047 14.5891C3.93073 14.59 4.21095 14.5923 4.49119 14.5949C4.77821 14.5973 5.06523 14.5984 5.35226 14.5996C5.91349 14.6021 6.4747 14.6061 7.03592 14.611C7.03563 14.5465 7.03534 14.482 7.03504 14.4155C7.02813 12.844 7.02297 11.2725 7.01972 9.70098C7.01811 8.94099 7.01592 8.18102 7.01234 7.42104C7.00922 6.75843 7.00721 6.09583 7.00651 5.43322C7.00611 5.08255 7.00515 4.73191 7.00287 4.38125C7.00074 4.05075 7.0001 3.72028 7.00057 3.38977C7.00048 3.26891 6.99987 3.14804 6.99866 3.02718C6.98949 2.05895 7.11885 1.34422 7.79977 0.625114C8.24886 0.224958 8.73596 -0.00745274 9.33888 -0.00884639ZM8.44217 1.64226C8.15789 2.10929 8.11983 2.55521 8.12027 3.09289C8.12016 3.19476 8.12006 3.29664 8.11994 3.40161C8.12022 3.51354 8.12051 3.62548 8.1208 3.73741C8.12082 3.85601 8.12081 3.97461 8.12076 4.09322C8.12074 4.4144 8.1212 4.73557 8.12174 5.05675C8.12223 5.3927 8.12228 5.72865 8.12237 6.0646C8.12261 6.70041 8.12325 7.33622 8.12404 7.97203C8.12491 8.69603 8.12534 9.42003 8.12573 10.144C8.12655 11.633 8.12792 13.122 8.12967 14.611C8.23242 14.6112 8.33518 14.6114 8.44105 14.6116C10.8818 14.6161 13.3225 14.6217 15.7633 14.6289C16.0639 14.6298 16.3645 14.6307 16.6651 14.6315C16.7249 14.6317 16.7847 14.6319 16.8464 14.632C17.8146 14.6348 18.7828 14.6367 19.7509 14.6384C20.7448 14.6401 21.7387 14.6427 22.7326 14.6461C23.3456 14.6481 23.9586 14.6495 24.5716 14.65C25.0421 14.6505 25.5126 14.6522 25.9831 14.6543C26.1758 14.655 26.3684 14.6553 26.5611 14.6552C26.8246 14.655 27.0881 14.6563 27.3516 14.658C27.4654 14.6574 27.4654 14.6574 27.5814 14.6568C28.368 14.665 29.0348 14.8416 29.614 15.3923C30.2489 16.0747 30.3524 16.7849 30.3475 17.6927C30.3481 17.8352 30.3481 17.8352 30.3487 17.9805C30.3496 18.2391 30.3494 18.4977 30.3486 18.7563C30.348 19.0281 30.3486 19.2999 30.349 19.5717C30.3494 20.028 30.3488 20.4842 30.3477 20.9405C30.3464 21.4665 30.3469 21.9925 30.3481 22.5185C30.3492 22.9718 30.3494 23.425 30.3487 23.8783C30.3484 24.1483 30.3483 24.4183 30.3491 24.6883C30.3499 24.9895 30.3488 25.2906 30.3475 25.5919C30.348 25.6803 30.3484 25.7687 30.3489 25.8598C30.3421 26.7178 30.1421 27.3485 29.5359 27.9704C28.9382 28.4446 28.3603 28.5405 27.6147 28.539C27.4896 28.5397 27.4896 28.5397 27.3621 28.5404C27.0828 28.5417 26.8036 28.5419 26.5243 28.5422C26.3241 28.5429 26.1239 28.5437 25.9238 28.5446C25.4928 28.5462 25.0618 28.5475 24.6308 28.5483C24.0077 28.5494 23.3846 28.5514 22.7614 28.5536C21.7504 28.5571 20.7394 28.56 19.7284 28.5624C18.7464 28.5648 17.7644 28.5675 16.7824 28.5706C16.7218 28.5708 16.6613 28.571 16.5989 28.5712C16.2951 28.5721 15.9913 28.5731 15.6876 28.5741C13.1683 28.5822 10.649 28.5892 8.12967 28.5954C8.12601 29.7356 8.12326 30.8759 8.12157 32.0161C8.12076 32.5456 8.11967 33.0751 8.11788 33.6046C8.11615 34.1157 8.11524 34.6268 8.11484 35.1379C8.11455 35.3328 8.11399 35.5276 8.11314 35.7225C8.11201 35.9957 8.11185 36.2689 8.11193 36.5422C8.11137 36.6225 8.1108 36.7028 8.11022 36.7855C8.11209 37.4374 8.17023 37.9939 8.59842 38.5173C9.02913 38.8493 9.32413 38.9175 9.85805 38.9182C9.9568 38.9185 10.0556 38.9188 10.1573 38.9191C10.2671 38.919 10.3769 38.9189 10.4867 38.9189C10.6032 38.9191 10.7197 38.9193 10.8361 38.9196C11.1567 38.9202 11.4772 38.9203 11.7978 38.9204C12.1433 38.9205 12.4888 38.9211 12.8343 38.9217C13.5901 38.9227 14.3458 38.9232 15.1016 38.9235C15.5734 38.9237 16.0452 38.9241 16.517 38.9244C17.8231 38.9254 19.1291 38.9262 20.4352 38.9265C20.5188 38.9265 20.6024 38.9265 20.6885 38.9265C20.8143 38.9265 20.8142 38.9265 20.9425 38.9266C21.1123 38.9266 21.2821 38.9266 21.452 38.9267C21.5783 38.9267 21.5783 38.9267 21.7072 38.9267C23.0723 38.927 24.4374 38.9284 25.8025 38.9302C27.2038 38.9321 28.605 38.933 30.0062 38.9331C30.7931 38.9332 31.58 38.9336 32.3668 38.9351C33.0368 38.9363 33.7068 38.9367 34.3768 38.936C34.7187 38.9357 35.0605 38.9358 35.4023 38.9369C35.7154 38.9379 36.0284 38.9378 36.3415 38.9368C36.4546 38.9367 36.5678 38.9369 36.6809 38.9376C37.6202 38.953 37.6202 38.953 38.444 38.5475C38.4788 38.5037 38.5137 38.4599 38.5496 38.4147C38.5856 38.3715 38.6217 38.3283 38.6588 38.2838C38.8733 37.932 38.9304 37.5875 38.9304 37.1809C38.9307 37.0865 38.9311 36.992 38.9314 36.8947C38.931 36.7916 38.9306 36.6885 38.9302 36.5823C38.9304 36.4711 38.9305 36.36 38.9308 36.2489C38.9313 35.9438 38.9308 35.6387 38.9302 35.3337C38.9297 35.0046 38.9301 34.6755 38.9303 34.3463C38.9307 33.7018 38.9303 33.0573 38.9296 32.4128C38.9288 31.6627 38.9288 30.9126 38.9288 30.1625C38.9288 28.8246 38.9281 27.4868 38.927 26.1489C38.9259 24.8496 38.9253 23.5504 38.9254 22.2512C38.9254 22.1311 38.9254 22.1311 38.9254 22.0086C38.9254 21.8887 38.9254 21.8887 38.9254 21.7664C38.9255 20.2883 38.925 18.8103 38.9243 17.3322C38.9241 16.8089 38.924 16.2856 38.924 15.7622C38.9239 15.125 38.9235 14.4879 38.9228 13.8507C38.9225 13.5253 38.9222 13.2 38.9223 12.8747C38.9224 12.5773 38.9221 12.2799 38.9216 11.9825C38.9214 11.8745 38.9214 11.7665 38.9216 11.6585C38.9217 11.5125 38.9214 11.3665 38.921 11.2205C38.9209 11.0985 38.9209 11.0985 38.9208 10.9741C38.9237 10.7824 38.9237 10.7824 38.8328 10.6266C38.7329 10.6264 38.633 10.6261 38.5301 10.6258C37.5865 10.6229 36.6428 10.6184 35.6992 10.6123C35.2141 10.6092 34.7291 10.6067 34.244 10.6055C33.7754 10.6043 33.3069 10.6016 32.8383 10.5979C32.66 10.5967 32.4817 10.5961 32.3034 10.596C32.0526 10.5958 31.8019 10.5937 31.5512 10.5912C31.4783 10.5916 31.4054 10.5919 31.3303 10.5924C30.5861 10.5807 29.9052 10.37 29.358 9.85088C29.0148 9.43847 28.7472 8.89928 28.7423 8.35764C28.7412 8.26151 28.7412 8.26151 28.74 8.16344C28.7395 8.09342 28.7391 8.0234 28.7386 7.95126C28.7379 7.87731 28.7371 7.80336 28.7363 7.72717C28.7338 7.48242 28.7319 7.23767 28.7299 6.99291C28.7283 6.82334 28.7267 6.65377 28.725 6.48421C28.7207 6.03764 28.7169 5.59106 28.7131 5.14449C28.7092 4.6889 28.7048 4.23332 28.7005 3.77773C28.6921 2.88362 28.6842 1.98951 28.6765 1.09539C26.2275 1.09004 23.7785 1.08589 21.3295 1.08342C21.0404 1.08313 20.7512 1.08282 20.4621 1.08252C20.4045 1.08245 20.3469 1.08239 20.2876 1.08233C19.3556 1.08131 18.4237 1.07946 17.4917 1.07731C16.5353 1.07511 15.579 1.07381 14.6226 1.07334C14.0325 1.07302 13.4425 1.072 12.8524 1.0701C12.3998 1.06871 11.9473 1.06856 11.4947 1.06888C11.3091 1.06882 11.1236 1.06835 10.938 1.06745C10.6846 1.06629 10.4313 1.06657 10.178 1.0672C10.1045 1.06652 10.031 1.06584 9.95532 1.06514C9.34915 1.06928 8.88972 1.20714 8.44217 1.64226ZM29.7703 1.87664C29.7648 2.69093 29.7607 3.50521 29.7581 4.31951C29.7569 4.69766 29.7553 5.0758 29.7526 5.45395C29.7501 5.81918 29.7487 6.18439 29.7481 6.54963C29.7476 6.68867 29.7468 6.82771 29.7455 6.96674C29.7438 7.16214 29.7436 7.3575 29.7437 7.55291C29.7428 7.60983 29.742 7.66676 29.7411 7.72541C29.7442 8.23334 29.8594 8.65776 30.1902 9.04949C30.7426 9.5098 31.2205 9.54499 31.9246 9.54176C31.9902 9.54177 32.0558 9.54178 32.1234 9.54179C32.339 9.54174 32.5546 9.54113 32.7702 9.54052C32.9201 9.54037 33.0701 9.54026 33.2201 9.54018C33.6138 9.53989 34.0076 9.53912 34.4014 9.53825C34.8036 9.53745 35.2058 9.5371 35.608 9.5367C36.3965 9.53587 37.1849 9.53454 37.9734 9.53289C37.8997 9.4458 37.8259 9.35886 37.752 9.27196C37.7109 9.22353 37.6698 9.1751 37.6274 9.12519C37.4587 8.93395 37.2748 8.76526 37.0847 8.59539C37.0026 8.52131 36.9205 8.44715 36.8385 8.37292C36.7949 8.33353 36.7513 8.29414 36.7064 8.25355C36.4506 8.02038 36.1991 7.78275 35.947 7.54559C35.5677 7.1891 35.1874 6.83373 34.8045 6.48113C34.1934 5.91843 33.5868 5.35086 32.98 4.78359C32.429 4.26861 31.8776 3.75412 31.3226 3.24341C31.0937 3.03261 30.8656 2.82091 30.6385 2.60815C30.5882 2.56107 30.5378 2.514 30.4859 2.4655C30.388 2.37383 30.2901 2.28202 30.1925 2.19004C30.008 1.97588 30.008 1.97588 29.7703 1.87664ZM1.42556 16.32C1.0656 16.8342 1.07555 17.3172 1.07696 17.9237C1.07656 18.0128 1.07616 18.1019 1.07575 18.1937C1.07466 18.4878 1.07474 18.7819 1.07492 19.076C1.07461 19.2807 1.07427 19.4855 1.0739 19.6902C1.07326 20.1191 1.07333 20.548 1.07375 20.9769C1.07423 21.4718 1.07326 21.9667 1.0716 22.4616C1.07005 22.9388 1.06982 23.416 1.07009 23.8932C1.07005 24.0958 1.06965 24.2983 1.06886 24.5009C1.06789 24.7842 1.06842 25.0674 1.06933 25.3507C1.06873 25.4342 1.06813 25.5177 1.06752 25.6038C1.07208 26.2496 1.18814 26.7051 1.64529 27.1891C2.0248 27.4548 2.32804 27.5113 2.78532 27.5119C2.91956 27.5124 2.91956 27.5124 3.05652 27.5128C3.15489 27.5128 3.25326 27.5127 3.35461 27.5126C3.46014 27.5128 3.56566 27.5131 3.67118 27.5133C3.96143 27.5139 4.25168 27.5141 4.54194 27.5141C4.85487 27.5143 5.16781 27.5149 5.48074 27.5154C6.16515 27.5165 6.84955 27.5169 7.53395 27.5173C7.96126 27.5175 8.38858 27.5178 8.81589 27.5182C9.99891 27.5191 11.1819 27.5199 12.365 27.5202C12.4785 27.5202 12.4785 27.5202 12.5944 27.5203C12.7083 27.5203 12.7083 27.5203 12.8244 27.5203C12.9782 27.5203 13.132 27.5204 13.2858 27.5204C13.4003 27.5204 13.4003 27.5204 13.517 27.5205C14.7533 27.5208 15.9896 27.5221 17.2259 27.524C18.495 27.5258 19.7642 27.5268 21.0333 27.5269C21.746 27.5269 22.4586 27.5274 23.1712 27.5288C23.7781 27.53 24.3849 27.5304 24.9917 27.5298C25.3012 27.5295 25.6108 27.5295 25.9204 27.5306C26.2039 27.5316 26.4875 27.5315 26.771 27.5306C26.9219 27.5304 27.0727 27.5313 27.2235 27.5323C27.8415 27.5287 28.3289 27.4948 28.8181 27.0817C29.0932 26.7516 29.2524 26.5119 29.2542 26.0755C29.2556 25.9538 29.2556 25.9538 29.2569 25.8296C29.2567 25.7414 29.2565 25.6532 29.2562 25.5623C29.2569 25.4688 29.2575 25.3752 29.2582 25.2789C29.2597 25.0228 29.2602 24.7668 29.26 24.5108C29.26 24.2967 29.2607 24.0826 29.2614 23.8684C29.2629 23.3629 29.2631 22.8574 29.2626 22.3519C29.262 21.8315 29.2638 21.3111 29.2667 20.7907C29.2691 20.343 29.27 19.8954 29.2697 19.4477C29.2695 19.1807 29.27 18.9137 29.2719 18.6467C29.2736 18.3486 29.2729 18.0506 29.2715 17.7526C29.2725 17.6648 29.2736 17.5771 29.2746 17.4867C29.2689 16.954 29.1919 16.5799 28.8328 16.1735C28.4522 15.8767 28.1742 15.7733 27.6973 15.7724C27.6068 15.7721 27.5163 15.7717 27.4231 15.7713C27.3232 15.7714 27.2234 15.7714 27.1205 15.7714C27.0137 15.7711 26.9069 15.7708 26.8001 15.7705C26.5059 15.7697 26.2118 15.7694 25.9176 15.7692C25.6007 15.7689 25.2837 15.7682 24.9667 15.7675C24.2009 15.766 23.4351 15.7652 22.6693 15.7645C22.3088 15.7641 21.9483 15.7637 21.5878 15.7633C20.3896 15.762 19.1914 15.7608 17.9933 15.7603C17.6823 15.7601 17.3713 15.76 17.0603 15.7598C16.983 15.7598 16.9057 15.7598 16.8261 15.7597C15.5736 15.7591 14.3211 15.7571 13.0686 15.7545C11.7831 15.752 10.4976 15.7506 9.21213 15.7503C8.4902 15.7501 7.76827 15.7495 7.04634 15.7475C6.4316 15.7458 5.81687 15.7451 5.20213 15.7459C4.88846 15.7463 4.5748 15.7461 4.26113 15.7446C3.97389 15.7432 3.6867 15.7433 3.39947 15.7445C3.24648 15.7448 3.0935 15.7435 2.94053 15.7422C2.28864 15.747 1.87792 15.8237 1.42556 16.32Z" fill="#0C6399"/>
<path d="M13.6475 18.3582C13.9983 18.6669 14.2701 19.0362 14.5508 19.408C14.5948 19.4656 14.6389 19.5233 14.6843 19.5827C14.9232 19.897 15.1515 20.2144 15.3662 20.5457C15.8016 20.0304 16.2083 19.5043 16.5947 18.9517C16.9408 18.4577 16.9408 18.4577 17.1875 18.3777C17.4402 18.3542 17.5681 18.3895 17.7881 18.5144C17.9298 18.6948 17.9449 18.7982 17.9407 19.0271C17.8311 19.4222 17.5971 19.697 17.3486 20.0183C17.2491 20.1507 17.1496 20.2832 17.0502 20.4157C16.8922 20.6237 16.7331 20.8307 16.5729 21.037C16.5227 21.1037 16.4726 21.1703 16.4209 21.239C16.3782 21.2936 16.3355 21.3482 16.2915 21.4044C16.2068 21.5631 16.2068 21.5631 16.2692 21.7474C16.4045 21.9931 16.5632 22.2014 16.7383 22.4207C17.0189 22.7786 17.2949 23.1389 17.5586 23.5095C17.6159 23.5892 17.6732 23.6688 17.7322 23.7509C17.8738 23.9963 17.9282 24.1702 17.9443 24.4519C17.8271 24.6765 17.8271 24.6765 17.6318 24.8425C17.3633 24.8914 17.3633 24.8914 17.085 24.8425C16.7175 24.5291 16.4575 24.1373 16.1816 23.7439C15.8116 23.2069 15.8116 23.2069 15.3662 22.7332C15.2063 22.9396 15.0469 23.1463 14.8877 23.3533C14.841 23.414 14.7943 23.4746 14.7461 23.5372C14.4722 23.8952 14.2105 24.2545 13.9792 24.642C13.8578 24.7946 13.751 24.8525 13.5693 24.9207C13.3298 24.906 13.1606 24.8786 12.9541 24.7546C12.8127 24.519 12.8422 24.3314 12.8662 24.0613C12.9704 23.8734 13.0674 23.7248 13.1982 23.5584C13.2324 23.5124 13.2666 23.4664 13.3018 23.4191C13.5007 23.1528 13.7068 22.8926 13.9136 22.6325C13.9571 22.5768 14.0005 22.5212 14.0453 22.4638C14.1305 22.3551 14.217 22.2474 14.3049 22.1408C14.5342 21.8652 14.5342 21.8652 14.5627 21.5259C14.3681 21.2368 14.161 20.9608 13.9453 20.6873C13.8535 20.5684 13.7617 20.4495 13.67 20.3305C13.522 20.1391 13.3735 19.9481 13.2245 19.7574C13.0059 19.4655 12.8769 19.2781 12.8125 18.9148C12.9167 18.4411 13.1683 18.2702 13.6475 18.3582Z" fill="#0C6399"/>
<path d="M11.6951 18.6707C11.7267 18.9552 11.7413 19.1421 11.5895 19.3903C11.2607 19.6124 10.9293 19.563 10.5428 19.5496C10.4275 19.5475 10.4275 19.5475 10.3099 19.5453C10.1205 19.5416 9.93131 19.5365 9.742 19.53C9.7427 19.592 9.74339 19.6539 9.7441 19.7178C9.75037 20.3017 9.75513 20.8856 9.75819 21.4696C9.75982 21.7698 9.76204 22.07 9.76558 22.3702C9.76897 22.66 9.77084 22.9497 9.77165 23.2395C9.77223 23.35 9.77336 23.4605 9.77504 23.571C9.77731 23.7259 9.77744 23.8807 9.77748 24.0356C9.77817 24.1237 9.77887 24.2118 9.77958 24.3026C9.7334 24.5821 9.65304 24.6736 9.4295 24.8425C9.17169 24.8801 9.02351 24.8755 8.79207 24.754C8.64825 24.6082 8.64825 24.6082 8.61067 24.3872C8.61137 24.2975 8.61206 24.2078 8.61278 24.1154C8.61281 23.9629 8.61281 23.9629 8.61285 23.8074C8.61444 23.6964 8.61607 23.5854 8.61773 23.4744C8.61832 23.3609 8.61876 23.2474 8.61907 23.1339C8.62027 22.8352 8.62334 22.5367 8.62679 22.238C8.62999 21.9333 8.63142 21.6285 8.63299 21.3237C8.63634 20.7258 8.64168 20.1279 8.64825 19.53C8.60019 19.5317 8.55213 19.5333 8.50261 19.535C8.28424 19.5415 8.0659 19.5456 7.84747 19.5496C7.77184 19.5522 7.69621 19.5548 7.61828 19.5575C7.05951 19.5652 7.05951 19.5652 6.80102 19.39C6.64698 19.1391 6.65848 18.9586 6.69513 18.6707C6.82297 18.4922 6.89405 18.4426 7.11173 18.4041C7.18335 18.4027 7.25497 18.4014 7.32877 18.4C7.41014 18.398 7.4915 18.3959 7.57534 18.3938C7.70717 18.3923 7.70717 18.3923 7.84167 18.3908C7.93213 18.389 8.0226 18.3873 8.1158 18.3854C8.30736 18.382 8.49893 18.379 8.6905 18.3766C8.98322 18.3728 9.27584 18.3669 9.56851 18.3608C9.75461 18.3576 9.94072 18.3546 10.1268 18.3518C10.258 18.3491 10.258 18.3491 10.3917 18.3464C11.3611 18.3367 11.3611 18.3367 11.6951 18.6707Z" fill="#0C6399"/>
<path d="M24.3514 18.6707C24.383 18.9552 24.3975 19.1421 24.2458 19.3903C23.917 19.6124 23.5856 19.563 23.199 19.5496C23.0838 19.5475 23.0838 19.5475 22.9662 19.5453C22.7768 19.5416 22.5876 19.5365 22.3983 19.53C22.3989 19.592 22.3996 19.6539 22.4004 19.7178C22.4066 20.3017 22.4114 20.8856 22.4144 21.4696C22.4161 21.7698 22.4183 22.07 22.4218 22.3702C22.4252 22.66 22.4271 22.9497 22.4279 23.2395C22.4285 23.35 22.4296 23.4605 22.4313 23.571C22.4336 23.7259 22.4337 23.8807 22.4337 24.0356C22.4344 24.1237 22.4351 24.2118 22.4358 24.3026C22.3897 24.5821 22.3093 24.6736 22.0858 24.8425C21.8279 24.8801 21.6798 24.8755 21.4483 24.754C21.3045 24.6082 21.3045 24.6082 21.2669 24.3872C21.2676 24.2975 21.2683 24.2078 21.269 24.1154C21.2691 23.9629 21.2691 23.9629 21.2691 23.8074C21.2707 23.6964 21.2723 23.5854 21.274 23.4744C21.2746 23.3609 21.275 23.2474 21.2753 23.1339C21.2765 22.8352 21.2796 22.5367 21.283 22.238C21.2862 21.9333 21.2877 21.6285 21.2892 21.3237C21.2926 20.7258 21.2979 20.1279 21.3045 19.53C21.2564 19.5317 21.2084 19.5333 21.1589 19.535C20.9405 19.5415 20.7221 19.5456 20.5037 19.5496C20.4281 19.5522 20.3525 19.5548 20.2745 19.5575C19.7158 19.5652 19.7158 19.5652 19.4573 19.39C19.3032 19.1391 19.3147 18.9586 19.3514 18.6707C19.4792 18.4922 19.5503 18.4426 19.768 18.4041C19.8396 18.4027 19.9112 18.4014 19.985 18.4C20.0664 18.398 20.1478 18.3959 20.2316 18.3938C20.3634 18.3923 20.3634 18.3923 20.4979 18.3908C20.5884 18.389 20.6788 18.3873 20.7721 18.3854C20.9636 18.382 21.1552 18.379 21.3468 18.3766C21.6395 18.3728 21.9321 18.3669 22.2248 18.3608C22.4109 18.3576 22.597 18.3546 22.7831 18.3518C22.9142 18.3491 22.9142 18.3491 23.048 18.3464C24.0174 18.3367 24.0174 18.3367 24.3514 18.6707Z" fill="#0C6399"/>
</g>
<defs>
<clipPath id="clip0_10201_9330">
<rect width="40" height="40" fill="white"/>
</clipPath>
</defs>
</svg>
