<svg width="100%" height="100%" viewBox="0 0 23 18" fill="none" xmlns="http://www.w3.org/2000/svg">
<path d="M16.3564 17H21.3564V15C21.3564 14.3765 21.1621 13.7686 20.8006 13.2606C20.4391 12.7527 19.9283 12.37 19.3392 12.1658C18.7501 11.9615 18.1121 11.9459 17.5137 12.121C16.9153 12.2962 16.3864 12.6534 16.0004 13.143L16.3564 17ZM16.3564 17H6.35645H16.3564ZM16.3564 17V15C16.3564 14.344 16.2304 13.717 16.0004 13.143L16.3564 17ZM6.35645 17H1.35645V15C1.35649 14.3765 1.55078 13.7686 1.91231 13.2606C2.27383 12.7527 2.78463 12.37 3.3737 12.1658C3.96276 11.9615 4.60082 11.9459 5.19918 12.121C5.79754 12.2962 6.32647 12.6534 6.71245 13.143L6.35645 17ZM6.35645 17V15C6.35645 14.344 6.48245 13.717 6.71245 13.143L6.35645 17ZM6.71245 13.143C7.0838 12.215 7.72469 11.4195 8.55245 10.8591C9.38021 10.2988 10.3569 9.9993 11.3564 9.9993C12.356 9.9993 13.3327 10.2988 14.1604 10.8591C14.9882 11.4195 15.6291 12.215 16.0004 13.143H6.71245ZM14.3564 4C14.3564 4.79565 14.0404 5.55871 13.4778 6.12132C12.9152 6.68393 12.1521 7 11.3564 7C10.5608 7 9.79773 6.68393 9.23512 6.12132C8.67252 5.55871 8.35645 4.79565 8.35645 4C8.35645 3.20435 8.67252 2.44129 9.23512 1.87868C9.79773 1.31607 10.5608 1 11.3564 1C12.1521 1 12.9152 1.31607 13.4778 1.87868C14.0404 2.44129 14.3564 3.20435 14.3564 4V4ZM20.3564 7C20.3564 7.53043 20.1457 8.03914 19.7707 8.41421C19.3956 8.78929 18.8869 9 18.3564 9C17.826 9 17.3173 8.78929 16.9422 8.41421C16.5672 8.03914 16.3564 7.53043 16.3564 7C16.3564 6.46957 16.5672 5.96086 16.9422 5.58579C17.3173 5.21071 17.826 5 18.3564 5C18.8869 5 19.3956 5.21071 19.7707 5.58579C20.1457 5.96086 20.3564 6.46957 20.3564 7ZM6.35645 7C6.35645 7.53043 6.14573 8.03914 5.77066 8.41421C5.39559 8.78929 4.88688 9 4.35645 9C3.82601 9 3.3173 8.78929 2.94223 8.41421C2.56716 8.03914 2.35645 7.53043 2.35645 7C2.35645 6.46957 2.56716 5.96086 2.94223 5.58579C3.3173 5.21071 3.82601 5 4.35645 5C4.88688 5 5.39559 5.21071 5.77066 5.58579C6.14573 5.96086 6.35645 6.46957 6.35645 7Z" stroke="currentColor" stroke-width="2" stroke-linecap="round" stroke-linejoin="round"/>
</svg>
