<svg width="14.5" height="14.5" viewBox="0 0 17 16" fill="none" xmlns="http://www.w3.org/2000/svg">
<path d="M8.5 1.94706C9.08025 1.28964 9.9292 0.875 10.875 0.875C12.6239 0.875 14.0417 2.29276 14.0417 4.04167C14.0417 5.79057 12.6239 7.20833 10.875 7.20833C9.9292 7.20833 9.08025 6.79369 8.5 6.13628M10.875 15.125H1.375V14.3333C1.375 11.71 3.50165 9.58333 6.125 9.58333C8.74835 9.58333 10.875 11.71 10.875 14.3333V15.125ZM10.875 15.125H15.625V14.3333C15.625 11.71 13.4984 9.58333 10.875 9.58333C10.0098 9.58333 9.19866 9.81465 8.5 10.2188M9.29167 4.04167C9.29167 5.79057 7.8739 7.20833 6.125 7.20833C4.3761 7.20833 2.95833 5.79057 2.95833 4.04167C2.95833 2.29276 4.3761 0.875 6.125 0.875C7.8739 0.875 9.29167 2.29276 9.29167 4.04167Z" stroke="#656575" stroke-opacity="0.7" stroke-width="1.3" stroke-linecap="round" stroke-linejoin="round"/>
</svg>
