<svg width="40" height="40" viewBox="0 0 40 40" fill="none" xmlns="http://www.w3.org/2000/svg">
<g clip-path="url(#clip0_10162_47061)">
<path d="M9.33107 -0.00884639C9.40115 -0.00919466 9.47123 -0.00954293 9.54343 -0.00990175C9.65845 -0.00988014 9.65845 -0.00988014 9.77579 -0.0098581C9.89835 -0.010289 9.89835 -0.010289 10.0234 -0.0107285C10.2981 -0.0115912 10.5727 -0.0118911 10.8474 -0.0121886C11.044 -0.012678 11.2406 -0.0131973 11.4372 -0.0137443C12.0278 -0.0152466 12.6183 -0.0160747 13.2089 -0.0167699C13.4872 -0.0171126 13.7655 -0.0175318 14.0438 -0.0179409C14.9692 -0.0192699 15.8946 -0.0204022 16.82 -0.0209682C17.0601 -0.0211174 17.3001 -0.0212674 17.5402 -0.0214202C17.5999 -0.021458 17.6595 -0.0214958 17.721 -0.0215347C18.6871 -0.022183 19.6533 -0.0241621 20.6194 -0.0267C21.6119 -0.0292857 22.6044 -0.0306909 23.5969 -0.0309404C24.1539 -0.0311093 24.7109 -0.03179 25.2679 -0.0337889C25.7921 -0.0356656 26.3162 -0.0359386 26.8404 -0.0351357C27.0325 -0.035097 27.2247 -0.0355913 27.4169 -0.0366635C27.6797 -0.0380477 27.9424 -0.0374926 28.2053 -0.0364656C28.3187 -0.0377511 28.3187 -0.0377511 28.4345 -0.0390625C29.1847 -0.0320084 29.7752 0.193569 30.3094 0.719413C30.3896 0.796767 30.4698 0.874078 30.5501 0.951347C30.5889 0.989314 30.6276 1.02728 30.6675 1.0664C30.8221 1.21614 30.983 1.35824 31.1443 1.50066C31.564 1.87718 31.9732 2.26463 32.3832 2.65165C32.7221 2.97142 33.0622 3.28968 33.4051 3.60515C34.0147 4.1661 34.6195 4.73211 35.2247 5.29781C35.7725 5.80987 36.3212 6.32095 36.8729 6.8289C37.2683 7.19348 37.6606 7.5614 38.0519 7.93041C38.2941 8.15836 38.5371 8.3845 38.7865 8.60454C39.4065 9.1527 39.9434 9.68291 40.0168 10.5496C40.017 10.6334 40.0172 10.7172 40.0174 10.8036C40.018 10.9008 40.0186 10.998 40.0192 11.0982C40.0191 11.2055 40.0189 11.3128 40.0188 11.4201C40.0192 11.5345 40.0197 11.649 40.0202 11.7634C40.0215 12.0777 40.0217 12.3919 40.0219 12.7062C40.0221 13.0452 40.0233 13.3842 40.0244 13.7233C40.0265 14.4645 40.0274 15.2057 40.0281 15.9469C40.0286 16.4099 40.0292 16.8729 40.0299 17.3359C40.0318 18.6183 40.0334 19.9006 40.034 21.183C40.034 21.265 40.034 21.3471 40.0341 21.4316C40.0341 21.5138 40.0341 21.5961 40.0342 21.6808C40.0342 21.8475 40.0343 22.0141 40.0344 22.1808C40.0344 22.2635 40.0345 22.3461 40.0345 22.4313C40.0351 23.7704 40.0378 25.1095 40.0415 26.4486C40.0452 27.8241 40.0471 29.1996 40.0473 30.575C40.0475 31.347 40.0484 32.1191 40.0512 32.8911C40.0536 33.5486 40.0544 34.206 40.0531 34.8635C40.0525 35.1987 40.0526 35.5339 40.0548 35.8692C40.0568 36.1766 40.0566 36.4839 40.0547 36.7913C40.0544 36.902 40.0549 37.0128 40.0563 37.1235C40.0664 37.9986 39.8725 38.7082 39.2791 39.3718C38.5827 39.9928 37.8147 40.0585 36.9175 40.0507C36.7971 40.0511 36.6767 40.0517 36.5563 40.0524C36.2275 40.0539 35.8987 40.0529 35.5699 40.0516C35.2146 40.0505 34.8592 40.0517 34.5038 40.0526C33.8084 40.0541 33.1131 40.0534 32.4177 40.052C31.8525 40.0509 31.2872 40.0506 30.722 40.0509C30.6415 40.0509 30.5609 40.0509 30.478 40.051C30.3143 40.0511 30.1507 40.0511 29.9871 40.0512C28.5413 40.0519 27.0955 40.0506 25.6497 40.0483C24.2475 40.046 22.8454 40.0455 21.4432 40.0467C19.9153 40.048 18.3874 40.0483 16.8596 40.0469C16.6966 40.0468 16.5336 40.0466 16.3706 40.0465C16.2904 40.0464 16.2103 40.0464 16.1276 40.0463C15.5632 40.0458 14.9987 40.0461 14.4343 40.0466C13.7463 40.0472 13.0582 40.0467 12.3702 40.0447C12.0193 40.0438 11.6685 40.0433 11.3176 40.0442C10.9961 40.0449 10.6746 40.0443 10.3532 40.0425C10.2371 40.0421 10.1211 40.0422 10.0051 40.0429C9.05346 40.0482 8.35527 39.9071 7.65158 39.2433C7.26787 38.799 7.0181 38.2495 7.01871 37.6615C7.01855 37.5417 7.01855 37.5417 7.01838 37.4194C7.01866 37.3319 7.01894 37.2443 7.01923 37.1541C7.01922 37.0619 7.01921 36.9697 7.0192 36.8746C7.01924 36.6217 7.01964 36.3688 7.02018 36.1159C7.02067 35.8516 7.02072 35.5873 7.02081 35.3229C7.02105 34.8224 7.02169 34.3219 7.02248 33.8214C7.02335 33.2516 7.02378 32.6817 7.02417 32.1119C7.02499 30.9397 7.02636 29.7676 7.0281 28.5954C6.93433 28.597 6.93433 28.597 6.83866 28.5985C6.24571 28.608 5.6528 28.6151 5.0598 28.6197C4.75502 28.6221 4.45031 28.6254 4.14557 28.6308C3.85074 28.6359 3.55598 28.6387 3.26111 28.6399C3.14936 28.6407 3.03762 28.6424 2.92589 28.645C2.03257 28.6646 1.30867 28.4864 0.626736 27.8776C0.0624143 27.2291 -0.0608659 26.5378 -0.0524522 25.7017C-0.0530112 25.6036 -0.0535702 25.5056 -0.0541462 25.4045C-0.0552333 25.1382 -0.05459 24.8719 -0.0530453 24.6056C-0.051755 24.3254 -0.052455 24.0453 -0.0528515 23.7651C-0.0532035 23.2951 -0.0519722 22.825 -0.0497819 22.355C-0.0472761 21.813 -0.0472803 21.2712 -0.0486268 20.7293C-0.0498698 20.2057 -0.0493382 19.6822 -0.0480069 19.1586C-0.0474728 18.9368 -0.0475483 18.7149 -0.0481279 18.4931C-0.0488423 18.1829 -0.0469579 17.8728 -0.0448228 17.5626C-0.0453326 17.4715 -0.0458425 17.3805 -0.0463678 17.2866C-0.0400112 16.7419 0.0413666 16.3371 0.309353 15.861C0.344198 15.7987 0.379043 15.7363 0.414944 15.6721C0.807034 15.1273 1.33117 14.801 1.98359 14.6435C2.42014 14.5729 2.86399 14.5923 3.30496 14.5958C3.41266 14.596 3.52037 14.5963 3.62807 14.5964C3.9096 14.597 4.19112 14.5985 4.47265 14.6003C4.7607 14.6019 5.04876 14.6026 5.33682 14.6034C5.90059 14.6051 6.46434 14.6077 7.0281 14.611C7.02781 14.5465 7.02753 14.482 7.02723 14.4155C7.02032 12.844 7.01515 11.2725 7.01191 9.70098C7.0103 8.94099 7.00811 8.18102 7.00453 7.42104C7.00141 6.75843 6.9994 6.09583 6.9987 5.43322C6.99829 5.08255 6.99734 4.73191 6.99506 4.38125C6.99293 4.05075 6.99229 3.72028 6.99276 3.38977C6.99267 3.26891 6.99206 3.14804 6.99085 3.02718C6.98168 2.05895 7.11103 1.34422 7.79196 0.625114C8.24105 0.224958 8.72815 -0.00745274 9.33107 -0.00884639ZM8.4783 1.6032C8.1721 2.09312 8.11199 2.51411 8.11246 3.09289C8.11235 3.19476 8.11224 3.29664 8.11213 3.40161C8.11241 3.51354 8.11269 3.62548 8.11298 3.73741C8.11301 3.85601 8.11299 3.97461 8.11295 4.09322C8.11293 4.4144 8.11339 4.73557 8.11393 5.05675C8.11442 5.3927 8.11447 5.72865 8.11456 6.0646C8.1148 6.70041 8.11544 7.33622 8.11623 7.97203C8.1171 8.69603 8.11753 9.42003 8.11792 10.144C8.11874 11.633 8.12011 13.122 8.12185 14.611C8.22461 14.6112 8.32737 14.6114 8.43324 14.6116C10.874 14.6161 13.3147 14.6217 15.7555 14.6289C16.0561 14.6298 16.3566 14.6307 16.6572 14.6315C16.7171 14.6317 16.7769 14.6319 16.8386 14.632C17.8068 14.6348 18.7749 14.6367 19.7431 14.6384C20.737 14.6401 21.7309 14.6427 22.7248 14.6461C23.3378 14.6481 23.9508 14.6495 24.5638 14.65C25.0343 14.6505 25.5048 14.6522 25.9753 14.6543C26.1679 14.655 26.3606 14.6553 26.5533 14.6552C26.8168 14.655 27.0803 14.6563 27.3438 14.658C27.4576 14.6574 27.4576 14.6574 27.5736 14.6568C28.3601 14.665 29.027 14.8416 29.6062 15.3923C30.2411 16.0747 30.3445 16.7849 30.3397 17.6927C30.3403 17.8352 30.3403 17.8352 30.3409 17.9805C30.3418 18.2391 30.3416 18.4977 30.3408 18.7563C30.3402 19.0281 30.3408 19.2999 30.3412 19.5717C30.3416 20.028 30.341 20.4842 30.3399 20.9405C30.3386 21.4665 30.339 21.9925 30.3403 22.5185C30.3414 22.9718 30.3415 23.425 30.3409 23.8783C30.3406 24.1483 30.3405 24.4183 30.3413 24.6883C30.3421 24.9895 30.341 25.2906 30.3397 25.5919C30.3402 25.6803 30.3406 25.7687 30.3411 25.8598C30.3343 26.7178 30.1343 27.3485 29.5281 27.9704C28.9304 28.4446 28.3525 28.5405 27.6068 28.539C27.4818 28.5397 27.4818 28.5397 27.3543 28.5404C27.075 28.5417 26.7958 28.5419 26.5165 28.5422C26.3163 28.5429 26.1161 28.5437 25.9159 28.5446C25.485 28.5462 25.054 28.5475 24.623 28.5483C23.9999 28.5494 23.3768 28.5514 22.7536 28.5536C21.7426 28.5571 20.7316 28.56 19.7206 28.5624C18.7385 28.5648 17.7565 28.5675 16.7745 28.5706C16.714 28.5708 16.6534 28.571 16.5911 28.5712C16.2873 28.5721 15.9835 28.5731 15.6797 28.5741C13.1605 28.5822 10.6412 28.5892 8.12185 28.5954C8.1182 29.7356 8.11544 30.8759 8.11376 32.0161C8.11295 32.5456 8.11186 33.0751 8.11007 33.6046C8.10834 34.1157 8.10743 34.6268 8.10703 35.1379C8.10674 35.3328 8.10618 35.5276 8.10533 35.7225C8.1042 35.9957 8.10404 36.2689 8.10411 36.5422C8.10355 36.6225 8.10299 36.7028 8.10241 36.7855C8.10437 37.469 8.17422 38.0846 8.66873 38.5954C9.09039 38.8536 9.43923 38.9176 9.92736 38.9182C10.0259 38.9185 10.1244 38.9188 10.2259 38.9191C10.3355 38.919 10.445 38.9189 10.5546 38.9189C10.6708 38.9191 10.787 38.9193 10.9032 38.9196C11.223 38.9202 11.5428 38.9203 11.8626 38.9204C12.2073 38.9205 12.5521 38.9211 12.8968 38.9217C13.6508 38.9227 14.4047 38.9232 15.1587 38.9235C15.6293 38.9237 16.1 38.9241 16.5707 38.9244C17.8734 38.9254 19.1762 38.9262 20.479 38.9265C20.5624 38.9265 20.6458 38.9265 20.7317 38.9265C20.8571 38.9265 20.8571 38.9265 20.985 38.9266C21.1544 38.9266 21.3238 38.9266 21.4932 38.9267C21.5772 38.9267 21.6612 38.9267 21.7478 38.9267C23.1097 38.927 24.4716 38.9284 25.8334 38.9302C27.2312 38.9321 28.629 38.933 30.0268 38.9331C30.8118 38.9332 31.5967 38.9336 32.3817 38.9351C33.0501 38.9363 33.7184 38.9367 34.3868 38.936C34.7278 38.9357 35.0688 38.9358 35.4099 38.9369C35.7221 38.9379 36.0343 38.9378 36.3466 38.9368C36.4595 38.9367 36.5724 38.9369 36.6854 38.9376C37.4578 38.942 38.0067 38.9125 38.5906 38.361C38.862 37.9733 38.9129 37.6659 38.9129 37.1987C38.9131 37.1043 38.9133 37.0098 38.9136 36.9125C38.9134 36.8075 38.9132 36.7026 38.913 36.5976C38.9131 36.4862 38.9132 36.3748 38.9134 36.2634C38.9137 35.957 38.9136 35.6505 38.9133 35.3441C38.9131 35.0137 38.9134 34.6834 38.9136 34.3531C38.914 33.7058 38.9139 33.0586 38.9137 32.4114C38.9135 31.8857 38.9135 31.3599 38.9136 30.8342C38.9136 30.7595 38.9136 30.6847 38.9136 30.6077C38.9136 30.4559 38.9136 30.3041 38.9137 30.1523C38.9139 28.7279 38.9136 27.3036 38.9132 25.8793C38.9129 24.6559 38.9129 23.4325 38.9133 22.2091C38.9137 20.7896 38.9139 19.3702 38.9136 17.9507C38.9136 17.7995 38.9136 17.6483 38.9136 17.4971C38.9135 17.4227 38.9135 17.3483 38.9135 17.2717C38.9135 16.7461 38.9136 16.2206 38.9137 15.6951C38.914 15.0553 38.9139 14.4154 38.9135 13.7756C38.9133 13.4489 38.9132 13.1221 38.9135 12.7954C38.9137 12.4968 38.9136 12.1982 38.9132 11.8995C38.9131 11.791 38.9131 11.6825 38.9133 11.574C38.9135 11.4275 38.9133 11.281 38.9129 11.1344C38.9129 11.0528 38.9129 10.9711 38.9129 10.8869C38.9236 10.7079 38.9236 10.7079 38.825 10.6266C38.7208 10.6188 38.6163 10.6162 38.5119 10.6159C38.4444 10.6154 38.3769 10.615 38.3074 10.6146C38.2329 10.6145 38.1583 10.6144 38.0814 10.6143C38.0033 10.6139 37.9252 10.6135 37.8447 10.6131C37.6743 10.6123 37.5039 10.6116 37.3335 10.6111C37.0635 10.6102 36.7936 10.6086 36.5236 10.6069C35.7558 10.6021 34.9879 10.5979 34.2201 10.5953C33.7509 10.5936 33.2818 10.5909 32.8126 10.5874C32.634 10.5863 32.4553 10.5856 32.2766 10.5854C32.0259 10.585 31.7752 10.5832 31.5244 10.5811C31.4144 10.5814 31.4144 10.5814 31.3022 10.5818C30.4929 10.5716 29.8767 10.3355 29.2937 9.76726C28.8414 9.19721 28.7237 8.63798 28.7219 7.92465C28.7212 7.85067 28.7204 7.77669 28.7196 7.70046C28.7172 7.45698 28.7158 7.21351 28.7145 6.97002C28.713 6.80079 28.7115 6.63156 28.7099 6.46232C28.7059 6.01768 28.7028 5.57304 28.6999 5.1284C28.6968 4.67436 28.6928 4.22032 28.6889 3.76629C28.6813 2.87599 28.6747 1.9857 28.6687 1.09539C26.2224 1.08826 23.7761 1.08273 21.3297 1.07943C21.0408 1.07904 20.7518 1.07864 20.4628 1.07822C20.3766 1.0781 20.3765 1.0781 20.2885 1.07798C19.3577 1.07662 18.4268 1.07415 17.4959 1.07128C16.5405 1.06835 15.585 1.06662 14.6295 1.06599C14.0401 1.06556 13.4508 1.06421 12.8614 1.06167C12.4092 1.05982 11.9569 1.05962 11.5046 1.06004C11.3193 1.05996 11.134 1.05934 10.9488 1.05814C10.6955 1.05658 10.4423 1.05696 10.189 1.05781C10.116 1.0569 10.0429 1.05599 9.96767 1.05505C9.39285 1.06026 8.88911 1.18186 8.4783 1.6032ZM29.7625 1.87664C29.757 2.69093 29.7529 3.50521 29.7503 4.31951C29.7491 4.69766 29.7475 5.0758 29.7448 5.45395C29.7422 5.81918 29.7408 6.18439 29.7402 6.54963C29.7398 6.68867 29.739 6.82771 29.7377 6.96674C29.736 7.16214 29.7358 7.3575 29.7359 7.55291C29.735 7.60983 29.7342 7.66676 29.7333 7.72541C29.7363 8.23334 29.8516 8.65776 30.1824 9.04949C30.7348 9.5098 31.2127 9.54499 31.9168 9.54176C31.9824 9.54177 32.048 9.54178 32.1156 9.54179C32.3312 9.54174 32.5468 9.54113 32.7624 9.54052C32.9123 9.54037 33.0623 9.54026 33.2123 9.54018C33.606 9.53989 33.9998 9.53912 34.3936 9.53825C34.7958 9.53745 35.198 9.5371 35.6002 9.5367C36.3887 9.53587 37.1771 9.53454 37.9656 9.53289C37.8919 9.4458 37.8181 9.35886 37.7442 9.27196C37.7031 9.22353 37.6619 9.1751 37.6196 9.12519C37.4509 8.93395 37.2669 8.76526 37.0769 8.59539C36.9948 8.52131 36.9127 8.44715 36.8307 8.37292C36.7871 8.33353 36.7435 8.29414 36.6986 8.25355C36.4428 8.02038 36.1913 7.78275 35.9392 7.54559C35.5599 7.1891 35.1796 6.83373 34.7967 6.48113C34.1856 5.91843 33.579 5.35086 32.9722 4.78359C32.4212 4.26861 31.8698 3.75412 31.3148 3.24341C31.0858 3.03261 30.8578 2.82091 30.6307 2.60815C30.5804 2.56107 30.53 2.514 30.4781 2.4655C30.3802 2.37383 30.2823 2.28202 30.1847 2.19004C30.0002 1.97588 30.0002 1.97588 29.7625 1.87664ZM1.41775 16.32C1.05779 16.8342 1.06774 17.3172 1.06915 17.9237C1.06875 18.0128 1.06835 18.1019 1.06794 18.1937C1.06685 18.4878 1.06692 18.7819 1.0671 19.076C1.0668 19.2807 1.06646 19.4855 1.06609 19.6902C1.06545 20.1191 1.06552 20.548 1.06594 20.9769C1.06641 21.4718 1.06545 21.9667 1.06379 22.4616C1.06224 22.9388 1.06201 23.416 1.06228 23.8932C1.06224 24.0958 1.06183 24.2983 1.06105 24.5009C1.06008 24.7842 1.06061 25.0674 1.06152 25.3507C1.06092 25.4342 1.06032 25.5177 1.05971 25.6038C1.06426 26.2496 1.18033 26.7051 1.63748 27.1891C2.01699 27.4548 2.32023 27.5113 2.7775 27.5119C2.91175 27.5124 2.91175 27.5124 3.04871 27.5128C3.14708 27.5128 3.24545 27.5127 3.3468 27.5126C3.45232 27.5128 3.55785 27.5131 3.66337 27.5133C3.95362 27.5139 4.24387 27.5141 4.53413 27.5141C4.84706 27.5143 5.16 27.5149 5.47293 27.5154C6.15733 27.5165 6.84174 27.5169 7.52614 27.5173C7.95345 27.5175 8.38077 27.5178 8.80808 27.5182C9.9911 27.5191 11.1741 27.5199 12.3571 27.5202C12.4707 27.5202 12.4707 27.5202 12.5866 27.5203C12.7005 27.5203 12.7005 27.5203 12.8166 27.5203C12.9704 27.5203 13.1242 27.5204 13.278 27.5204C13.3925 27.5204 13.3925 27.5204 13.5092 27.5205C14.7455 27.5208 15.9818 27.5221 17.2181 27.524C18.4872 27.5258 19.7564 27.5268 21.0255 27.5269C21.7382 27.5269 22.4508 27.5274 23.1634 27.5288C23.7702 27.53 24.377 27.5304 24.9839 27.5298C25.2934 27.5295 25.603 27.5295 25.9126 27.5306C26.1961 27.5316 26.4797 27.5315 26.7632 27.5306C26.9141 27.5304 27.0649 27.5313 27.2157 27.5323C27.8337 27.5287 28.3211 27.4948 28.8103 27.0817C29.0854 26.7516 29.2446 26.5119 29.2464 26.0755C29.2477 25.9538 29.2477 25.9538 29.2491 25.8296C29.2489 25.7414 29.2486 25.6532 29.2484 25.5623C29.2491 25.4688 29.2497 25.3752 29.2504 25.2789C29.2519 25.0228 29.2524 24.7668 29.2522 24.5108C29.2522 24.2967 29.2529 24.0826 29.2535 23.8684C29.255 23.3629 29.2553 22.8574 29.2547 22.3519C29.2542 21.8315 29.256 21.3111 29.2589 20.7907C29.2613 20.343 29.2622 19.8954 29.2619 19.4477C29.2617 19.1807 29.2621 18.9137 29.2641 18.6467C29.2658 18.3486 29.265 18.0506 29.2637 17.7526C29.2647 17.6648 29.2657 17.5771 29.2668 17.4867C29.2611 16.954 29.1841 16.5799 28.825 16.1735C28.4444 15.8767 28.1664 15.7733 27.6895 15.7724C27.599 15.7721 27.5085 15.7717 27.4153 15.7713C27.3154 15.7714 27.2156 15.7714 27.1127 15.7714C27.0059 15.7711 26.8991 15.7708 26.7923 15.7705C26.4981 15.7697 26.204 15.7694 25.9098 15.7692C25.5928 15.7689 25.2759 15.7682 24.9589 15.7675C24.1931 15.766 23.4273 15.7652 22.6615 15.7645C22.301 15.7641 21.9404 15.7637 21.5799 15.7633C20.3818 15.762 19.1836 15.7608 17.9854 15.7603C17.6745 15.7601 17.3635 15.76 17.0525 15.7598C16.9752 15.7598 16.8979 15.7598 16.8183 15.7597C15.5658 15.7591 14.3133 15.7571 13.0608 15.7545C11.7753 15.752 10.4898 15.7506 9.20432 15.7503C8.48238 15.7501 7.76046 15.7495 7.03853 15.7475C6.42379 15.7458 5.80906 15.7451 5.19432 15.7459C4.88064 15.7463 4.56699 15.7461 4.25331 15.7446C3.96608 15.7432 3.67889 15.7433 3.39165 15.7445C3.23867 15.7448 3.08569 15.7435 2.93272 15.7422C2.28083 15.747 1.87011 15.8237 1.41775 16.32Z" fill="#0C6399"/>
<path d="M10.2346 18.5141C10.4311 18.8482 10.5377 19.1905 10.6285 19.5645C10.6421 19.6186 10.6556 19.6727 10.6696 19.7284C10.6979 19.8419 10.7259 19.9555 10.7537 20.0692C10.7961 20.2428 10.8396 20.4162 10.8832 20.5896C11.0939 21.4392 11.0939 21.4392 11.0939 21.7953C11.1455 21.7953 11.1971 21.7953 11.2502 21.7953C11.2653 21.6586 11.2653 21.6586 11.2807 21.5191C11.3411 21.0383 11.4672 20.5739 11.5884 20.1056C11.6312 19.9394 11.6728 19.7729 11.7144 19.6063C11.7417 19.4998 11.769 19.3933 11.7965 19.2868C11.8331 19.143 11.8331 19.143 11.8706 18.9963C11.9488 18.762 12.0194 18.6147 12.1877 18.436C12.4265 18.3771 12.6495 18.3934 12.8908 18.436C13.0568 18.5483 13.0568 18.5483 13.1252 18.7485C13.0875 19.3962 12.9199 20.0138 12.7599 20.6399C12.731 20.754 12.7021 20.868 12.6731 20.9821C12.6128 21.2197 12.5519 21.4573 12.4909 21.6947C12.4128 21.9989 12.3363 22.3035 12.2601 22.6081C12.201 22.8432 12.1409 23.078 12.0805 23.3127C12.0518 23.4249 12.0235 23.5372 11.9956 23.6496C11.9565 23.8064 11.916 23.9628 11.8751 24.1191C11.8524 24.208 11.8298 24.297 11.8064 24.3886C11.7088 24.6332 11.6348 24.7164 11.4064 24.8422C11.138 24.8814 11.001 24.8886 10.7794 24.7263C10.5657 24.4539 10.5051 24.1825 10.4238 23.8498C10.4069 23.7843 10.39 23.7189 10.3726 23.6514C10.319 23.4431 10.267 23.2345 10.215 23.0258C10.1789 22.8842 10.1427 22.7426 10.1064 22.601C10.0178 22.2546 9.9305 21.9079 9.84394 21.561C9.69855 21.983 9.56804 22.4035 9.46095 22.8372C9.43471 22.9407 9.40841 23.0441 9.38206 23.1476C9.34157 23.3074 9.30146 23.4673 9.2623 23.6274C9.22379 23.7842 9.18381 23.9406 9.14356 24.097C9.12051 24.1895 9.09745 24.282 9.0737 24.3772C8.97599 24.63 8.90755 24.7144 8.67207 24.8422C8.43769 24.8764 8.43769 24.8764 8.20332 24.8422C7.91804 24.6143 7.83167 24.4115 7.74307 24.062C7.70633 23.9203 7.70633 23.9203 7.66884 23.7758C7.64331 23.6729 7.61782 23.57 7.59236 23.4671C7.56524 23.3608 7.53803 23.2545 7.51074 23.1483C7.43919 22.8685 7.36898 22.5885 7.29901 22.3084C7.24213 22.0816 7.18429 21.8551 7.1264 21.6286C7.05678 21.3561 6.98759 21.0835 6.91853 20.8108C6.90558 20.7598 6.89262 20.7087 6.87928 20.6561C6.7603 20.1854 6.64318 19.7142 6.53893 19.24C6.52574 19.1804 6.51256 19.1208 6.49897 19.0594C6.48457 18.9047 6.48457 18.9047 6.58711 18.6655C6.78608 18.437 6.78608 18.437 7.05586 18.4116C7.34394 18.436 7.34394 18.436 7.50561 18.5512C7.71474 18.8247 7.77695 19.0974 7.85786 19.4284C7.88321 19.5266 7.88321 19.5266 7.90907 19.6267C7.9626 19.835 8.01461 20.0437 8.0666 20.2524C8.10271 20.394 8.13893 20.5356 8.17524 20.6772C8.26387 21.0236 8.35113 21.3703 8.43769 21.7172C8.70755 20.7649 8.70755 20.7649 8.95252 19.8059C8.9703 19.7339 8.98807 19.662 9.00639 19.5879C9.04171 19.4439 9.07561 19.2997 9.10832 19.1551C9.24088 18.6327 9.24088 18.6327 9.53083 18.4238C9.83288 18.339 9.96083 18.362 10.2346 18.5141Z" fill="#0C6399"/>
<path d="M16.4063 18.5172C16.5257 18.7059 16.5257 18.7059 16.6099 18.9395C16.6415 19.0241 16.6731 19.1086 16.7056 19.1958C16.7508 19.3239 16.7508 19.3239 16.7969 19.4547C16.8529 19.6028 16.9091 19.7509 16.9654 19.8989C17.021 20.0503 17.0764 20.2018 17.1317 20.3534C17.1616 20.435 17.1915 20.5166 17.2223 20.6007C17.3167 20.8583 17.4108 21.116 17.5049 21.3736C17.5682 21.5465 17.6315 21.7194 17.6949 21.8923C17.9982 22.7205 17.9982 22.7205 18.1233 23.0649C18.1789 23.2168 18.2355 23.3683 18.2928 23.5196C18.3215 23.5959 18.3501 23.6723 18.3797 23.7509C18.4057 23.8195 18.4318 23.8881 18.4587 23.9587C18.5356 24.2064 18.5339 24.3699 18.4375 24.6109C18.2602 24.808 18.1534 24.8412 17.8906 24.8795C17.5875 24.8353 17.534 24.7728 17.3438 24.5328C17.2291 24.2846 17.1398 24.0295 17.0508 23.7711C16.9251 23.4134 16.9251 23.4134 16.7969 23.0484C15.9461 23.0098 15.9461 23.0098 15.0781 22.9703C15.0523 23.125 15.0266 23.2797 15 23.4391C14.9294 23.6426 14.8562 23.8404 14.7754 24.0397C14.7453 24.1174 14.7453 24.1174 14.7147 24.1967C14.5171 24.6897 14.5171 24.6897 14.2969 24.8453C14.0283 24.8844 14.0283 24.8844 13.75 24.8453C13.5547 24.6891 13.5547 24.6891 13.4375 24.4547C13.463 23.9262 13.6264 23.4728 13.8116 22.9807C13.8415 22.8999 13.8713 22.8192 13.902 22.736C13.9972 22.4786 14.0933 22.2215 14.1895 21.9645C14.2523 21.7948 14.315 21.6251 14.3777 21.4554C14.5574 20.9702 14.7392 20.4857 14.9219 20.0016C14.9492 19.9289 14.9766 19.8562 15.0048 19.7813C15.0798 19.5825 15.1554 19.384 15.2313 19.1855C15.2533 19.1273 15.2752 19.0691 15.2978 19.0091C15.4507 18.6134 15.4507 18.6134 15.625 18.4391C15.9182 18.3134 16.123 18.3904 16.4063 18.5172ZM15.9375 20.7047C15.8722 20.8723 15.8072 21.0399 15.7422 21.2076C15.7059 21.301 15.6697 21.3943 15.6323 21.4905C15.5423 21.6917 15.5423 21.6917 15.5469 21.7984C15.8047 21.7984 16.0625 21.7984 16.3281 21.7984C16.2788 21.4037 16.1614 21.0722 16.0156 20.7047C15.9898 20.7047 15.9641 20.7047 15.9375 20.7047Z" fill="#0C6399"/>
<path d="M19.7674 18.513C19.9444 18.7205 20.0503 18.9174 20.1431 19.1728C20.1681 19.2408 20.1931 19.3089 20.2189 19.379C20.245 19.4518 20.2711 19.5246 20.2981 19.5997C20.3255 19.675 20.3529 19.7503 20.3811 19.8279C20.4388 19.9868 20.4963 20.1458 20.5535 20.3048C20.6412 20.5487 20.73 20.7922 20.8188 21.0357C20.8748 21.1901 20.9307 21.3446 20.9865 21.4991C21.0131 21.5721 21.0397 21.6451 21.0672 21.7203C21.0914 21.7881 21.1157 21.8559 21.1407 21.9258C21.1622 21.9854 21.1837 22.045 21.2058 22.1064C21.2517 22.263 21.2517 22.263 21.2517 22.4973C21.3033 22.4973 21.3549 22.4973 21.408 22.4973C21.4283 22.3967 21.4487 22.296 21.4696 22.1923C21.5575 21.7982 21.6855 21.4276 21.8276 21.0502C21.8528 20.9824 21.8781 20.9146 21.9041 20.8447C21.9571 20.7027 22.0103 20.5607 22.0638 20.4189C22.1456 20.2017 22.2261 19.984 22.3066 19.7663C22.3584 19.6278 22.4104 19.4894 22.4624 19.351C22.4983 19.2536 22.4983 19.2536 22.5349 19.1542C22.5578 19.0939 22.5808 19.0336 22.6044 18.9715C22.6242 18.9187 22.6441 18.8658 22.6645 18.8113C22.772 18.598 22.8977 18.4664 23.117 18.3714C23.3399 18.3517 23.4752 18.4137 23.6736 18.513C23.8299 18.6692 23.8299 18.6692 23.8564 18.9421C23.8452 19.3525 23.7077 19.7042 23.5613 20.0837C23.5333 20.1587 23.5053 20.2337 23.4765 20.311C23.3869 20.5502 23.2959 20.7889 23.2049 21.0276C23.1461 21.184 23.0874 21.3404 23.0288 21.4968C22.9123 21.8072 22.7948 22.1172 22.6766 22.427C22.5585 22.7368 22.4429 23.0475 22.3293 23.359C22.3016 23.4341 22.2739 23.5092 22.2454 23.5865C22.1931 23.7282 22.1415 23.8702 22.0907 24.0124C21.9652 24.3501 21.8637 24.6195 21.5642 24.8411C21.307 24.8786 21.1611 24.8796 20.9354 24.7471C20.7499 24.5762 20.6946 24.4388 20.6103 24.2018C20.5803 24.1191 20.5503 24.0363 20.5194 23.9511C20.488 23.8615 20.4567 23.7719 20.4244 23.6796C20.3911 23.587 20.3578 23.4943 20.3234 23.3989C20.2349 23.1522 20.1472 22.9051 20.06 22.658C19.9723 22.4101 19.8836 22.1626 19.795 21.9151C19.6946 21.6348 19.5943 21.3546 19.4949 21.074C19.3089 20.55 19.1136 20.0313 18.9061 19.5154C18.7997 19.2066 18.782 18.992 18.8299 18.6692C18.9423 18.4949 19.0231 18.4527 19.2107 18.3714C19.4389 18.3512 19.5665 18.4048 19.7674 18.513Z" fill="#0C6399"/>
</g>
<defs>
<clipPath id="clip0_10162_47061">
<rect width="40" height="40" fill="white"/>
</clipPath>
</defs>
</svg>
