<svg width="40" height="40" viewBox="0 0 40 40" fill="none" xmlns="http://www.w3.org/2000/svg">
<g clip-path="url(#clip0_10162_47067)">
<path d="M9.33107 -0.00884639C9.40115 -0.00919466 9.47123 -0.00954293 9.54343 -0.00990175C9.65845 -0.00988014 9.65845 -0.00988014 9.77579 -0.0098581C9.89835 -0.010289 9.89835 -0.010289 10.0234 -0.0107285C10.2981 -0.0115912 10.5727 -0.0118911 10.8474 -0.0121886C11.044 -0.012678 11.2406 -0.0131973 11.4372 -0.0137443C12.0278 -0.0152466 12.6183 -0.0160747 13.2089 -0.0167699C13.4872 -0.0171126 13.7655 -0.0175318 14.0438 -0.0179409C14.9692 -0.0192699 15.8946 -0.0204022 16.82 -0.0209682C17.0601 -0.0211174 17.3001 -0.0212674 17.5402 -0.0214202C17.5999 -0.021458 17.6595 -0.0214958 17.721 -0.0215347C18.6871 -0.022183 19.6533 -0.0241621 20.6194 -0.0267C21.6119 -0.0292857 22.6044 -0.0306909 23.5969 -0.0309404C24.1539 -0.0311093 24.7109 -0.03179 25.2679 -0.0337889C25.7921 -0.0356656 26.3162 -0.0359386 26.8404 -0.0351357C27.0325 -0.035097 27.2247 -0.0355913 27.4169 -0.0366635C27.6797 -0.0380477 27.9424 -0.0374926 28.2053 -0.0364656C28.3187 -0.0377511 28.3187 -0.0377511 28.4345 -0.0390625C29.1102 -0.0327092 29.7243 0.144427 30.2166 0.62664C30.2812 0.688374 30.3459 0.750108 30.4125 0.813712C30.4816 0.880885 30.5507 0.948057 30.6219 1.01726C30.7403 1.12736 30.8595 1.23657 30.9788 1.34575C31.6436 1.95477 32.3004 2.57274 32.959 3.18844C33.4661 3.66239 33.9735 4.13595 34.4842 4.60613C34.9194 5.00695 35.3512 5.41148 35.7825 5.81657C36.1474 6.1591 36.5143 6.49949 36.8825 6.83849C37.2555 7.18207 37.6265 7.52773 37.9963 7.87477C38.2353 8.09884 38.4757 8.32088 38.7206 8.53863C39.3567 9.10649 39.9406 9.65019 40.0168 10.5496C40.017 10.6334 40.0172 10.7172 40.0174 10.8036C40.018 10.9008 40.0186 10.998 40.0192 11.0982C40.0191 11.2055 40.0189 11.3128 40.0188 11.4201C40.0192 11.5345 40.0197 11.649 40.0202 11.7634C40.0215 12.0777 40.0217 12.3919 40.0219 12.7062C40.0221 13.0452 40.0233 13.3842 40.0244 13.7233C40.0265 14.4645 40.0274 15.2057 40.0281 15.9469C40.0286 16.4099 40.0292 16.8729 40.0299 17.3359C40.0318 18.6183 40.0334 19.9006 40.034 21.183C40.034 21.265 40.034 21.3471 40.0341 21.4316C40.0341 21.5138 40.0341 21.5961 40.0342 21.6808C40.0342 21.8475 40.0343 22.0141 40.0344 22.1808C40.0344 22.2635 40.0345 22.3461 40.0345 22.4313C40.0351 23.7704 40.0378 25.1095 40.0415 26.4486C40.0452 27.8241 40.0471 29.1996 40.0473 30.575C40.0475 31.347 40.0484 32.1191 40.0512 32.8911C40.0536 33.5486 40.0544 34.206 40.0531 34.8635C40.0525 35.1987 40.0526 35.5339 40.0548 35.8692C40.0568 36.1766 40.0566 36.4839 40.0547 36.7913C40.0544 36.902 40.0549 37.0128 40.0563 37.1235C40.0664 37.9986 39.8725 38.7082 39.2791 39.3718C38.5827 39.9928 37.8147 40.0585 36.9175 40.0507C36.7971 40.0511 36.6767 40.0517 36.5563 40.0524C36.2275 40.0539 35.8987 40.0529 35.5699 40.0516C35.2146 40.0505 34.8592 40.0517 34.5038 40.0526C33.8084 40.0541 33.1131 40.0534 32.4177 40.052C31.8525 40.0509 31.2872 40.0506 30.722 40.0509C30.6415 40.0509 30.5609 40.0509 30.478 40.051C30.3143 40.0511 30.1507 40.0511 29.9871 40.0512C28.5413 40.0519 27.0955 40.0506 25.6497 40.0483C24.2475 40.046 22.8454 40.0455 21.4432 40.0467C19.9153 40.048 18.3874 40.0483 16.8596 40.0469C16.6966 40.0468 16.5336 40.0466 16.3706 40.0465C16.2904 40.0464 16.2103 40.0464 16.1276 40.0463C15.5632 40.0458 14.9987 40.0461 14.4343 40.0466C13.7463 40.0472 13.0582 40.0467 12.3702 40.0447C12.0193 40.0438 11.6685 40.0433 11.3176 40.0442C10.9961 40.0449 10.6746 40.0443 10.3532 40.0425C10.2371 40.0421 10.1211 40.0422 10.0051 40.0429C9.05346 40.0482 8.35527 39.9071 7.65158 39.2433C7.26787 38.799 7.0181 38.2495 7.01871 37.6615C7.01855 37.5417 7.01855 37.5417 7.01838 37.4194C7.01866 37.3319 7.01894 37.2443 7.01923 37.1541C7.01922 37.0619 7.01921 36.9697 7.0192 36.8746C7.01924 36.6217 7.01964 36.3688 7.02018 36.1159C7.02067 35.8516 7.02072 35.5873 7.02081 35.3229C7.02105 34.8224 7.02169 34.3219 7.02248 33.8214C7.02335 33.2516 7.02378 32.6817 7.02417 32.1119C7.02499 30.9397 7.02636 29.7676 7.0281 28.5954C6.93433 28.597 6.93433 28.597 6.83866 28.5985C6.24571 28.608 5.6528 28.6151 5.0598 28.6197C4.75502 28.6221 4.45031 28.6254 4.14557 28.6308C3.85074 28.6359 3.55598 28.6387 3.26111 28.6399C3.14936 28.6407 3.03762 28.6424 2.92589 28.645C2.03257 28.6646 1.30867 28.4864 0.626736 27.8776C0.0624143 27.2291 -0.0608659 26.5378 -0.0524522 25.7017C-0.0530112 25.6036 -0.0535702 25.5056 -0.0541462 25.4045C-0.0552333 25.1382 -0.05459 24.8719 -0.0530453 24.6056C-0.051755 24.3254 -0.052455 24.0453 -0.0528515 23.7651C-0.0532035 23.2951 -0.0519722 22.825 -0.0497819 22.355C-0.0472761 21.813 -0.0472803 21.2712 -0.0486268 20.7293C-0.0498698 20.2057 -0.0493382 19.6822 -0.0480069 19.1586C-0.0474728 18.9368 -0.0475483 18.7149 -0.0481279 18.4931C-0.0488423 18.1829 -0.0469579 17.8728 -0.0448228 17.5626C-0.0453326 17.4715 -0.0458425 17.3805 -0.0463678 17.2866C-0.03758 16.5336 0.175631 15.8719 0.699978 15.3141C1.48816 14.6495 2.31974 14.5763 3.32022 14.5881C3.4277 14.5886 3.53518 14.5889 3.64266 14.5891C3.92291 14.59 4.20314 14.5923 4.48338 14.5949C4.7704 14.5973 5.05742 14.5984 5.34445 14.5996C5.90568 14.6021 6.46689 14.6061 7.0281 14.611C7.02781 14.5465 7.02753 14.482 7.02723 14.4155C7.02032 12.844 7.01515 11.2725 7.01191 9.70098C7.0103 8.94099 7.00811 8.18102 7.00453 7.42104C7.00141 6.75843 6.9994 6.09583 6.9987 5.43322C6.99829 5.08255 6.99734 4.73191 6.99506 4.38125C6.99293 4.05075 6.99229 3.72028 6.99276 3.38977C6.99267 3.26891 6.99206 3.14804 6.99085 3.02718C6.98168 2.05895 7.11103 1.34422 7.79196 0.625114C8.24105 0.224958 8.72815 -0.00745274 9.33107 -0.00884639ZM8.43435 1.64226C8.15007 2.10929 8.11202 2.55521 8.11246 3.09289C8.11235 3.19476 8.11224 3.29664 8.11213 3.40161C8.11241 3.51354 8.11269 3.62548 8.11298 3.73741C8.11301 3.85601 8.11299 3.97461 8.11295 4.09322C8.11293 4.4144 8.11339 4.73557 8.11393 5.05675C8.11442 5.3927 8.11447 5.72865 8.11456 6.0646C8.1148 6.70041 8.11544 7.33622 8.11623 7.97203C8.1171 8.69603 8.11753 9.42003 8.11792 10.144C8.11874 11.633 8.12011 13.122 8.12185 14.611C8.22461 14.6112 8.32737 14.6114 8.43324 14.6116C10.874 14.6161 13.3147 14.6217 15.7555 14.6289C16.0561 14.6298 16.3566 14.6307 16.6572 14.6315C16.7171 14.6317 16.7769 14.6319 16.8386 14.632C17.8068 14.6348 18.7749 14.6367 19.7431 14.6384C20.737 14.6401 21.7309 14.6427 22.7248 14.6461C23.3378 14.6481 23.9508 14.6495 24.5638 14.65C25.0343 14.6505 25.5048 14.6522 25.9753 14.6543C26.1679 14.655 26.3606 14.6553 26.5533 14.6552C26.8168 14.655 27.0803 14.6563 27.3438 14.658C27.4576 14.6574 27.4576 14.6574 27.5736 14.6568C28.3601 14.665 29.027 14.8416 29.6062 15.3923C30.2411 16.0747 30.3445 16.7849 30.3397 17.6927C30.3403 17.8352 30.3403 17.8352 30.3409 17.9805C30.3418 18.2391 30.3416 18.4977 30.3408 18.7563C30.3402 19.0281 30.3408 19.2999 30.3412 19.5717C30.3416 20.028 30.341 20.4842 30.3399 20.9405C30.3386 21.4665 30.339 21.9925 30.3403 22.5185C30.3414 22.9718 30.3415 23.425 30.3409 23.8783C30.3406 24.1483 30.3405 24.4183 30.3413 24.6883C30.3421 24.9895 30.341 25.2906 30.3397 25.5919C30.3402 25.6803 30.3406 25.7687 30.3411 25.8598C30.3343 26.7178 30.1343 27.3485 29.5281 27.9704C28.9304 28.4446 28.3525 28.5405 27.6068 28.539C27.4818 28.5397 27.4818 28.5397 27.3543 28.5404C27.075 28.5417 26.7958 28.5419 26.5165 28.5422C26.3163 28.5429 26.1161 28.5437 25.9159 28.5446C25.485 28.5462 25.054 28.5475 24.623 28.5483C23.9999 28.5494 23.3768 28.5514 22.7536 28.5536C21.7426 28.5571 20.7316 28.56 19.7206 28.5624C18.7385 28.5648 17.7565 28.5675 16.7745 28.5706C16.714 28.5708 16.6534 28.571 16.5911 28.5712C16.2873 28.5721 15.9835 28.5731 15.6797 28.5741C13.1605 28.5822 10.6412 28.5892 8.12185 28.5954C8.1182 29.7356 8.11544 30.8759 8.11376 32.0161C8.11295 32.5456 8.11186 33.0751 8.11007 33.6046C8.10834 34.1157 8.10743 34.6268 8.10703 35.1379C8.10674 35.3328 8.10618 35.5276 8.10533 35.7225C8.1042 35.9957 8.10404 36.2689 8.10411 36.5422C8.10355 36.6225 8.10299 36.7028 8.10241 36.7855C8.10428 37.4374 8.16241 37.9939 8.5906 38.5173C9.02131 38.8493 9.31631 38.9175 9.85024 38.9182C9.94899 38.9185 10.0477 38.9188 10.1495 38.9191C10.2593 38.919 10.3691 38.9189 10.4789 38.9189C10.5954 38.9191 10.7118 38.9193 10.8283 38.9196C11.1489 38.9202 11.4694 38.9203 11.7899 38.9204C12.1355 38.9205 12.481 38.9211 12.8265 38.9217C13.5823 38.9227 14.338 38.9232 15.0938 38.9235C15.5656 38.9237 16.0374 38.9241 16.5092 38.9244C17.8153 38.9254 19.1213 38.9262 20.4274 38.9265C20.511 38.9265 20.5946 38.9265 20.6807 38.9265C20.8064 38.9265 20.8064 38.9265 20.9347 38.9266C21.1045 38.9266 21.2743 38.9266 21.4441 38.9267C21.5705 38.9267 21.5705 38.9267 21.6994 38.9267C23.0645 38.927 24.4296 38.9284 25.7947 38.9302C27.196 38.9321 28.5972 38.933 29.9984 38.9331C30.7853 38.9332 31.5721 38.9336 32.359 38.9351C33.029 38.9363 33.699 38.9367 34.369 38.936C34.7108 38.9357 35.0527 38.9358 35.3945 38.9369C35.7076 38.9379 36.0206 38.9378 36.3337 38.9368C36.4468 38.9367 36.56 38.9369 36.6731 38.9376C37.6124 38.953 37.6124 38.953 38.4362 38.5475C38.471 38.5037 38.5059 38.4599 38.5418 38.4147C38.5778 38.3715 38.6139 38.3283 38.651 38.2838C38.8655 37.932 38.9226 37.5875 38.9225 37.1809C38.9229 37.0865 38.9233 36.992 38.9236 36.8947C38.9232 36.7916 38.9228 36.6885 38.9224 36.5823C38.9225 36.4711 38.9227 36.36 38.923 36.2489C38.9235 35.9438 38.923 35.6387 38.9224 35.3337C38.9219 35.0046 38.9223 34.6755 38.9225 34.3463C38.9229 33.7018 38.9225 33.0573 38.9218 32.4128C38.9209 31.6627 38.921 30.9126 38.921 30.1625C38.921 28.8246 38.9203 27.4868 38.9192 26.1489C38.9181 24.8496 38.9175 23.5504 38.9176 22.2512C38.9176 22.1311 38.9176 22.1311 38.9176 22.0086C38.9176 21.8887 38.9176 21.8887 38.9176 21.7664C38.9177 20.2883 38.9172 18.8103 38.9165 17.3322C38.9163 16.8089 38.9162 16.2856 38.9161 15.7622C38.9161 15.125 38.9157 14.4879 38.915 13.8507C38.9147 13.5253 38.9144 13.2 38.9145 12.8747C38.9146 12.5773 38.9143 12.2799 38.9138 11.9825C38.9136 11.8745 38.9136 11.7665 38.9137 11.6585C38.9139 11.5125 38.9135 11.3665 38.9132 11.2205C38.9131 11.0985 38.9131 11.0985 38.913 10.9741C38.9159 10.7824 38.9159 10.7824 38.825 10.6266C38.7251 10.6264 38.6252 10.6261 38.5223 10.6258C37.5787 10.6229 36.635 10.6184 35.6914 10.6123C35.2063 10.6092 34.7213 10.6067 34.2362 10.6055C33.7676 10.6043 33.2991 10.6016 32.8305 10.5979C32.6522 10.5967 32.4739 10.5961 32.2956 10.596C32.0448 10.5958 31.7941 10.5937 31.5434 10.5912C31.4705 10.5916 31.3976 10.5919 31.3225 10.5924C30.5783 10.5807 29.8974 10.37 29.3502 9.85088C29.007 9.43847 28.7394 8.89928 28.7345 8.35764C28.7333 8.26151 28.7333 8.26151 28.7322 8.16344C28.7317 8.09342 28.7313 8.0234 28.7308 7.95126C28.73 7.87731 28.7293 7.80336 28.7285 7.72717C28.726 7.48242 28.7241 7.23767 28.7221 6.99291C28.7205 6.82334 28.7189 6.65377 28.7172 6.48421C28.7129 6.03764 28.709 5.59106 28.7053 5.14449C28.7014 4.6889 28.697 4.23332 28.6927 3.77773C28.6843 2.88362 28.6764 1.98951 28.6687 1.09539C26.2197 1.09004 23.7707 1.08589 21.3217 1.08342C21.0326 1.08313 20.7434 1.08282 20.4543 1.08252C20.3967 1.08245 20.3391 1.08239 20.2798 1.08233C19.3478 1.08131 18.4159 1.07946 17.4839 1.07731C16.5275 1.07511 15.5712 1.07381 14.6148 1.07334C14.0247 1.07302 13.4347 1.072 12.8446 1.0701C12.392 1.06871 11.9395 1.06856 11.4869 1.06888C11.3013 1.06882 11.1157 1.06835 10.9301 1.06745C10.6768 1.06629 10.4235 1.06657 10.1702 1.0672C10.0967 1.06652 10.0232 1.06584 9.9475 1.06514C9.34134 1.06928 8.88191 1.20714 8.43435 1.64226ZM29.7625 1.87664C29.757 2.69093 29.7529 3.50521 29.7503 4.31951C29.7491 4.69766 29.7475 5.0758 29.7448 5.45395C29.7422 5.81918 29.7408 6.18439 29.7402 6.54963C29.7398 6.68867 29.739 6.82771 29.7377 6.96674C29.736 7.16214 29.7358 7.3575 29.7359 7.55291C29.735 7.60983 29.7342 7.66676 29.7333 7.72541C29.7363 8.23334 29.8516 8.65776 30.1824 9.04949C30.7348 9.5098 31.2127 9.54499 31.9168 9.54176C31.9824 9.54177 32.048 9.54178 32.1156 9.54179C32.3312 9.54174 32.5468 9.54113 32.7624 9.54052C32.9123 9.54037 33.0623 9.54026 33.2123 9.54018C33.606 9.53989 33.9998 9.53912 34.3936 9.53825C34.7958 9.53745 35.198 9.5371 35.6002 9.5367C36.3887 9.53587 37.1771 9.53454 37.9656 9.53289C37.8919 9.4458 37.8181 9.35886 37.7442 9.27196C37.7031 9.22353 37.6619 9.1751 37.6196 9.12519C37.4509 8.93395 37.2669 8.76526 37.0769 8.59539C36.9948 8.52131 36.9127 8.44715 36.8307 8.37292C36.7871 8.33353 36.7435 8.29414 36.6986 8.25355C36.4428 8.02038 36.1913 7.78275 35.9392 7.54559C35.5599 7.1891 35.1796 6.83373 34.7967 6.48113C34.1856 5.91843 33.579 5.35086 32.9722 4.78359C32.4212 4.26861 31.8698 3.75412 31.3148 3.24341C31.0858 3.03261 30.8578 2.82091 30.6307 2.60815C30.5804 2.56107 30.53 2.514 30.4781 2.4655C30.3802 2.37383 30.2823 2.28202 30.1847 2.19004C30.0002 1.97588 30.0002 1.97588 29.7625 1.87664ZM1.41775 16.32C1.05779 16.8342 1.06774 17.3172 1.06915 17.9237C1.06875 18.0128 1.06835 18.1019 1.06794 18.1937C1.06685 18.4878 1.06692 18.7819 1.0671 19.076C1.0668 19.2807 1.06646 19.4855 1.06609 19.6902C1.06545 20.1191 1.06552 20.548 1.06594 20.9769C1.06641 21.4718 1.06545 21.9667 1.06379 22.4616C1.06224 22.9388 1.06201 23.416 1.06228 23.8932C1.06224 24.0958 1.06183 24.2983 1.06105 24.5009C1.06008 24.7842 1.06061 25.0674 1.06152 25.3507C1.06092 25.4342 1.06032 25.5177 1.05971 25.6038C1.06426 26.2496 1.18033 26.7051 1.63748 27.1891C2.01699 27.4548 2.32023 27.5113 2.7775 27.5119C2.91175 27.5124 2.91175 27.5124 3.04871 27.5128C3.14708 27.5128 3.24545 27.5127 3.3468 27.5126C3.45232 27.5128 3.55785 27.5131 3.66337 27.5133C3.95362 27.5139 4.24387 27.5141 4.53413 27.5141C4.84706 27.5143 5.16 27.5149 5.47293 27.5154C6.15733 27.5165 6.84174 27.5169 7.52614 27.5173C7.95345 27.5175 8.38077 27.5178 8.80808 27.5182C9.9911 27.5191 11.1741 27.5199 12.3571 27.5202C12.4707 27.5202 12.4707 27.5202 12.5866 27.5203C12.7005 27.5203 12.7005 27.5203 12.8166 27.5203C12.9704 27.5203 13.1242 27.5204 13.278 27.5204C13.3925 27.5204 13.3925 27.5204 13.5092 27.5205C14.7455 27.5208 15.9818 27.5221 17.2181 27.524C18.4872 27.5258 19.7564 27.5268 21.0255 27.5269C21.7382 27.5269 22.4508 27.5274 23.1634 27.5288C23.7702 27.53 24.377 27.5304 24.9839 27.5298C25.2934 27.5295 25.603 27.5295 25.9126 27.5306C26.1961 27.5316 26.4797 27.5315 26.7632 27.5306C26.9141 27.5304 27.0649 27.5313 27.2157 27.5323C27.8337 27.5287 28.3211 27.4948 28.8103 27.0817C29.0854 26.7516 29.2446 26.5119 29.2464 26.0755C29.2477 25.9538 29.2477 25.9538 29.2491 25.8296C29.2489 25.7414 29.2486 25.6532 29.2484 25.5623C29.2491 25.4688 29.2497 25.3752 29.2504 25.2789C29.2519 25.0228 29.2524 24.7668 29.2522 24.5108C29.2522 24.2967 29.2529 24.0826 29.2535 23.8684C29.255 23.3629 29.2553 22.8574 29.2547 22.3519C29.2542 21.8315 29.256 21.3111 29.2589 20.7907C29.2613 20.343 29.2622 19.8954 29.2619 19.4477C29.2617 19.1807 29.2621 18.9137 29.2641 18.6467C29.2658 18.3486 29.265 18.0506 29.2637 17.7526C29.2647 17.6648 29.2657 17.5771 29.2668 17.4867C29.2611 16.954 29.1841 16.5799 28.825 16.1735C28.4444 15.8767 28.1664 15.7733 27.6895 15.7724C27.599 15.7721 27.5085 15.7717 27.4153 15.7713C27.3154 15.7714 27.2156 15.7714 27.1127 15.7714C27.0059 15.7711 26.8991 15.7708 26.7923 15.7705C26.4981 15.7697 26.204 15.7694 25.9098 15.7692C25.5928 15.7689 25.2759 15.7682 24.9589 15.7675C24.1931 15.766 23.4273 15.7652 22.6615 15.7645C22.301 15.7641 21.9404 15.7637 21.5799 15.7633C20.3818 15.762 19.1836 15.7608 17.9854 15.7603C17.6745 15.7601 17.3635 15.76 17.0525 15.7598C16.9752 15.7598 16.8979 15.7598 16.8183 15.7597C15.5658 15.7591 14.3133 15.7571 13.0608 15.7545C11.7753 15.752 10.4898 15.7506 9.20432 15.7503C8.48238 15.7501 7.76046 15.7495 7.03853 15.7475C6.42379 15.7458 5.80906 15.7451 5.19432 15.7459C4.88064 15.7463 4.56699 15.7461 4.25331 15.7446C3.96608 15.7432 3.67889 15.7433 3.39165 15.7445C3.23867 15.7448 3.08569 15.7435 2.93272 15.7422C2.28083 15.747 1.87011 15.8237 1.41775 16.32Z" fill="#0C6399"/>
<path d="M19.9993 18.8263C20.3081 19.0707 20.5492 19.3191 20.7025 19.6856C20.7446 20.166 20.7446 20.166 20.6097 20.379C20.4235 20.4945 20.2974 20.5345 20.0775 20.545C19.8292 20.436 19.7018 20.33 19.5355 20.1153C19.2462 19.7647 18.9287 19.6748 18.4905 19.6173C17.9795 19.5825 17.5697 19.6926 17.1429 19.9737C17.1058 20.0075 17.0688 20.0414 17.0306 20.0763C17.0387 20.3419 17.0387 20.3419 17.1087 20.6231C17.5075 20.9706 18.1045 20.9673 18.6079 21.036C19.4054 21.1584 20.1277 21.4415 20.6243 22.1075C20.8439 22.5578 20.8674 23.0539 20.7296 23.5357C20.46 24.1374 19.9805 24.452 19.3908 24.7042C18.6231 24.9687 17.6928 24.9421 16.9525 24.6075C16.4894 24.3529 16.1005 24.0755 15.8587 23.5919C15.8307 23.2892 15.8144 23.1115 15.9857 22.8546C16.2303 22.6936 16.3521 22.6796 16.64 22.7325C16.845 22.9083 16.845 22.9083 17.0306 23.1231C17.3226 23.4425 17.5533 23.5733 17.9891 23.6181C18.7812 23.6445 18.7812 23.6445 19.4525 23.2794C19.5754 23.0116 19.5754 23.0116 19.5306 22.7325C19.2214 22.4058 18.9209 22.3522 18.4954 22.293C18.3762 22.274 18.257 22.2549 18.1378 22.2357C18.0291 22.219 17.9205 22.2023 17.8118 22.1856C17.0819 22.0674 16.5095 21.8153 16.0299 21.2359C15.7451 20.7951 15.7116 20.3535 15.7806 19.8419C15.9853 19.3081 16.4033 18.926 16.892 18.6499C17.8399 18.2302 19.1213 18.2688 19.9993 18.8263Z" fill="#0C6399"/>
<path d="M22.7334 18.3582C23.0842 18.6669 23.356 19.0362 23.6367 19.408C23.6808 19.4656 23.7248 19.5233 23.7702 19.5827C24.0091 19.897 24.2374 20.2144 24.4521 20.5457C24.6518 20.2978 24.8484 20.0478 25.0421 19.7952C25.1093 19.7076 25.1766 19.6202 25.2441 19.5329C25.4006 19.3303 25.5547 19.1272 25.7046 18.9197C25.7505 18.8568 25.7964 18.794 25.8438 18.7293C25.8829 18.6741 25.9221 18.6189 25.9625 18.562C26.1309 18.3995 26.253 18.3789 26.4834 18.3582C26.7135 18.417 26.834 18.4634 26.9814 18.6511C27.052 18.9052 27.0236 19.038 26.9521 19.2957C26.7971 19.55 26.6166 19.7828 26.4346 20.0183C26.3351 20.1507 26.2356 20.2832 26.1361 20.4157C25.9781 20.6237 25.8191 20.8307 25.6588 21.037C25.6087 21.1037 25.5585 21.1703 25.5068 21.239C25.4641 21.2936 25.4214 21.3482 25.3774 21.4044C25.2927 21.5631 25.2927 21.5631 25.3552 21.7474C25.4905 21.9931 25.6491 22.2014 25.8242 22.4207C26.1049 22.7786 26.3808 23.1389 26.6445 23.5095C26.7018 23.5892 26.7591 23.6688 26.8182 23.7509C26.9597 23.9963 27.0142 24.1702 27.0303 24.4519C26.9131 24.6765 26.9131 24.6765 26.7178 24.8425C26.4492 24.8914 26.4492 24.8914 26.1709 24.8425C25.7892 24.5178 25.5148 24.1046 25.2236 23.7C25.1276 23.567 25.0314 23.4341 24.9349 23.3014C24.8928 23.2429 24.8507 23.1845 24.8073 23.1242C24.6972 22.9814 24.5828 22.857 24.4521 22.7332C24.2923 22.9396 24.1328 23.1463 23.9736 23.3533C23.9269 23.414 23.8802 23.4746 23.8321 23.5372C23.5581 23.8952 23.2964 24.2545 23.0651 24.642C22.9438 24.7946 22.8369 24.8525 22.6553 24.9207C22.4157 24.906 22.2466 24.8786 22.04 24.7546C21.8987 24.519 21.9282 24.3314 21.9521 24.0613C22.0563 23.8734 22.1533 23.7248 22.2842 23.5584C22.3183 23.5124 22.3525 23.4664 22.3877 23.4191C22.5866 23.1528 22.7927 22.8926 22.9995 22.6325C23.043 22.5768 23.0865 22.5212 23.1313 22.4638C23.2165 22.3551 23.303 22.2474 23.3908 22.1408C23.6201 21.8652 23.6201 21.8652 23.6486 21.5259C23.454 21.2368 23.247 20.9608 23.0312 20.6873C22.9394 20.5684 22.8477 20.4495 22.756 20.3305C22.6079 20.1391 22.4594 19.9481 22.3104 19.7574C22.0918 19.4655 21.9629 19.2781 21.8984 18.9148C22.0027 18.4411 22.2543 18.2702 22.7334 18.3582Z" fill="#0C6399"/>
<path d="M4.29501 18.4375C4.49688 18.6211 4.64688 18.8347 4.80282 19.0576C4.84665 19.1176 4.89048 19.1776 4.93563 19.2395C5.0623 19.4137 5.18674 19.5894 5.31064 19.7656C5.37295 19.8529 5.4353 19.9402 5.49771 20.0275C5.61942 20.1995 5.73954 20.3723 5.85751 20.5469C6.15356 20.1846 6.4443 19.8216 6.71628 19.4409C6.75674 19.3849 6.7972 19.3289 6.83888 19.2712C6.91923 19.1596 6.99866 19.0473 7.07707 18.9343C7.31108 18.6113 7.47524 18.4285 7.88876 18.3594C8.16556 18.46 8.25613 18.5528 8.40146 18.8086C8.47671 19.3676 7.89697 19.9294 7.57626 20.3564C7.43463 20.5459 7.29327 20.7355 7.15329 20.9262C7.07732 21.029 6.9999 21.1306 6.92013 21.2304C6.81657 21.3596 6.81657 21.3596 6.71689 21.5625C6.777 21.9571 7.11922 22.2911 7.36142 22.5977C8.37114 23.8978 8.37114 23.8978 8.43564 24.2969C8.35124 24.5923 8.30727 24.6689 8.04501 24.8438C7.8204 24.8779 7.8204 24.8779 7.57626 24.8438C7.19533 24.5177 6.92041 24.1061 6.629 23.7012C6.53295 23.5682 6.43673 23.4353 6.3403 23.3026C6.29819 23.2441 6.25608 23.1857 6.2127 23.1254C6.10261 22.9827 5.9882 22.8582 5.85751 22.7344C5.40489 23.3202 4.95579 23.9082 4.51474 24.5029C4.37314 24.6875 4.37314 24.6875 4.21689 24.8438C3.91282 24.8775 3.7378 24.8889 3.47958 24.7168C3.31643 24.4688 3.31934 24.3576 3.35751 24.0625C3.47524 23.8375 3.62458 23.6398 3.77743 23.4375C3.81945 23.3801 3.86147 23.3226 3.90477 23.2634C3.99143 23.145 4.07851 23.0268 4.166 22.909C4.36229 22.6433 4.55305 22.3738 4.74423 22.1045C4.85479 21.9498 4.96553 21.7952 5.07626 21.6406C4.74742 21.1364 4.40052 20.6488 4.04111 20.166C3.94462 20.036 3.84819 19.906 3.7518 19.776C3.70978 19.7195 3.66776 19.663 3.62446 19.6048C3.37889 19.2683 3.30576 19.0933 3.35751 18.6719C3.64763 18.3202 3.87048 18.3132 4.29501 18.4375Z" fill="#0C6399"/>
<path d="M10.1 18.4141C10.3881 18.4385 10.3881 18.4385 10.5601 18.5658C10.7415 18.805 10.7384 18.94 10.7361 19.2383C10.736 19.3368 10.736 19.4353 10.736 19.5368C10.7344 19.6439 10.7328 19.751 10.7311 19.8582C10.7305 19.9681 10.7301 20.078 10.7298 20.1879C10.7286 20.4766 10.7255 20.7653 10.722 21.054C10.7188 21.3489 10.7174 21.6437 10.7158 21.9385C10.7125 22.5167 10.7072 23.0948 10.7006 23.6729C10.8027 23.6716 10.9048 23.6704 11.0099 23.6691C11.3892 23.6649 11.7685 23.6622 12.1478 23.66C12.3118 23.6588 12.4759 23.6572 12.64 23.6552C12.876 23.6523 13.112 23.651 13.348 23.65C13.4212 23.6488 13.4943 23.6475 13.5697 23.6463C14.2303 23.6461 14.2303 23.6461 14.5287 23.9072C14.624 24.21 14.6436 24.3733 14.5113 24.6642C14.1554 24.9603 13.7659 24.8973 13.3178 24.8911C13.2218 24.8911 13.1259 24.8911 13.0271 24.8911C12.8243 24.8907 12.6215 24.8893 12.4187 24.8871C12.108 24.8838 11.7974 24.8839 11.4867 24.8844C11.2898 24.8836 11.0928 24.8826 10.8959 24.8813C10.8028 24.8813 10.7097 24.8813 10.6138 24.8813C10.5272 24.8801 10.4406 24.8788 10.3515 24.8775C10.2754 24.8769 10.1993 24.8762 10.1209 24.8755C9.88443 24.8394 9.77775 24.7757 9.60684 24.6104C9.51771 24.343 9.5177 24.1356 9.51612 23.8536C9.51573 23.8008 9.51535 23.7481 9.51495 23.6937C9.51381 23.5193 9.51327 23.3449 9.51284 23.1705C9.51239 23.0492 9.51194 22.9279 9.51149 22.8065C9.51067 22.5521 9.51021 22.2977 9.50994 22.0433C9.50951 21.7176 9.50764 21.3919 9.50541 21.0663C9.50396 20.8156 9.50355 20.565 9.50343 20.3143C9.5032 20.1942 9.50257 20.0742 9.50154 19.9542C9.50021 19.786 9.50036 19.618 9.50086 19.4499C9.50058 19.3543 9.50029 19.2587 9.5 19.1602C9.54666 18.7491 9.6781 18.4539 10.1 18.4141Z" fill="#0C6399"/>
</g>
<defs>
<clipPath id="clip0_10162_47067">
<rect width="40" height="40" fill="white"/>
</clipPath>
</defs>
</svg>
