<svg width="40" height="40" viewBox="0 0 40 40" fill="none" xmlns="http://www.w3.org/2000/svg">
<g clip-path="url(#clip0_10162_47063)">
<path d="M9.33107 -0.00884639C9.40115 -0.00919466 9.47123 -0.00954293 9.54343 -0.00990175C9.65845 -0.00988014 9.65845 -0.00988014 9.77579 -0.0098581C9.89835 -0.010289 9.89835 -0.010289 10.0234 -0.0107285C10.2981 -0.0115912 10.5727 -0.0118911 10.8474 -0.0121886C11.044 -0.012678 11.2406 -0.0131973 11.4372 -0.0137443C12.0278 -0.0152466 12.6183 -0.0160747 13.2089 -0.0167699C13.4872 -0.0171126 13.7655 -0.0175318 14.0438 -0.0179409C14.9692 -0.0192699 15.8946 -0.0204022 16.82 -0.0209682C17.0601 -0.0211174 17.3001 -0.0212674 17.5402 -0.0214202C17.5999 -0.021458 17.6595 -0.0214958 17.721 -0.0215347C18.6871 -0.022183 19.6533 -0.0241621 20.6194 -0.0267C21.6119 -0.0292857 22.6044 -0.0306909 23.5969 -0.0309404C24.1539 -0.0311093 24.7109 -0.03179 25.2679 -0.0337889C25.7921 -0.0356656 26.3162 -0.0359386 26.8404 -0.0351357C27.0325 -0.035097 27.2247 -0.0355913 27.4169 -0.0366635C27.6797 -0.0380477 27.9424 -0.0374926 28.2053 -0.0364656C28.3187 -0.0377511 28.3187 -0.0377511 28.4345 -0.0390625C29.1847 -0.0320084 29.7752 0.193569 30.3094 0.719413C30.3896 0.796767 30.4698 0.874078 30.5501 0.951347C30.5889 0.989314 30.6276 1.02728 30.6675 1.0664C30.8221 1.21614 30.983 1.35824 31.1443 1.50066C31.564 1.87718 31.9732 2.26463 32.3832 2.65165C32.7221 2.97142 33.0622 3.28968 33.4051 3.60515C34.0147 4.1661 34.6195 4.73211 35.2247 5.29781C35.7725 5.80987 36.3212 6.32095 36.8729 6.8289C37.2683 7.19348 37.6606 7.5614 38.0519 7.93041C38.2941 8.15836 38.5371 8.3845 38.7865 8.60454C39.4065 9.1527 39.9434 9.68291 40.0168 10.5496C40.017 10.6334 40.0172 10.7172 40.0174 10.8036C40.018 10.9008 40.0186 10.998 40.0192 11.0982C40.0191 11.2055 40.0189 11.3128 40.0188 11.4201C40.0192 11.5345 40.0197 11.649 40.0202 11.7634C40.0215 12.0777 40.0217 12.3919 40.0219 12.7062C40.0221 13.0452 40.0233 13.3842 40.0244 13.7233C40.0265 14.4645 40.0274 15.2057 40.0281 15.9469C40.0286 16.4099 40.0292 16.8729 40.0299 17.3359C40.0318 18.6183 40.0334 19.9006 40.034 21.183C40.034 21.265 40.034 21.3471 40.0341 21.4316C40.0341 21.5138 40.0341 21.5961 40.0342 21.6808C40.0342 21.8475 40.0343 22.0141 40.0344 22.1808C40.0344 22.2635 40.0345 22.3461 40.0345 22.4313C40.0351 23.7704 40.0378 25.1095 40.0415 26.4486C40.0452 27.8241 40.0471 29.1996 40.0473 30.575C40.0475 31.347 40.0484 32.1191 40.0512 32.8911C40.0536 33.5486 40.0544 34.206 40.0531 34.8635C40.0525 35.1987 40.0526 35.5339 40.0548 35.8692C40.0568 36.1766 40.0566 36.4839 40.0547 36.7913C40.0544 36.902 40.0549 37.0128 40.0563 37.1235C40.0664 37.9986 39.8725 38.7082 39.2791 39.3718C38.5827 39.9928 37.8147 40.0585 36.9175 40.0507C36.7971 40.0511 36.6767 40.0517 36.5563 40.0524C36.2275 40.0539 35.8987 40.0529 35.5699 40.0516C35.2146 40.0505 34.8592 40.0517 34.5038 40.0526C33.8084 40.0541 33.1131 40.0534 32.4177 40.052C31.8525 40.0509 31.2872 40.0506 30.722 40.0509C30.6415 40.0509 30.5609 40.0509 30.478 40.051C30.3143 40.0511 30.1507 40.0511 29.9871 40.0512C28.5413 40.0519 27.0955 40.0506 25.6497 40.0483C24.2475 40.046 22.8454 40.0455 21.4432 40.0467C19.9153 40.048 18.3874 40.0483 16.8596 40.0469C16.6966 40.0468 16.5336 40.0466 16.3706 40.0465C16.2904 40.0464 16.2103 40.0464 16.1276 40.0463C15.5632 40.0458 14.9987 40.0461 14.4343 40.0466C13.7463 40.0472 13.0582 40.0467 12.3702 40.0447C12.0193 40.0438 11.6685 40.0433 11.3176 40.0442C10.9961 40.0449 10.6746 40.0443 10.3532 40.0425C10.2371 40.0421 10.1211 40.0422 10.0051 40.0429C9.05346 40.0482 8.35527 39.9071 7.65158 39.2433C7.26787 38.799 7.0181 38.2495 7.01871 37.6615C7.01855 37.5417 7.01855 37.5417 7.01838 37.4194C7.01866 37.3319 7.01894 37.2443 7.01923 37.1541C7.01922 37.0619 7.01921 36.9697 7.0192 36.8746C7.01924 36.6217 7.01964 36.3688 7.02018 36.1159C7.02067 35.8516 7.02072 35.5873 7.02081 35.3229C7.02105 34.8224 7.02169 34.3219 7.02248 33.8214C7.02335 33.2516 7.02378 32.6817 7.02417 32.1119C7.02499 30.9397 7.02636 29.7676 7.0281 28.5954C6.93433 28.597 6.93433 28.597 6.83866 28.5985C6.24571 28.608 5.6528 28.6151 5.0598 28.6197C4.75502 28.6221 4.45031 28.6254 4.14557 28.6308C3.85074 28.6359 3.55598 28.6387 3.26111 28.6399C3.14936 28.6407 3.03762 28.6424 2.92589 28.645C2.03257 28.6646 1.30867 28.4864 0.626736 27.8776C0.0624143 27.2291 -0.0608659 26.5378 -0.0524522 25.7017C-0.0530112 25.6036 -0.0535702 25.5056 -0.0541462 25.4045C-0.0552333 25.1382 -0.05459 24.8719 -0.0530453 24.6056C-0.051755 24.3254 -0.052455 24.0453 -0.0528515 23.7651C-0.0532035 23.2951 -0.0519722 22.825 -0.0497819 22.355C-0.0472761 21.813 -0.0472803 21.2712 -0.0486268 20.7293C-0.0498698 20.2057 -0.0493382 19.6822 -0.0480069 19.1586C-0.0474728 18.9368 -0.0475483 18.7149 -0.0481279 18.4931C-0.0488423 18.1829 -0.0469579 17.8728 -0.0448228 17.5626C-0.0453326 17.4715 -0.0458425 17.3805 -0.0463678 17.2866C-0.0400112 16.7419 0.0413666 16.3371 0.309353 15.861C0.344198 15.7987 0.379043 15.7363 0.414944 15.6721C0.807034 15.1273 1.33117 14.801 1.98359 14.6435C2.42014 14.5729 2.86399 14.5923 3.30496 14.5958C3.41266 14.596 3.52037 14.5963 3.62807 14.5964C3.9096 14.597 4.19112 14.5985 4.47265 14.6003C4.7607 14.6019 5.04876 14.6026 5.33682 14.6034C5.90059 14.6051 6.46434 14.6077 7.0281 14.611C7.02781 14.5465 7.02753 14.482 7.02723 14.4155C7.02032 12.844 7.01515 11.2725 7.01191 9.70098C7.0103 8.94099 7.00811 8.18102 7.00453 7.42104C7.00141 6.75843 6.9994 6.09583 6.9987 5.43322C6.99829 5.08255 6.99734 4.73191 6.99506 4.38125C6.99293 4.05075 6.99229 3.72028 6.99276 3.38977C6.99267 3.26891 6.99206 3.14804 6.99085 3.02718C6.98168 2.05895 7.11103 1.34422 7.79196 0.625114C8.24105 0.224958 8.72815 -0.00745274 9.33107 -0.00884639ZM8.4783 1.6032C8.1721 2.09312 8.11199 2.51411 8.11246 3.09289C8.11235 3.19476 8.11224 3.29664 8.11213 3.40161C8.11241 3.51354 8.11269 3.62548 8.11298 3.73741C8.11301 3.85601 8.11299 3.97461 8.11295 4.09322C8.11293 4.4144 8.11339 4.73557 8.11393 5.05675C8.11442 5.3927 8.11447 5.72865 8.11456 6.0646C8.1148 6.70041 8.11544 7.33622 8.11623 7.97203C8.1171 8.69603 8.11753 9.42003 8.11792 10.144C8.11874 11.633 8.12011 13.122 8.12185 14.611C8.22461 14.6112 8.32737 14.6114 8.43324 14.6116C10.874 14.6161 13.3147 14.6217 15.7555 14.6289C16.0561 14.6298 16.3566 14.6307 16.6572 14.6315C16.7171 14.6317 16.7769 14.6319 16.8386 14.632C17.8068 14.6348 18.7749 14.6367 19.7431 14.6384C20.737 14.6401 21.7309 14.6427 22.7248 14.6461C23.3378 14.6481 23.9508 14.6495 24.5638 14.65C25.0343 14.6505 25.5048 14.6522 25.9753 14.6543C26.1679 14.655 26.3606 14.6553 26.5533 14.6552C26.8168 14.655 27.0803 14.6563 27.3438 14.658C27.4576 14.6574 27.4576 14.6574 27.5736 14.6568C28.3601 14.665 29.027 14.8416 29.6062 15.3923C30.2411 16.0747 30.3445 16.7849 30.3397 17.6927C30.3403 17.8352 30.3403 17.8352 30.3409 17.9805C30.3418 18.2391 30.3416 18.4977 30.3408 18.7563C30.3402 19.0281 30.3408 19.2999 30.3412 19.5717C30.3416 20.028 30.341 20.4842 30.3399 20.9405C30.3386 21.4665 30.339 21.9925 30.3403 22.5185C30.3414 22.9718 30.3415 23.425 30.3409 23.8783C30.3406 24.1483 30.3405 24.4183 30.3413 24.6883C30.3421 24.9895 30.341 25.2906 30.3397 25.5919C30.3402 25.6803 30.3406 25.7687 30.3411 25.8598C30.3343 26.7178 30.1343 27.3485 29.5281 27.9704C28.9314 28.4438 28.3543 28.5405 27.6098 28.539C27.5268 28.5395 27.4438 28.5399 27.3582 28.5404C27.08 28.5417 26.8019 28.5419 26.5237 28.5422C26.3243 28.5429 26.1248 28.5437 25.9254 28.5446C25.4961 28.5462 25.0668 28.5475 24.6375 28.5483C24.0167 28.5494 23.396 28.5514 22.7753 28.5536C21.7682 28.5571 20.7611 28.56 19.7539 28.5624C18.7757 28.5648 17.7975 28.5675 16.8193 28.5706C16.7288 28.5709 16.7288 28.5709 16.6365 28.5712C16.3339 28.5721 16.0313 28.5731 15.7287 28.5741C13.2191 28.5822 10.7096 28.5892 8.19998 28.5954C8.18901 29.7954 8.18075 30.9954 8.17569 32.1954C8.17328 32.7527 8.16999 33.3099 8.16462 33.8672C8.15993 34.3531 8.15692 34.839 8.15587 35.3249C8.15526 35.5821 8.15359 35.8391 8.15042 36.0962C8.147 36.3838 8.14655 36.6713 8.14676 36.959C8.14508 37.0434 8.14339 37.1278 8.14166 37.2148C8.1463 37.7852 8.25741 38.185 8.66873 38.5954C9.21079 39.0059 9.87786 38.9517 10.5264 38.947C10.6433 38.9474 10.7601 38.9478 10.877 38.9484C11.1968 38.9495 11.5166 38.9487 11.8364 38.9476C12.1818 38.9467 12.5273 38.9477 12.8727 38.9484C13.5488 38.9495 14.2248 38.9489 14.9009 38.9477C15.6884 38.9464 16.4758 38.9466 17.2632 38.9469C18.6681 38.9474 20.073 38.9463 21.4779 38.9443C22.8411 38.9425 24.2042 38.9419 25.5674 38.9427C27.0522 38.9436 28.5369 38.9438 30.0217 38.9426C30.18 38.9425 30.3383 38.9424 30.4966 38.9423C30.5745 38.9422 30.6523 38.9422 30.7326 38.9421C31.2815 38.9417 31.8303 38.9419 32.3792 38.9422C33.048 38.9426 33.7167 38.9421 34.3855 38.9406C34.7267 38.9398 35.0679 38.9394 35.4091 38.94C35.7215 38.9406 36.0338 38.9401 36.3462 38.9387C36.4591 38.9383 36.5721 38.9384 36.6851 38.9389C37.4572 38.9421 38.007 38.9122 38.5906 38.361C38.862 37.9733 38.9129 37.6659 38.9129 37.1987C38.9131 37.1043 38.9133 37.0098 38.9136 36.9125C38.9134 36.8075 38.9132 36.7026 38.913 36.5976C38.9131 36.4862 38.9132 36.3748 38.9134 36.2634C38.9137 35.957 38.9136 35.6505 38.9133 35.3441C38.9131 35.0137 38.9134 34.6834 38.9136 34.3531C38.914 33.7058 38.9139 33.0586 38.9137 32.4114C38.9135 31.8857 38.9135 31.3599 38.9136 30.8342C38.9136 30.7595 38.9136 30.6847 38.9136 30.6077C38.9136 30.4559 38.9136 30.3041 38.9137 30.1523C38.9139 28.7279 38.9136 27.3036 38.9132 25.8793C38.9129 24.6559 38.9129 23.4325 38.9133 22.2091C38.9137 20.7896 38.9139 19.3702 38.9136 17.9507C38.9136 17.7995 38.9136 17.6483 38.9136 17.4971C38.9135 17.4227 38.9135 17.3483 38.9135 17.2717C38.9135 16.7461 38.9136 16.2206 38.9137 15.6951C38.914 15.0553 38.9139 14.4154 38.9135 13.7756C38.9133 13.4489 38.9132 13.1221 38.9135 12.7954C38.9137 12.4968 38.9136 12.1982 38.9132 11.8995C38.9131 11.791 38.9131 11.6825 38.9133 11.574C38.9135 11.4275 38.9133 11.281 38.9129 11.1344C38.9129 11.0528 38.9129 10.9711 38.9129 10.8869C38.9236 10.7079 38.9236 10.7079 38.825 10.6266C38.7208 10.6188 38.6163 10.6162 38.5119 10.6159C38.4444 10.6154 38.3769 10.615 38.3074 10.6146C38.2329 10.6145 38.1583 10.6144 38.0814 10.6143C38.0033 10.6139 37.9252 10.6135 37.8447 10.6131C37.6743 10.6123 37.5039 10.6116 37.3335 10.6111C37.0635 10.6102 36.7936 10.6086 36.5236 10.6069C35.7558 10.6021 34.9879 10.5979 34.2201 10.5953C33.7509 10.5936 33.2818 10.5909 32.8126 10.5874C32.634 10.5863 32.4553 10.5856 32.2766 10.5854C32.0259 10.585 31.7752 10.5832 31.5244 10.5811C31.4144 10.5814 31.4144 10.5814 31.3022 10.5818C30.4929 10.5716 29.8767 10.3355 29.2937 9.76726C28.8414 9.19721 28.7237 8.63798 28.7219 7.92465C28.7212 7.85067 28.7204 7.77669 28.7196 7.70046C28.7172 7.45698 28.7158 7.21351 28.7145 6.97002C28.713 6.80079 28.7115 6.63156 28.7099 6.46232C28.7059 6.01768 28.7028 5.57304 28.6999 5.1284C28.6968 4.67436 28.6928 4.22032 28.6889 3.76629C28.6813 2.87599 28.6747 1.9857 28.6687 1.09539C26.2224 1.08826 23.7761 1.08273 21.3297 1.07943C21.0408 1.07904 20.7518 1.07864 20.4628 1.07822C20.3766 1.0781 20.3765 1.0781 20.2885 1.07798C19.3577 1.07662 18.4268 1.07415 17.4959 1.07128C16.5405 1.06835 15.585 1.06662 14.6295 1.06599C14.0401 1.06556 13.4508 1.06421 12.8614 1.06167C12.4092 1.05982 11.9569 1.05962 11.5046 1.06004C11.3193 1.05996 11.134 1.05934 10.9488 1.05814C10.6955 1.05658 10.4423 1.05696 10.189 1.05781C10.116 1.0569 10.0429 1.05599 9.96767 1.05505C9.39285 1.06026 8.88911 1.18186 8.4783 1.6032ZM29.7625 1.87664C29.757 2.69093 29.7529 3.50521 29.7503 4.31951C29.7491 4.69766 29.7475 5.0758 29.7448 5.45395C29.7422 5.81918 29.7408 6.18439 29.7402 6.54963C29.7398 6.68867 29.739 6.82771 29.7377 6.96674C29.736 7.16214 29.7358 7.3575 29.7359 7.55291C29.735 7.60983 29.7342 7.66676 29.7333 7.72541C29.7363 8.23334 29.8516 8.65776 30.1824 9.04949C30.7348 9.5098 31.2127 9.54499 31.9168 9.54176C31.9824 9.54177 32.048 9.54178 32.1156 9.54179C32.3312 9.54174 32.5468 9.54113 32.7624 9.54052C32.9123 9.54037 33.0623 9.54026 33.2123 9.54018C33.606 9.53989 33.9998 9.53912 34.3936 9.53825C34.7958 9.53745 35.198 9.5371 35.6002 9.5367C36.3887 9.53587 37.1771 9.53454 37.9656 9.53289C37.8919 9.4458 37.8181 9.35886 37.7442 9.27196C37.7031 9.22353 37.6619 9.1751 37.6196 9.12519C37.4509 8.93395 37.2669 8.76526 37.0769 8.59539C36.9948 8.52131 36.9127 8.44715 36.8307 8.37292C36.7871 8.33353 36.7435 8.29414 36.6986 8.25355C36.4428 8.02038 36.1913 7.78275 35.9392 7.54559C35.5599 7.1891 35.1796 6.83373 34.7967 6.48113C34.1856 5.91843 33.579 5.35086 32.9722 4.78359C32.4212 4.26861 31.8698 3.75412 31.3148 3.24341C31.0858 3.03261 30.8578 2.82091 30.6307 2.60815C30.5804 2.56107 30.53 2.514 30.4781 2.4655C30.3802 2.37383 30.2823 2.28202 30.1847 2.19004C30.0002 1.97588 30.0002 1.97588 29.7625 1.87664ZM1.41775 16.32C1.05779 16.8342 1.06774 17.3172 1.06915 17.9237C1.06875 18.0128 1.06835 18.1019 1.06794 18.1937C1.06685 18.4878 1.06692 18.7819 1.0671 19.076C1.0668 19.2807 1.06646 19.4855 1.06609 19.6902C1.06545 20.1191 1.06552 20.548 1.06594 20.9769C1.06641 21.4718 1.06545 21.9667 1.06379 22.4616C1.06224 22.9388 1.06201 23.416 1.06228 23.8932C1.06224 24.0958 1.06183 24.2983 1.06105 24.5009C1.06008 24.7842 1.06061 25.0674 1.06152 25.3507C1.06092 25.4342 1.06032 25.5177 1.05971 25.6038C1.06426 26.2496 1.18033 26.7051 1.63748 27.1891C2.01699 27.4548 2.32023 27.5113 2.7775 27.5119C2.91175 27.5124 2.91175 27.5124 3.04871 27.5128C3.14708 27.5128 3.24545 27.5127 3.3468 27.5126C3.45232 27.5128 3.55785 27.5131 3.66337 27.5133C3.95362 27.5139 4.24387 27.5141 4.53413 27.5141C4.84706 27.5143 5.16 27.5149 5.47293 27.5154C6.15733 27.5165 6.84174 27.5169 7.52614 27.5173C7.95345 27.5175 8.38077 27.5178 8.80808 27.5182C9.9911 27.5191 11.1741 27.5199 12.3571 27.5202C12.4707 27.5202 12.4707 27.5202 12.5866 27.5203C12.7005 27.5203 12.7005 27.5203 12.8166 27.5203C12.9704 27.5203 13.1242 27.5204 13.278 27.5204C13.3925 27.5204 13.3925 27.5204 13.5092 27.5205C14.7455 27.5208 15.9818 27.5221 17.2181 27.524C18.4872 27.5258 19.7564 27.5268 21.0255 27.5269C21.7382 27.5269 22.4508 27.5274 23.1634 27.5288C23.7702 27.53 24.377 27.5304 24.9839 27.5298C25.2934 27.5295 25.603 27.5295 25.9126 27.5306C26.1961 27.5316 26.4797 27.5315 26.7632 27.5306C26.9141 27.5304 27.0649 27.5313 27.2157 27.5323C27.8337 27.5287 28.3211 27.4948 28.8103 27.0817C29.0854 26.7516 29.2446 26.5119 29.2464 26.0755C29.2477 25.9538 29.2477 25.9538 29.2491 25.8296C29.2489 25.7414 29.2486 25.6532 29.2484 25.5623C29.2491 25.4688 29.2497 25.3752 29.2504 25.2789C29.2519 25.0228 29.2524 24.7668 29.2522 24.5108C29.2522 24.2967 29.2529 24.0826 29.2535 23.8684C29.255 23.3629 29.2553 22.8574 29.2547 22.3519C29.2542 21.8315 29.256 21.3111 29.2589 20.7907C29.2613 20.343 29.2622 19.8954 29.2619 19.4477C29.2617 19.1807 29.2621 18.9137 29.2641 18.6467C29.2658 18.3486 29.265 18.0506 29.2637 17.7526C29.2647 17.6648 29.2657 17.5771 29.2668 17.4867C29.2611 16.954 29.1841 16.5799 28.825 16.1735C28.4444 15.8767 28.1664 15.7733 27.6895 15.7724C27.599 15.7721 27.5085 15.7717 27.4153 15.7713C27.3154 15.7714 27.2156 15.7714 27.1127 15.7714C27.0059 15.7711 26.8991 15.7708 26.7923 15.7705C26.4981 15.7697 26.204 15.7694 25.9098 15.7692C25.5928 15.7689 25.2759 15.7682 24.9589 15.7675C24.1931 15.766 23.4273 15.7652 22.6615 15.7645C22.301 15.7641 21.9404 15.7637 21.5799 15.7633C20.3818 15.762 19.1836 15.7608 17.9854 15.7603C17.6745 15.7601 17.3635 15.76 17.0525 15.7598C16.9752 15.7598 16.8979 15.7598 16.8183 15.7597C15.5658 15.7591 14.3133 15.7571 13.0608 15.7545C11.7753 15.752 10.4898 15.7506 9.20432 15.7503C8.48238 15.7501 7.76046 15.7495 7.03853 15.7475C6.42379 15.7458 5.80906 15.7451 5.19432 15.7459C4.88064 15.7463 4.56699 15.7461 4.25331 15.7446C3.96608 15.7432 3.67889 15.7433 3.39165 15.7445C3.23867 15.7448 3.08569 15.7435 2.93272 15.7422C2.28083 15.747 1.87011 15.8237 1.41775 16.32Z" fill="#0C6399"/>
<path d="M8.75547 18.3441C8.8732 18.343 8.8732 18.343 8.9933 18.3418C9.07762 18.3415 9.16193 18.3412 9.24881 18.3408C9.37941 18.3401 9.37941 18.3401 9.51265 18.3395C9.69672 18.3387 9.88079 18.3382 10.0649 18.3379C10.3464 18.3372 10.6279 18.3347 10.9094 18.3323C11.0883 18.3318 11.2672 18.3313 11.4461 18.331C11.5723 18.3296 11.5723 18.3296 11.7011 18.3281C12.1512 18.3295 12.4783 18.3339 12.8136 18.6692C12.8778 19.1859 12.7123 19.4298 12.4132 19.8215C12.3712 19.8786 12.3293 19.9357 12.286 19.9946C12.1964 20.1163 12.1062 20.2376 12.0154 20.3585C11.8777 20.5419 11.7416 20.7264 11.606 20.9113C11.4244 21.1587 11.2423 21.4056 11.0597 21.6523C10.7759 22.0363 10.4954 22.4227 10.2159 22.8098C10.173 22.8692 10.1301 22.9285 10.0859 22.9897C9.92397 23.2143 9.76407 23.4387 9.61044 23.6692C9.69123 23.668 9.77201 23.6667 9.85525 23.6655C10.1559 23.6612 10.4566 23.6585 10.7572 23.6563C10.8872 23.6551 11.0171 23.6535 11.1471 23.6515C11.3342 23.6486 11.5214 23.6473 11.7085 23.6463C11.7663 23.6451 11.8241 23.6439 11.8837 23.6426C12.2355 23.6425 12.4532 23.6913 12.7354 23.9036C12.8136 23.9817 12.8136 23.9817 12.838 24.2405C12.8136 24.5286 12.8136 24.5286 12.6828 24.7003C12.46 24.8729 12.3483 24.8806 12.0689 24.8815C11.9824 24.8825 11.8958 24.8835 11.8066 24.8845C11.7135 24.8838 11.6204 24.8832 11.5245 24.8826C11.3806 24.883 11.3806 24.883 11.2338 24.8835C11.031 24.8837 10.8282 24.8831 10.6255 24.8818C10.3147 24.8801 10.0042 24.8818 9.69345 24.8838C9.49651 24.8836 9.29957 24.8832 9.10263 24.8826C8.96297 24.8835 8.96297 24.8835 8.82049 24.8845C8.73393 24.8835 8.64737 24.8825 8.55819 24.8815C8.48211 24.8812 8.40602 24.881 8.32763 24.8807C8.06763 24.8296 7.97493 24.7351 7.81356 24.5286C7.75916 24.2532 7.76446 24.0724 7.8997 23.8225C8.02397 23.6418 8.15583 23.47 8.29208 23.2981C8.39312 23.166 8.49414 23.0338 8.59512 22.9017C8.6471 22.8346 8.69907 22.7674 8.75263 22.6983C8.99305 22.3859 9.22596 22.0681 9.45907 21.7502C9.50351 21.69 9.54795 21.6297 9.59373 21.5676C10.0729 20.9174 10.5452 20.2624 11.0167 19.6067C10.8878 19.6056 10.8878 19.6056 10.7563 19.6045C10.4371 19.6014 10.118 19.5962 9.79885 19.5905C9.66079 19.5883 9.52272 19.5866 9.38465 19.5855C9.18601 19.5838 8.9875 19.5802 8.78891 19.5762C8.72729 19.5761 8.66567 19.576 8.60219 19.5759C8.32546 19.5685 8.1574 19.5513 7.93052 19.3867C7.76064 19.1388 7.77626 18.9623 7.81356 18.6692C7.92516 18.5018 7.99751 18.4506 8.18804 18.391C8.38084 18.3526 8.55886 18.3456 8.75547 18.3441Z" fill="#0C6399"/>
<path d="M18.5064 18.4172C18.5758 18.4166 18.6452 18.416 18.7167 18.4153C18.8639 18.4142 19.0111 18.4134 19.1584 18.4128C19.3822 18.4114 19.6059 18.408 19.8296 18.4046C19.9728 18.4038 20.1161 18.4031 20.2593 18.4026C20.3257 18.4012 20.392 18.3998 20.4604 18.3984C21.0752 18.4006 21.5931 18.6227 22.0312 19.0608C22.4472 19.7091 22.5757 20.2409 22.4999 21.014C22.2996 21.6926 21.8582 22.1197 21.2636 22.4733C20.7961 22.6646 20.266 22.6006 19.7704 22.5911C19.6638 22.5899 19.5571 22.5889 19.4504 22.5879C19.1909 22.5852 18.9313 22.5813 18.6718 22.5765C18.6734 22.634 18.6751 22.6915 18.6767 22.7508C18.6832 23.0117 18.6873 23.2726 18.6913 23.5335C18.6939 23.624 18.6966 23.7146 18.6992 23.8079C18.7003 23.895 18.7013 23.9821 18.7023 24.0718C18.7039 24.152 18.7056 24.2322 18.7073 24.3148C18.6623 24.5873 18.5767 24.6767 18.3593 24.8421C18.0858 24.886 18.0858 24.886 17.8124 24.8421C17.5899 24.6296 17.5071 24.4994 17.4613 24.1931C17.4615 24.0949 17.4617 23.9968 17.462 23.8957C17.4617 23.8413 17.4614 23.7869 17.4611 23.7308C17.4605 23.5518 17.4621 23.3729 17.4639 23.1938C17.4641 23.069 17.4642 22.9442 17.4641 22.8194C17.4644 22.5582 17.4657 22.2971 17.4678 22.0359C17.4704 21.7013 17.471 21.3667 17.4709 21.0321C17.4709 20.7746 17.4718 20.517 17.4729 20.2594C17.4734 20.1361 17.4737 20.0127 17.4738 19.8893C17.4742 19.7169 17.4755 19.5445 17.4772 19.3721C17.4781 19.225 17.4781 19.225 17.479 19.075C17.4988 18.8401 17.5247 18.707 17.6562 18.514C17.9193 18.3824 18.2169 18.4197 18.5064 18.4172ZM18.6718 19.5296C18.6718 20.1741 18.6718 20.8187 18.6718 21.4827C18.957 21.4876 19.2422 21.4924 19.536 21.4974C19.6249 21.4995 19.7137 21.5016 19.8052 21.5038C20.3666 21.5084 20.7823 21.4755 21.2011 21.0677C21.3511 20.8196 21.4062 20.6802 21.4062 20.389C21.3053 20.0594 21.191 19.8356 20.9102 19.6291C20.4814 19.4796 20.0692 19.5051 19.619 19.5149C19.1502 19.5222 19.1502 19.5222 18.6718 19.5296Z" fill="#0C6399"/>
<path d="M15.6268 18.5142C15.8181 18.7852 15.8037 19.0484 15.8057 19.3723C15.8065 19.4537 15.8065 19.4537 15.8073 19.5368C15.8088 19.7158 15.8091 19.8949 15.8092 20.0739C15.8098 20.1986 15.8103 20.3234 15.8108 20.4481C15.8118 20.7094 15.812 20.9707 15.812 21.232C15.8119 21.5666 15.8141 21.901 15.8168 22.2355C15.8185 22.4931 15.8188 22.7507 15.8187 23.0082C15.8189 23.1316 15.8196 23.2549 15.8208 23.3782C15.8224 23.5508 15.8219 23.7233 15.821 23.8959C15.8212 23.994 15.8214 24.0921 15.8216 24.1932C15.7758 24.4996 15.693 24.6297 15.4705 24.8423C15.1971 24.8862 15.1971 24.8862 14.9236 24.8423C14.7527 24.7184 14.7527 24.7184 14.6111 24.5298C14.572 24.2748 14.572 24.2748 14.5719 23.9686C14.5713 23.8847 14.5713 23.8847 14.5707 23.7991C14.5697 23.6145 14.571 23.4301 14.5724 23.2456C14.5724 23.1172 14.5722 22.9888 14.572 22.8603C14.5719 22.5913 14.5729 22.3224 14.5747 22.0534C14.5769 21.7087 14.5767 21.364 14.5757 21.0193C14.5751 20.7542 14.5758 20.4891 14.5767 20.2239C14.5771 20.0969 14.5771 19.9698 14.5768 19.8427C14.5766 19.665 14.5779 19.4874 14.5796 19.3097C14.58 19.2087 14.5804 19.1076 14.5808 19.0035C14.6128 18.7343 14.6572 18.6264 14.8455 18.436C15.1291 18.2991 15.3507 18.3881 15.6268 18.5142Z" fill="#0C6399"/>
</g>
<defs>
<clipPath id="clip0_10162_47063">
<rect width="40" height="40" fill="white"/>
</clipPath>
</defs>
</svg>
